SplineFontDB: 3.2
FontName: EvangelionCPA
FullName: Evangelion CPA
FamilyName: EvangelionCPA
Weight: Regular
Copyright: Copyright 2025 The Evangelion CPA Project Authors (https://github.com/typiconman/Evangelion-CPA)
Version: 1.1
ItalicAngle: 0
UnderlinePosition: -210
UnderlineWidth: 50
Ascent: 800
Descent: 200
InvalidEm: 0
sfntRevision: 0x00010000
LayerCount: 2
Layer: 0 0 "Back" 1
Layer: 1 0 "Fore" 0
XUID: [1021 156 -1182680201 1545178]
StyleMap: 0x0040
FSType: 1
OS2Version: 0
OS2_WeightWidthSlopeOnly: 0
OS2_UseTypoMetrics: 0
CreationTime: -1237338159
ModificationTime: 1752493981
PfmFamily: 81
TTFWeight: 400
TTFWidth: 5
LineGap: 0
VLineGap: 0
Panose: 0 0 0 0 0 0 0 0 0 0
OS2TypoAscent: 746
OS2TypoAOffset: 0
OS2TypoDescent: 336
OS2TypoDOffset: 0
OS2TypoLinegap: 0
OS2WinAscent: 844
OS2WinAOffset: 0
OS2WinDescent: 394
OS2WinDOffset: 0
HheadAscent: 746
HheadAOffset: 0
HheadDescent: -336
HheadDOffset: 0
OS2SubXSize: 700
OS2SubYSize: 650
OS2SubXOff: 0
OS2SubYOff: 143
OS2SupXSize: 700
OS2SupYSize: 650
OS2SupXOff: 0
OS2SupYOff: 453
OS2StrikeYSize: 50
OS2StrikeYPos: 259
OS2Vendor: 'Alts'
OS2UnicodeRanges: 00000000.00000000.00000000.00000000
Lookup: 1 1 0 "'init' Initial Forms lookup 0" { "'init' Initial Forms lookup 0-1" ("init") } []
Lookup: 1 1 0 "'medi' Medial Forms lookup 1" { "'medi' Medial Forms lookup 1-1" ("med") } []
Lookup: 1 1 0 "'fina' Terminal Forms lookup 2" { "'fina' Terminal Forms lookup 2-1" ("fin") } []
Lookup: 259 9 0 "'curs' Cursive Attachment lookup 0" { "'curs' Cursive Attachment lookup 0-1"  } ['curs' ('DFLT' <'dflt' > 'latn' <'dflt' > 'syrc' <'dflt' > ) ]
MarkAttachClasses: 1
DEI: 91125
TtTable: prep
NPUSHB
 14
 49
 49
 48
 48
 23
 23
 9
 9
 1
 1
 25
 25
 69
 1
SCANTYPE
PUSHW_1
 511
SCANCTRL
SROUND
RCVT
ROUND[Grey]
WCVTP
RTG
PUSHB_4
 0
 1
 70
 0
CALL
PUSHB_4
 2
 1
 70
 0
CALL
PUSHB_4
 3
 23
 70
 0
CALL
PUSHB_4
 4
 1
 70
 0
CALL
PUSHB_4
 5
 1
 70
 0
CALL
PUSHB_4
 6
 1
 70
 0
CALL
PUSHB_4
 7
 1
 70
 0
CALL
PUSHB_4
 8
 23
 70
 0
CALL
PUSHB_4
 10
 1
 70

StartChar: .notdef
Encoding: 1114112 -1 0
Width: 746
GlyphClass: 1
Flags: HW
LayerCount: 2
Fore
SplineSet
111 75 m 1
 111 671 l 1
 635 671 l 1
 635 75 l 1
 111 75 l 1
598 111 m 1
 598 635 l 1
 148 635 l 1
 148 111 l 1
 598 111 l 1
EndSplineSet
EndChar

StartChar: quotedbl
Encoding: 34 34 3
Width: 326
GlyphClass: 1
Flags: HW
LayerCount: 2
Fore
SplineSet
257 375 m 1
 263.666666667 389 270.5 403.333333333 277.5 418 c 128
 284.5 432.666666667 289.666666667 447.333333333 293 462 c 2
 297 484 l 2
 298.333333333 490.666666667 299.5 497.333333333 300.5 504 c 128
 301.5 510.666666667 302 517 302 523 c 0
 302 539.666666667 298.333333333 552.666666667 291 562 c 1
 344 622 l 1
 353.333333333 616.666666667 360.166666667 608.833333333 364.5 598.5 c 128
 368.833333333 588.166666667 371 576.333333333 371 563 c 0
 371 555 370 547 368 539 c 0
 361.333333333 505.666666667 344 468 316 426 c 0
 304 406.666666667 289.333333333 385 272 361 c 1
 257 375 l 1
134 361 m 1
 134 360.333333333 129.666666667 364.666666667 121 374 c 1
 133 396.666666667 142.166666667 415.166666667 148.5 429.5 c 0
 154.833333333 443.166666667 159 455.333333333 161 466 c 2
 166 490 l 2
 167.333333333 497.333333333 168 503.166666667 168 507.5 c 128
 168 514 168 514 168 522 c 0
 168 531.333333333 167.333333333 538.666666667 166 544 c 128
 164.666666667 549.333333333 161.666666667 555.333333333 157 562 c 1
 209 624 l 1
 216.333333333 618.666666667 222 611.666666667 226 603 c 128
 230 594.333333333 232.666666667 586.666666667 234 580 c 128
 235.333333333 573.333333333 236 566.333333333 236 559 c 0
 236 553 235.333333333 546.333333333 234 539 c 2
 228 517 l 1
 218.666666667 491.666666667 205.333333333 465 188 437 c 0
 180 425 162 399.666666667 134 361 c 1
EndSplineSet
EndChar

StartChar: numbersign
Encoding: 35 35 4
Width: 403
GlyphClass: 1
Flags: HW
LayerCount: 2
Fore
SplineSet
277 48 m 1
 243 48 l 1
 243.666666667 48 252 89.3333333333 268 172 c 1
 188 172 l 1
 165 48 l 1
 131 48 l 1
 154 172 l 1
 92 172 l 1
 93 204 l 1
 160 204 l 1
 176 280 l 1
 112 280 l 1
 114 313 l 1
 183 313 l 1
 204 428 l 1
 238 428 l 1
 216 313 l 1
 292 313 l 1
 315 428 l 1
 316 428 316 428 348 428 c 1
 327 313 l 1
 383 313 l 1
 381 280 l 1
 321 280 l 1
 306 204 l 1
 364 204 l 1
 363 172 l 1
 300 172 l 1
 277 48 l 1
195 204 m 1
 273 204 l 1
 273.666666667 204 278.666666667 229.333333333 288 280 c 1
 209 280 l 1
 195 204 l 1
EndSplineSet
EndChar

StartChar: dollar
Encoding: 36 36 5
Width: 415
GlyphClass: 1
Flags: HW
LayerCount: 2
Fore
SplineSet
215 -1 m 1
 214.333333333 -1 214.666666667 15 216 47 c 1
 187.333333333 50.3333333333 166 53.3333333333 152 56 c 0
 129.333333333 61.3333333333 110.333333333 69 95 79 c 1
 94.3333333333 79 108 96.3333333333 136 131 c 1
 144 126.333333333 152 122.333333333 160 119 c 0
 176.666666667 112.333333333 192.666666667 108.666666667 208 108 c 2
 219 109 l 1
 219 109.666666667 220.333333333 148 223 224 c 1
 213 228.666666667 205.333333333 232.333333333 200 235 c 0
 192.666666667 239 186.166666667 243.166666667 180.5 247.5 c 128
 174.833333333 251.833333333 171 254.666666667 169 256 c 0
 163.666666667 260 160.333333333 262.666666667 159 264 c 0
 147 273.333333333 137.166666667 283.833333333 129.5 295.5 c 128
 121.833333333 307.166666667 118 320 118 334 c 0
 118 336.666666667 118.666666667 341.333333333 120 348 c 2
 119 353 l 1
 121 362.333333333 125.333333333 372.666666667 132 384 c 0
 141.333333333 400 155.666666667 413.333333333 175 424 c 0
 191 433.333333333 209.333333333 440 230 444 c 1
 232 498 l 1
 264 508 l 1
 262 447 l 1
 303.333333333 447 340.666666667 440.666666667 374 428 c 1
 340 374 l 1
 327.333333333 380 314.166666667 384.833333333 300.5 388.5 c 128
 286.833333333 392.166666667 273 394 259 394 c 1
 256 286 l 1
 260.666666667 284 267.333333333 280.666666667 276 276 c 0
 294 266 294 266 312 256 c 0
 324 248 324 248 336 240 c 0
 342.666666667 234.666666667 348.833333333 228.333333333 354.5 221 c 128
 360.166666667 213.666666667 364.5 206.833333333 367.5 200.5 c 128
 370.5 194.166666667 372 187 372 179 c 0
 372 174 372 174 372 172 c 0
 369.333333333 158.666666667 366.666666667 148.5 364 141.5 c 128
 361.333333333 134.5 358 127.666666667 354 121 c 0
 343.333333333 103.666666667 328.333333333 88.8333333333 309 76.5 c 128
 289.666666667 64.1666666667 269.333333333 55.3333333333 248 50 c 1
 246 12 l 1
 215 -1 l 1
249 105 m 1
 258.333333333 105 269 106.333333333 281 109 c 0
 294.333333333 113 304 117.166666667 310 121.5 c 0
 315.333333333 125.833333333 318.666666667 130.666666667 320 136 c 0
 321.333333333 144.666666667 321.333333333 150.666666667 320 154 c 0
 316 167.333333333 304 179.666666667 284 191 c 0
 274 197 264 202.666666667 254 208 c 1
 249 105 l 1
225 304 m 1
 229 394 l 1
 228 394 228 394 216 394 c 1
 199.333333333 391.333333333 189 389.333333333 185 388 c 0
 173 384 166.333333333 377.333333333 165 368 c 0
 164.333333333 364 164 361.333333333 164 360 c 0
 164 357.333333333 164.666666667 354.666666667 166 352 c 0
 170 341.333333333 178.333333333 332 191 324 c 0
 192.333333333 322.666666667 203.666666667 316 225 304 c 1
EndSplineSet
EndChar

StartChar: percent
Encoding: 37 37 6
Width: 602
GlyphClass: 1
Flags: HW
LayerCount: 2
Fore
SplineSet
230 38 m 1
 202 38 l 1
 417 398 l 1
 393.666666667 387.333333333 370 382 346 382 c 0
 336.666666667 382 326.333333333 383.333333333 315 386 c 1
 316.333333333 379.333333333 317.333333333 371.666666667 318 363 c 0
 318 353.666666667 316.666666667 342.333333333 314 329 c 2
 311 315 l 1
 301.666666667 289 286.166666667 265.5 264.5 244.5 c 128
 242.833333333 223.5 219.666666667 213 195 213 c 1
 195 212.333333333 189.666666667 212.666666667 179 214 c 2
 164.333333333 217.333333333 152 224.666666667 142 236 c 0
 132 246.666666667 127 259.333333333 127 274 c 0
 127 276.666666667 127.333333333 280.666666667 128 286 c 2
 133 313 l 2
 134.333333333 319 135.666666667 324 137 328 c 128
 138.333333333 332 140.333333333 336.666666667 143 342 c 0
 152.333333333 359.333333333 163.333333333 374.5 176 387.5 c 128
 188.666666667 400.5 202.166666667 410.333333333 216.5 417 c 128
 230.833333333 423.666666667 245 427 259 427 c 0
 274.333333333 427 286 424 294 418 c 0
 296 416.666666667 300 413.333333333 306 408 c 0
 310 404.666666667 313 402.666666667 315 402 c 0
 328.333333333 396.666666667 341.333333333 394 354 394 c 0
 369.333333333 394 385 397.666666667 401 405 c 128
 417 412.333333333 429.333333333 422.333333333 438 435 c 1
 438 434.333333333 447.666666667 434 467 434 c 1
 230 38 l 1
301 390 m 1
 297 391.333333333 289 395.666666667 277 403 c 0
 270.333333333 407 265.666666667 409.666666667 263 411 c 0
 258.333333333 411 252.666666667 408.666666667 246 404 c 0
 226 392 209.333333333 374 196 350 c 0
 186 330.666666667 178 307.333333333 172 280 c 0
 171.333333333 278 171 274.666666667 171 270 c 0
 171 260 173.666666667 251.5 179 244.5 c 128
 184.333333333 237.5 191.333333333 234 200 234 c 2
 217 234 l 2
 223.666666667 235.333333333 229 237.166666667 233 239.5 c 128
 237 241.833333333 243 246 251 252 c 0
 263.666666667 262 274.333333333 274.166666667 283 288.5 c 128
 291.666666667 302.833333333 298 318.666666667 302 336 c 0
 304 344.666666667 305 354.333333333 305 365 c 0
 305 372.333333333 303.666666667 380.666666667 301 390 c 1
539 186 m 2
 536 171 l 1
 532 147 l 1
 524.666666667 119.666666667 510.666666667 95.3333333333 490 74 c 0
 467.333333333 50.6666666667 443.666666667 39 419 39 c 0
 399 39 382 45.1666666667 368 57.5 c 128
 354 69.8333333333 347 85.3333333333 347 104 c 0
 347 107.333333333 347.333333333 111.666666667 348 117 c 2
 352 138 l 2
 354.666666667 149.333333333 358.666666667 161 364 173 c 0
 367.333333333 177.666666667 370 181.666666667 372 185 c 128
 374 188.333333333 376.333333333 191.333333333 379 194 c 0
 391 211.333333333 406.833333333 225.166666667 426.5 235.5 c 128
 446.166666667 245.833333333 466.333333333 251 487 251 c 0
 501.666666667 251 514 245.5 524 234.5 c 128
 534 223.5 539 210.666666667 539 196 c 0
 539.666666667 191.333333333 539.666666667 188 539 186 c 2
523 186 m 0
 523.666666667 187.333333333 523.666666667 190 523 194 c 0
 523 205.333333333 519.666666667 214.833333333 513 222.5 c 128
 506.333333333 230.166666667 497 234 485 234 c 0
 480.333333333 234 475.166666667 233 469.5 231 c 128
 463.833333333 229 459 226.666666667 455 224 c 0
 441.666666667 214.666666667 429.833333333 200.666666667 419.5 182 c 128
 409.166666667 163.333333333 400 135 392 97 c 0
 390 87 392.333333333 77.8333333333 399 69.5 c 128
 405.666666667 61.1666666667 414.666666667 57 426 57 c 0
 438.666666667 57 451 60.6666666667 463 68 c 0
 480.333333333 80 493.666666667 97.6666666667 503 121 c 0
 511 137.666666667 517.666666667 159.333333333 523 186 c 0
EndSplineSet
EndChar

StartChar: ampersand
Encoding: 38 38 7
Width: 701
GlyphClass: 1
Flags: HW
LayerCount: 2
Fore
SplineSet
232 340 m 1
 216 326.666666667 203.333333333 308.666666667 194 286 c 0
 186.666666667 269.333333333 180 248 174 222 c 0
 173.333333333 219.333333333 173.333333333 215.333333333 174 210 c 0
 174 203.333333333 174.833333333 197.166666667 176.5 191.5 c 128
 178.166666667 185.833333333 181 179.333333333 185 172 c 0
 195 152.666666667 206.666666667 137.333333333 220 126 c 0
 236.666666667 111.333333333 256 103 278 101 c 2
 290 100 l 2
 306 100 321.5 103 336.5 109 c 128
 351.5 115 365 124.333333333 377 137 c 1
 333 189 306.666666667 221 298 233 c 0
 268.666666667 271.666666667 246.666666667 307.333333333 232 340 c 1
269 396 m 1
 296 418 l 2
 305.333333333 426.666666667 312 433.666666667 316 439 c 0
 324.666666667 451 330.333333333 463.333333333 333 476 c 0
 334.333333333 480 334.833333333 485.666666667 334.5 493 c 128
 334.166666667 500.333333333 334 506 334 510 c 0
 332.666666667 519.333333333 330.666666667 526.666666667 328 532 c 0
 323.333333333 539.333333333 317.333333333 543 310 543 c 256
 302.666666667 543 295.333333333 541.166666667 288 537.5 c 128
 280.666666667 533.833333333 274.166666667 528 268.5 520 c 128
 262.833333333 512 259.166666667 504 257.5 496 c 128
 255.833333333 488 255 480 255 472 c 0
 255 460.666666667 256.666666667 447.333333333 260 432 c 0
 261.333333333 425.333333333 264.333333333 413.333333333 269 396 c 1
403 122 m 1
 380.333333333 106 355.833333333 93.5 329.5 84.5 c 128
 303.166666667 75.5 277.333333333 71 252 71 c 0
 228.666666667 71 207.166666667 75 187.5 83 c 128
 167.833333333 91 152 103.333333333 140 120 c 0
 122.666666667 141.333333333 114 162 114 182 c 0
 114 186 114.333333333 190.666666667 115 196 c 0
 121.666666667 229.333333333 134.166666667 259.833333333 152.5 287.5 c 128
 170.833333333 315.166666667 194.666666667 339 224 359 c 1
 218.666666667 371.666666667 214.333333333 385 211 399 c 128
 207.666666667 413 206 427.666666667 206 443 c 0
 206 455 207.333333333 465.666666667 210 475 c 0
 214 494.333333333 223 513 237 531 c 0
 246.333333333 543.666666667 259.833333333 553.666666667 277.5 561 c 128
 295.166666667 568.333333333 317.333333333 572 344 572 c 0
 352 572 358.833333333 569.5 364.5 564.5 c 128
 370.166666667 559.5 374.333333333 552.666666667 377 544 c 0
 383 528 386 513.666666667 386 501 c 0
 386 494.333333333 385 488 383 482 c 0
 378.333333333 458 360.666666667 434 330 410 c 0
 321.333333333 403.333333333 303.333333333 390.666666667 276 372 c 1
 288.666666667 333.333333333 307.666666667 297.333333333 333 264 c 0
 356.333333333 232 384.666666667 203.333333333 418 178 c 1
 434.666666667 200 445.333333333 222 450 244 c 0
 451.333333333 252 452.333333333 260 453 268 c 0
 453 282.666666667 449.833333333 295 443.5 305 c 128
 437.166666667 315 429 321 419 323 c 2
 391 324 l 2
 389 324 387.166666667 325.333333333 385.5 328 c 128
 383.833333333 330.666666667 382.666666667 333 382 335 c 2
 382 341 l 2
 382.666666667 343 384 345.333333333 386 348 c 0
 386.666666667 348.666666667 387.666666667 349.333333333 389 350 c 2
 431 348 l 2
 437.666666667 347.333333333 448.333333333 346.666666667 463 346 c 128
 477.666666667 345.333333333 491 345 503 345 c 2
 570 345 l 2
 572.666666667 345 574.333333333 344.333333333 575 343 c 128
 575.666666667 341.666666667 576 337.666666667 576 331 c 2
 574 324 l 2
 573.333333333 322 572.5 320.166666667 571.5 318.5 c 128
 570.5 316.833333333 569.666666667 316 569 316 c 2
 548 316 l 2
 544.666666667 316 539.833333333 316.5 533.5 317.5 c 128
 527.166666667 318.5 522 319 518 319 c 0
 508.666666667 319 501.666666667 316.666666667 497 312 c 0
 495 310.666666667 492.666666667 306 490 298 c 2
 489 292 l 2
 487.666666667 288.666666667 486.666666667 282 486 272 c 0
 483.333333333 253.333333333 481.666666667 242.666666667 481 240 c 0
 479 230 476 220.166666667 472 210.5 c 128
 468 200.833333333 462 190 454 178 c 0
 452 173.333333333 449.833333333 169.333333333 447.5 166 c 128
 445.166666667 162.666666667 443.333333333 160 442 158 c 1
 459.333333333 144 474.333333333 133 487 125 c 0
 507 113 525 107.333333333 541 108 c 0
 549.666666667 108 557.166666667 109.166666667 563.5 111.5 c 128
 569.833333333 113.833333333 574.5 116.666666667 577.5 120 c 128
 580.5 123.333333333 583.666666667 128.666666667 587 136 c 2
 598 152 l 1
 601 154 l 1
 608 153 l 2
 612.666666667 151.666666667 614.666666667 148.666666667 614 144 c 2
 604 119 l 2
 597.333333333 103.666666667 586.166666667 90.6666666667 570.5 80 c 128
 554.833333333 69.3333333333 539 64 523 64 c 0
 500.333333333 64 478.333333333 69.6666666667 457 81 c 0
 440.333333333 90.3333333333 422.333333333 104 403 122 c 1
EndSplineSet
EndChar

StartChar: quotesingle
Encoding: 39 39 8
Width: 161
GlyphClass: 1
Flags: HW
LayerCount: 2
Fore
SplineSet
117 361 m 1
 117 360.333333333 112.666666667 364.666666667 104 374 c 1
 115 396 115 396 127.5 421 c 128
 135.833333333 437.666666667 141.333333333 452.666666667 144 466 c 2
 147 491 l 2
 149.666666667 504.333333333 151 516.333333333 151 527 c 0
 151 535.666666667 150.333333333 542.333333333 149 547 c 128
 147.666666667 551.666666667 144.666666667 556.666666667 140 562 c 1
 192 624 l 1
 210 609.333333333 219.333333333 588.666666667 220 562 c 0
 220 554.666666667 219 547 217 539 c 0
 210.333333333 507.666666667 192 470 162 426 c 0
 146.666666667 404.666666667 131.666666667 383 117 361 c 1
EndSplineSet
EndChar

StartChar: parenleft
Encoding: 40 40 9
Width: 333
GlyphClass: 1
Flags: HW
LayerCount: 2
Fore
SplineSet
283 -123 m 1
 217.666666667 -94.3333333333 165.333333333 -46.6666666667 126 20 c 128
 86.6666666667 86.6666666667 67 160.333333333 67 241 c 0
 67 321 84 391.666666667 118 453 c 0
 154.666666667 517.666666667 209.666666667 567.666666667 283 603 c 1
 283 587 l 1
 226.333333333 548.333333333 188.333333333 505 169 457 c 0
 160.333333333 433.666666667 153.666666667 403.666666667 149 367 c 128
 144.333333333 330.333333333 142 288.333333333 142 241 c 0
 142 159.666666667 153.666666667 87.5 177 24.5 c 128
 200.333333333 -38.5 235.666666667 -83 283 -109 c 1
 283 -123 l 1
EndSplineSet
EndChar

StartChar: parenright
Encoding: 41 41 10
Width: 333
GlyphClass: 1
Flags: HW
LayerCount: 2
Fore
SplineSet
49 587 m 1
 49 603 l 1
 121.666666667 567.666666667 176.666666667 517.666666667 214 453 c 0
 248 392.333333333 265 321.666666667 265 241 c 0
 265 159.666666667 245.333333333 86.1666666667 206 20.5 c 128
 166.666666667 -45.1666666667 114.333333333 -93 49 -123 c 1
 49 -109 l 1
 95 -83.6666666667 130.666666667 -38 156 28 c 0
 178.666666667 87.3333333333 190 158.333333333 190 241 c 0
 190 335 181 405.666666667 163 453 c 0
 144.333333333 504.333333333 106.333333333 549 49 587 c 1
EndSplineSet
EndChar

StartChar: asterisk
Encoding: 42 42 11
Width: 359
GlyphClass: 1
Flags: HW
LayerCount: 2
Fore
SplineSet
246 345 m 1
 246 333 247.666666667 320.333333333 251 307 c 0
 252.333333333 304.333333333 256.666666667 296.333333333 264 283 c 0
 270 273 272 264.333333333 270 257 c 0
 268 249 263.833333333 242 257.5 236 c 128
 251.166666667 230 244.333333333 227 237 227 c 0
 227.666666667 227 219.5 229.833333333 212.5 235.5 c 128
 205.5 241.166666667 203.333333333 248.333333333 206 257 c 2
 208 268 l 1
 217.333333333 291.333333333 226.333333333 315 235 339 c 1
 237 345 l 1
 232.333333333 342.333333333 227.833333333 339.5 223.5 336.5 c 128
 219.166666667 333.5 215.666666667 330.333333333 213 327 c 0
 201 311 192 299.333333333 186 292 c 0
 175.333333333 278.666666667 165.333333333 272 156 272 c 0
 145.333333333 272 136.666666667 275.5 130 282.5 c 0
 123.333333333 290.166666667 121 298.666666667 123 308 c 0
 124.333333333 316.666666667 127.333333333 323.166666667 132 327.5 c 128
 136.666666667 331.833333333 144 335 154 337 c 0
 171.333333333 339.666666667 185.5 341.833333333 196.5 343.5 c 128
 207.5 345.166666667 219.333333333 348 232 352 c 1
 220 359 l 2
 213.333333333 361.666666667 206.166666667 363.833333333 198.5 365.5 c 128
 190.833333333 367.166666667 183.333333333 368 176 368 c 2
 157 368 l 2
 148.333333333 370 141.333333333 373.333333333 136 378 c 0
 129.333333333 384 126.666666667 391 128 399 c 2
 129 406 l 1
 130 410 l 2
 131.333333333 416 135.5 421.666666667 142.5 427 c 128
 149.5 432.333333333 156.333333333 435 163 435 c 0
 165.666666667 435 168.833333333 434.166666667 172.5 432.5 c 128
 176.166666667 430.833333333 179.333333333 429 182 427 c 0
 199.333333333 405 217 383.333333333 235 362 c 1
 235.666666667 364.666666667 235.333333333 369.333333333 234 376 c 2
 230 401 l 2
 228.666666667 405 224.833333333 412.5 218.5 423.5 c 128
 212.166666667 434.5 209.333333333 442.666666667 210 448 c 1
 212 451 l 1
 213.333333333 459 217.333333333 465.833333333 224 471.5 c 128
 230.666666667 477.166666667 238 480 246 480 c 0
 255.333333333 480 263.333333333 477.333333333 270 472 c 128
 276.666666667 466.666666667 279 459.666666667 277 451 c 2
 274 439 l 2
 270.666666667 431.666666667 266.666666667 422.666666667 262 412 c 0
 252.666666667 391.333333333 247 376 245 366 c 1
 245 362 l 1
 257 370 l 2
 261.666666667 374 272.666666667 387 290 409 c 0
 303.333333333 426.333333333 315.666666667 435 327 435 c 0
 336.333333333 435 344.166666667 431.333333333 350.5 424 c 0
 356.833333333 417.333333333 359 409.333333333 357 400 c 0
 355.666666667 392 353.5 385.833333333 350.5 381.5 c 128
 347.5 377.166666667 342.666666667 374 336 372 c 128
 329.333333333 370 316.166666667 368 296.5 366 c 128
 276.833333333 364 261.333333333 360 250 354 c 1
 256.666666667 351.333333333 263 348.833333333 269 346.5 c 128
 275 344.166666667 280.666666667 342.333333333 286 341 c 2
 312 339 l 2
 324 339 334.5 336.333333333 343.5 331 c 128
 352.5 325.666666667 356 317.666666667 354 307 c 0
 352.666666667 299 348.666666667 291.166666667 342 283.5 c 128
 335.333333333 275.833333333 328 272 320 272 c 0
 310.666666667 272 302.333333333 276.333333333 295 285 c 0
 282.333333333 302.333333333 272.666666667 315.166666667 266 323.5 c 128
 259.333333333 331.833333333 252.666666667 339 246 345 c 1
EndSplineSet
EndChar

StartChar: plus
Encoding: 43 43 12
Width: 514
GlyphClass: 1
Flags: HW
LayerCount: 2
Fore
SplineSet
226 307 m 1
 226 465 l 1
 274 465 l 1
 274 307 l 1
 432 307 l 1
 432 259 l 1
 274 259 l 1
 274 101 l 1
 226 101 l 1
 226 259 l 1
 68 259 l 1
 68 307 l 1
 226 307 l 1
EndSplineSet
EndChar

StartChar: comma
Encoding: 44 44 13
Width: 172
GlyphClass: 1
Flags: HW
LayerCount: 2
Fore
SplineSet
35 -75 m 1
 22 -62 l 1
 49 -12 l 2
 52.3333333333 -5.33333333333 55.6666666667 3 59 13 c 128
 62.3333333333 23 64.8333333333 32.8333333333 66.5 42.5 c 128
 68.1666666667 52.1666666667 69.1666666667 59.3333333333 69.5 64 c 128
 69.8333333333 68.6666666667 70 72.6666666667 70 76 c 0
 70 92.6666666667 66.6666666667 108 60 122 c 1
 114 183 l 1
 120.666666667 175 126.166666667 165 130.5 153 c 128
 134.833333333 141 137 128.666666667 137 116 c 0
 137 112 136.5 107.166666667 135.5 101.5 c 128
 134.5 95.8333333333 134 91.6666666667 134 89 c 0
 131.333333333 71.6666666667 124.666666667 55.6666666667 114 41 c 2
 35 -75 l 1
EndSplineSet
EndChar

StartChar: hyphen
Encoding: 45 45 14
Width: 514
GlyphClass: 1
Flags: HW
LayerCount: 2
Fore
SplineSet
432 307 m 1
 432 259 l 1
 68 259 l 1
 68 307 l 1
 432 307 l 1
EndSplineSet
EndChar

StartChar: period
Encoding: 46 46 15
Width: 564
GlyphClass: 1
Flags: HW
LayerCount: 2
Fore
SplineSet
203 50 m 256
 203 35.3333333333 198 23.3333333333 188 14 c 128
 178 4.66666666667 165.666666667 0 151 -0 c 256
 136.333333333 0 124.333333333 4.83333333333 115 14.5 c 128
 105.666666667 24.1666666667 101 36 101 50 c 256
 101 64.6666666667 105.833333333 77 115.5 87 c 128
 125.166666667 97 137 102 151 102 c 256
 165.666666667 102 178 97 188 87 c 128
 198 77 203 64.6666666667 203 50 c 256
EndSplineSet
EndChar

StartChar: slash
Encoding: 47 47 16
Width: 161
GlyphClass: 1
Flags: HW
LayerCount: 2
Fore
SplineSet
65 39 m 1
 31 39 l 1
 158 425 l 1
 192 425 l 1
 65 39 l 1
EndSplineSet
EndChar

StartChar: zero
Encoding: 48 48 17
Width: 457
GlyphClass: 1
Flags: HW
LayerCount: 2
Fore
SplineSet
397 302 m 0
 397 240 386.333333333 186.333333333 365 141 c 0
 335 78.3333333333 289.666666667 47 229 47 c 256
 168.333333333 47 123 78 93 140 c 0
 70.3333333333 186.666666667 59 240.666666667 59 302 c 256
 59 362.666666667 70 416 92 462 c 0
 122.666666667 525.333333333 168.333333333 557 229 557 c 0
 289 557 334 525.666666667 364 463 c 0
 386 416.333333333 397 362.666666667 397 302 c 0
319 302 m 0
 319 356.666666667 315.333333333 401 308 435 c 0
 294 499.666666667 267.666666667 532 229 532 c 0
 198.333333333 532 175.333333333 512.666666667 160 474 c 128
 144.666666667 435.333333333 137 378 137 302 c 0
 137 244 140.666666667 198.666666667 148 166 c 0
 162.666666667 103.333333333 189.666666667 72 229 72 c 0
 259 72 281.5 91.1666666667 296.5 129.5 c 128
 311.5 167.833333333 319 225.333333333 319 302 c 0
EndSplineSet
EndChar

StartChar: one
Encoding: 49 49 18
Width: 457
GlyphClass: 1
Flags: HW
LayerCount: 2
Fore
SplineSet
338 58 m 1
 129 58 l 1
 129 77 l 1
 155 77 172.333333333 79.3333333333 181 84 c 0
 193 90.6666666667 198.666666667 106 198 130 c 2
 198 462 l 2
 198 471.333333333 197 478.666666667 195 484 c 128
 193 489.333333333 187 492 177 492 c 0
 171.666666667 492 167.666666667 491.333333333 165 490 c 0
 153 484.666666667 139.333333333 479.333333333 124 474 c 1
 124 493 l 1
 124 492.333333333 168.666666667 514 258 558 c 1
 269 557 l 1
 269 115 l 2
 269 99.6666666667 273.5 89.5 282.5 84.5 c 128
 291.5 79.5 310 77 338 77 c 1
 338 58 l 1
EndSplineSet
EndChar

StartChar: two
Encoding: 50 50 19
Width: 457
GlyphClass: 1
Flags: HW
LayerCount: 2
Fore
SplineSet
397 164 m 1
 356 58 l 1
 64 58 l 1
 65 72 l 1
 195 210 l 2
 257 277.333333333 288 340 288 398 c 0
 288 423.333333333 282 444.333333333 270 461 c 0
 252.666666667 485 225.666666667 497 189 497 c 0
 160.333333333 496.333333333 137.333333333 486 120 466 c 0
 109.333333333 452.666666667 98 431.333333333 86 402 c 1
 65 408 l 1
 75 461.333333333 96 500.666666667 128 526 c 0
 154 547.333333333 185.666666667 558 223 558 c 0
 258.333333333 558 289.333333333 546.333333333 316 523 c 0
 344 497.666666667 358.333333333 464.666666667 359 424 c 0
 358.333333333 389.333333333 346.666666667 353.666666667 324 317 c 0
 312 298.333333333 292.333333333 274 265 244 c 2
 148 120 l 1
 314 120 l 2
 328.666666667 120 339.666666667 122.333333333 347 127 c 0
 356.333333333 133.666666667 368.333333333 148 383 170 c 1
 397 164 l 1
EndSplineSet
EndChar

StartChar: three
Encoding: 51 51 20
Width: 457
GlyphClass: 1
Flags: HW
LayerCount: 2
Fore
SplineSet
363 219 m 0
 363 167 343.5 125.333333333 304.5 94 c 128
 265.5 62.6666666667 216 47 156 47 c 0
 129.333333333 47 108.5 51 93.5 59 c 128
 78.5 67 71 78 71 92 c 0
 71 102.666666667 74.3333333333 110.333333333 81 115 c 128
 87.6666666667 119.666666667 95 122 103 122 c 256
 111 122 131.333333333 112.333333333 164 93 c 0
 179.333333333 83.6666666667 193.666666667 79.3333333333 207 80 c 0
 237.666666667 80 261.666666667 91.3333333333 279 114 c 0
 293.666666667 134 301.333333333 159 302 189 c 0
 302 198.333333333 300.333333333 208.666666667 297 220 c 0
 288.333333333 249.333333333 272 269.333333333 248 280 c 0
 236 287.333333333 223.333333333 292.333333333 210 295 c 128
 196.666666667 297.666666667 177.333333333 299 152 299 c 1
 151 314 l 1
 188.333333333 326 217 341 237 359 c 0
 260.333333333 379.666666667 272 405 272 435 c 0
 272 455 266 471.333333333 254 484 c 0
 240 499.333333333 220.333333333 507.333333333 195 508 c 0
 167.666666667 508 144 498 124 478 c 0
 112 466 100.666666667 449.333333333 90 428 c 1
 71 433 l 1
 86.3333333333 479 109 512.333333333 139 533 c 0
 162.333333333 549 189 557 219 557 c 0
 262.333333333 557 294.333333333 544.333333333 315 519 c 0
 329.666666667 501 337.333333333 479.666666667 338 455 c 0
 338 436.333333333 333 419 323 403 c 128
 313 387 296.333333333 371 273 355 c 1
 299 343 318.666666667 329 332 313 c 0
 352.666666667 289 363 257.666666667 363 219 c 0
EndSplineSet
EndChar

StartChar: four
Encoding: 52 52 21
Width: 457
GlyphClass: 1
Flags: HW
LayerCount: 2
Fore
SplineSet
394 180 m 1
 318 180 l 1
 318 58 l 1
 256 58 l 1
 256 180 l 1
 50 180 l 1
 51 232 l 1
 281 558 l 1
 318 558 l 1
 318 234 l 1
 394 234 l 1
 394 180 l 1
255 234 m 1
 255 467 l 1
 252 467 l 1
 89 234 l 1
 255 234 l 1
EndSplineSet
EndChar

StartChar: five
Encoding: 53 53 22
Width: 457
GlyphClass: 1
Flags: HW
LayerCount: 2
Fore
SplineSet
367 561 m 1
 338 494 l 2
 337.333333333 491.333333333 335.666666667 489 333 487 c 128
 330.333333333 485 325.666666667 484 319 484 c 2
 177 484 l 1
 151 429 l 1
 192.333333333 421 222.333333333 413.333333333 241 406 c 0
 272.333333333 394 297.333333333 376.333333333 316 353 c 0
 333.333333333 333 344.833333333 314.833333333 350.5 298.5 c 128
 356.166666667 282.166666667 359 258 359 226 c 0
 359 176.666666667 340.166666667 134.666666667 302.5 100 c 128
 264.833333333 65.3333333333 216.666666667 48 158 48 c 0
 128.666666667 48 105.333333333 52.6666666667 88 62 c 128
 70.6666666667 71.3333333333 62 82.6666666667 62 96 c 0
 62 104 63.3333333333 110.333333333 66 115 c 0
 71.3333333333 124.333333333 81.3333333333 128.666666667 96 128 c 0
 110 128 132 118 162 98 c 0
 176.666666667 88.6666666667 190 84 202 84 c 0
 227.333333333 84 249.333333333 94 268 114 c 0
 288.666666667 136.666666667 299 168 299 208 c 0
 299 259.333333333 274.666666667 298.666666667 226 326 c 0
 187.333333333 348 144 359 96 359 c 0
 89.3333333333 359 86 362 86 368 c 0
 86.6666666667 370.666666667 87.3333333333 372.333333333 88 373 c 2
 169 549 l 1
 324 549 l 2
 335.333333333 549 345.666666667 556.333333333 355 571 c 1
 367 561 l 1
EndSplineSet
EndChar

StartChar: six
Encoding: 54 54 23
Width: 457
GlyphClass: 1
Flags: HW
LayerCount: 2
Fore
SplineSet
392 220 m 0
 392 180 382 144.666666667 362 114 c 0
 334 70 290.666666667 48 232 48 c 0
 185.333333333 48 147 66 117 102 c 0
 84.3333333333 142.666666667 68 200 68 274 c 0
 68 352 96 419.333333333 152 476 c 0
 212 535.333333333 286.666666667 564.666666667 376 564 c 1
 378 547 l 1
 318.666666667 537.666666667 269.666666667 513.333333333 231 474 c 0
 195.666666667 439.333333333 173 397.333333333 163 348 c 1
 183 360 198.666666667 367.833333333 210 371.5 c 128
 221.333333333 375.166666667 235.666666667 377 253 377 c 0
 293.666666667 377 327 363.166666667 353 335.5 c 128
 379 307.833333333 392 269.333333333 392 220 c 0
318 192 m 0
 318 234.666666667 311.666666667 268 299 292 c 0
 283 322 257.666666667 337 223 337 c 0
 209.666666667 337 197.333333333 335.333333333 186 332 c 0
 175.333333333 328.666666667 165.333333333 323 156 315 c 0
 152 311 148.833333333 303.666666667 146.5 293 c 128
 144.166666667 282.333333333 143 267.333333333 143 248 c 0
 143 190.666666667 153 146.666666667 173 116 c 0
 191 88 214.666666667 74.3333333333 244 75 c 0
 266.666666667 75 284.666666667 84.8333333333 298 104.5 c 128
 311.333333333 124.166666667 318 153.333333333 318 192 c 0
EndSplineSet
EndChar

StartChar: seven
Encoding: 55 55 24
Width: 457
GlyphClass: 1
Flags: HW
LayerCount: 2
Fore
SplineSet
375 533 m 1
 219 50 l 1
 164 50 l 1
 309 486 l 1
 155 486 l 2
 134.333333333 486 117.666666667 481 105 471 c 0
 97.6666666667 464.333333333 86.3333333333 449 71 425 c 1
 53 435 l 1
 53 434.333333333 64 460 86 512 c 1
 99 547 l 1
 375 547 l 1
 375 533 l 1
EndSplineSet
EndChar

StartChar: eight
Encoding: 56 56 25
Width: 457
GlyphClass: 1
Flags: HW
LayerCount: 2
Fore
SplineSet
374 170 m 0
 374 141.333333333 364.666666667 116 346 94 c 0
 320 62.6666666667 279.666666667 47 225 47 c 0
 181 47 145.666666667 59.6666666667 119 85 c 0
 95 107.666666667 83 135 83 167 c 0
 83 201 94.6666666667 229.666666667 118 253 c 0
 128 263 147.333333333 279.666666667 176 303 c 1
 141.333333333 333 118.666666667 355.333333333 108 370 c 0
 93.3333333333 390 86 413.333333333 86 440 c 0
 86 476 101.666666667 505.333333333 133 528 c 0
 161 548 192.666666667 557.666666667 228 557 c 0
 269.333333333 557 301.333333333 546.833333333 324 526.5 c 128
 346.666666667 506.166666667 358 481 358 451 c 0
 358 429 352.333333333 409.333333333 341 392 c 0
 327.666666667 372 302.666666667 351.666666667 266 331 c 1
 310 298.333333333 339.333333333 269 354 243 c 0
 367.333333333 221.666666667 374 197.333333333 374 170 c 0
301 453 m 0
 300.333333333 474.333333333 294 492 282 506 c 0
 267.333333333 522 247.333333333 530 222 530 c 0
 198 530 179.833333333 523 167.5 509 c 128
 155.166666667 495 149 478.666666667 149 460 c 0
 149 436.666666667 159.666666667 414 181 392 c 0
 193 379.333333333 211.333333333 364.666666667 236 348 c 1
 256 362.666666667 270.333333333 375.333333333 279 386 c 0
 293.666666667 404.666666667 301 427 301 453 c 0
312 153 m 0
 312 181 299 206.666666667 273 230 c 0
 263.666666667 238.666666667 240 256.666666667 202 284 c 1
 186 270.666666667 173.666666667 257.666666667 165 245 c 0
 152.333333333 225 146 201.666666667 146 175 c 0
 146 146.333333333 154 122.333333333 170 103 c 128
 186 83.6666666667 207.666666667 74 235 74 c 0
 257 74 275.333333333 81 290 95 c 128
 304.666666667 109 312 128.333333333 312 153 c 0
EndSplineSet
EndChar

StartChar: nine
Encoding: 57 57 26
Width: 457
GlyphClass: 1
Flags: HW
LayerCount: 2
Fore
SplineSet
383 349 m 0
 383 265 357.333333333 193.666666667 306 135 c 0
 250 70.3333333333 176.333333333 38 85 38 c 1
 82 62 l 1
 140.666666667 72.6666666667 189.833333333 98 229.5 138 c 128
 269.166666667 178 293 219.666666667 301 263 c 1
 271 240.333333333 236.666666667 229.333333333 198 230 c 0
 152 230 117 246.666666667 93 280 c 0
 73 307.333333333 63 339.666666667 63 377 c 0
 63 429 77.1666666667 471.833333333 105.5 505.5 c 128
 133.833333333 539.166666667 172 556 220 556 c 0
 266.666666667 556 305.5 536.833333333 336.5 498.5 c 128
 367.5 460.166666667 383 410.333333333 383 349 c 0
305 319 m 2
 305 347 l 2
 305 407 297.166666667 452.333333333 281.5 483 c 128
 265.833333333 513.666666667 242.666666667 529 212 529 c 0
 185.333333333 529 165.666666667 515.666666667 153 489 c 0
 143 467.666666667 137.666666667 439.666666667 137 405 c 0
 137 357.666666667 146.333333333 321.666666667 165 297 c 0
 180.333333333 277 201.333333333 267 228 267 c 0
 238 267 249.666666667 269.666666667 263 275 c 128
 276.333333333 280.333333333 287.333333333 286 296 292 c 0
 302 298 305 307 305 319 c 2
EndSplineSet
EndChar

StartChar: colon
Encoding: 58 58 27
Width: 228
GlyphClass: 1
Flags: HW
LayerCount: 2
Fore
SplineSet
139 39 m 1
 139.666666667 39 126 56.3333333333 98 91 c 1
 143 143 l 1
 143.666666667 143 158 125.666666667 186 91 c 1
 139 39 l 1
150 315 m 1
 108 368 l 1
 153 419 l 1
 153.666666667 419 168.666666667 402 198 368 c 1
 150 315 l 1
EndSplineSet
EndChar

StartChar: semicolon
Encoding: 59 59 28
Width: 204
GlyphClass: 1
Flags: HW
LayerCount: 2
Fore
SplineSet
144 301 m 1
 102 352 l 1
 146 406 l 1
 190 354 l 1
 144 301 l 1
73 -50 m 1
 61 -37 l 1
 87 12 l 2
 97 30.6666666667 103.333333333 46.6666666667 106 60 c 128
 108.666666667 73.3333333333 110 86 110 98 c 0
 110 116.666666667 106 133 98 147 c 1
 152 208 l 1
 166.666666667 186.666666667 174.333333333 163.333333333 175 138 c 0
 175 128.666666667 174 120.5 172 113.5 c 128
 170 106.5 167.166666667 98.5 163.5 89.5 c 128
 159.833333333 80.5 156 72.6666666667 152 66 c 2
 73 -50 l 1
EndSplineSet
EndChar

StartChar: less
Encoding: 60 60 29
Width: 371
GlyphClass: 1
Flags: HW
LayerCount: 2
Fore
SplineSet
320 115 m 1
 97 226 l 1
 99 268 l 1
 330 378 l 1
 328 336 l 1
 143 247 l 1
 143 246.333333333 202.666666667 216 322 156 c 1
 320 115 l 1
EndSplineSet
EndChar

StartChar: equal
Encoding: 61 61 30
Width: 403
GlyphClass: 1
Flags: HW
LayerCount: 2
Fore
SplineSet
367 185 m 1
 107 185 l 1
 109 226 l 1
 369 226 l 1
 367 185 l 1
370 268 m 1
 111 268 l 1
 113 309 l 1
 371 309 l 1
 370 268 l 1
EndSplineSet
EndChar

StartChar: greater
Encoding: 62 62 31
Width: 371
GlyphClass: 1
Flags: HW
LayerCount: 2
Fore
SplineSet
115 115 m 1
 115 114.333333333 115.666666667 128 117 156 c 1
 305 247 l 1
 305 246.333333333 244.666666667 276 124 336 c 1
 126 378 l 1
 350 268 l 1
 348 226 l 1
 115 115 l 1
EndSplineSet
EndChar

StartChar: question
Encoding: 63 63 32
Width: 293
GlyphClass: 1
Flags: HW
LayerCount: 2
Fore
SplineSet
139 175 m 1
 137 189 135.833333333 199.166666667 135.5 205.5 c 0
 135.166666667 211.166666667 135 216 135 220 c 0
 135 232 136.333333333 243.166666667 139 253.5 c 0
 141.666666667 263.166666667 145.333333333 273.333333333 150 284 c 2
 163 312 l 1
 166 324 l 2
 166.666666667 326.666666667 167 330 167 334 c 0
 167 348 161.666666667 359.666666667 151 369 c 128
 140.333333333 378.333333333 127.666666667 383 113 383 c 0
 103.666666667 383 94.1666666667 380.5 84.5 375.5 c 128
 74.8333333333 370.5 65.6666666667 363.333333333 57 354 c 1
 73 432 l 1
 97.6666666667 446.666666667 124.666666667 454 154 454 c 0
 178 454 198.5 446.666666667 215.5 432 c 128
 232.5 417.333333333 241 399 241 377 c 0
 241 373.666666667 240.333333333 368.333333333 239 361 c 128
 237.666666667 353.666666667 235.333333333 346.166666667 232 338.5 c 128
 228.666666667 330.833333333 224.333333333 323.666666667 219 317 c 2
 199 291 l 2
 195 286.333333333 191.833333333 281.666666667 189.5 277 c 128
 187.166666667 272.333333333 185.5 267.833333333 184.5 263.5 c 128
 183.5 259.166666667 183 254.333333333 183 249 c 0
 183 243 183.166666667 238 183.5 234 c 128
 183.833333333 230 185.666666667 222.333333333 189 211 c 1
 139 175 l 1
139 39 m 1
 98 90 l 1
 143 143 l 1
 185 90 l 1
 139 39 l 1
EndSplineSet
EndChar

StartChar: at
Encoding: 64 64 33
Width: 832
GlyphClass: 1
Flags: HW
LayerCount: 2
Fore
SplineSet
230 732 m 256
 244 732 255.833333333 727.166666667 265.5 717.5 c 0
 275.166666667 708.5 280 696.666666667 280 682 c 0
 280 668.666666667 275.166666667 657.166666667 265.5 647.5 c 128
 255.833333333 637.833333333 244 633 230 633 c 0
 216.666666667 633 205 637.833333333 195 647.5 c 128
 185 657.166666667 180 668.666666667 180 682 c 0
 180 696 184.833333333 707.833333333 194.5 717.5 c 128
 204.166666667 727.166666667 216 732 230 732 c 256
376 732 m 256
 390 732 401.833333333 727.166666667 411.5 717.5 c 0
 421.166666667 708.5 426 696.666666667 426 682 c 0
 426 668.666666667 421.166666667 657.166666667 411.5 647.5 c 128
 401.833333333 637.833333333 390 633 376 633 c 0
 362.666666667 633 351 637.833333333 341 647.5 c 128
 331 657.166666667 326 668.666666667 326 682 c 0
 326 696 330.833333333 707.833333333 340.5 717.5 c 128
 350.166666667 727.166666667 362 732 376 732 c 256
695 84 m 1
 571 84 l 1
 379 474 l 1
 232 474 l 1
 233 84 l 1
 123 84 l 1
 123 546 l 1
 372 546 l 1
 704 755 l 1
 764 689 l 1
 494 501 l 1
 695 84 l 1
EndSplineSet
EndChar

StartChar: A
Encoding: 65 65 34
Width: 800
GlyphClass: 1
Flags: HW
LayerCount: 2
Fore
SplineSet
334 729 m 256
 348 729 359.666666667 724.166666667 369 714.5 c 128
 378.333333333 704.833333333 383 693 383 679 c 0
 383 665.666666667 378.166666667 654.166666667 368.5 644.5 c 128
 358.833333333 634.833333333 347.333333333 630 334 630 c 256
 320.666666667 630 308.833333333 634.833333333 298.5 644.5 c 128
 288.166666667 654.166666667 283 665.666666667 283 679 c 0
 283 693 288 704.833333333 298 714.5 c 128
 308 724.166666667 320 729 334 729 c 256
479 729 m 256
 493 729 504.833333333 724.166666667 514.5 714.5 c 128
 524.166666667 704.833333333 529 693 529 679 c 0
 529 665.666666667 524.166666667 654.166666667 514.5 644.5 c 128
 504.833333333 634.833333333 493 630 479 630 c 0
 465.666666667 630 454 634.833333333 444 644.5 c 128
 434 654.166666667 429 665.666666667 429 679 c 0
 429 693 433.833333333 704.833333333 443.5 714.5 c 128
 453.166666667 724.166666667 465 729 479 729 c 256
689 81 m 1
 112 81 l 1
 112 121 l 1
 582 121 l 1
 582 507 l 1
 270 507 l 1
 270 390 l 1
 112 390 l 1
 112 543 l 1
 689 543 l 1
 689 81 l 1
EndSplineSet
EndChar

StartChar: B
Encoding: 66 66 35
Width: 760
GlyphClass: 1
Flags: HW
LayerCount: 2
Fore
SplineSet
457 435 m 256
 471 435 482.833333333 430.166666667 492.5 420.5 c 128
 502.166666667 410.833333333 507 398.666666667 507 384 c 0
 507 370.666666667 502.166666667 359.333333333 492.5 350 c 128
 482.833333333 340.666666667 471 336 457 336 c 0
 443.666666667 336 432 340.666666667 422 350 c 128
 412 359.333333333 407 370.666666667 407 384 c 0
 407 398 411.833333333 410 421.5 420 c 128
 431.166666667 430 443 435 457 435 c 256
603 435 m 256
 617 435 628.666666667 430.166666667 638 420.5 c 128
 647.333333333 410.833333333 652 398.666666667 652 384 c 0
 652 370.666666667 647.333333333 359.333333333 638 350 c 128
 628.666666667 340.666666667 617 336 603 336 c 0
 589.666666667 336 577.833333333 340.666666667 567.5 350 c 128
 557.166666667 359.333333333 552 370.666666667 552 384 c 0
 552 398 557 410 567 420 c 128
 577 430 589 435 603 435 c 256
324 83 m 1
 324 83.6666666667 283 213.333333333 201 472 c 2
 196.333333333 480.666666667 182.666666667 495.333333333 160 516 c 0
 152.666666667 522.666666667 141 533 125 547 c 1
 126 547 126 547 292 547 c 1
 402 83 l 1
 496 43 l 1
 504 36.3333333333 542.666666667 19.6666666667 612 -7 c 0
 678 -32.3333333333 717.166666667 -46.3333333333 729.5 -49 c 128
 741.833333333 -51.6666666667 755 -54.6666666667 769 -58 c 1
 783 -63.3333333333 790 -73.6666666667 790 -89 c 0
 790 -109 779.333333333 -119.333333333 758 -120 c 0
 708.666666667 -120 646.666666667 -103.333333333 572 -70 c 128
 497.333333333 -36.6666666667 441 1 403 43 c 1
 265 43 l 1
 265 83 l 1
 324 83 l 1
EndSplineSet
EndChar

StartChar: C
Encoding: 67 67 36
Width: 864
GlyphClass: 1
Flags: HW
LayerCount: 2
Fore
SplineSet
655 80 m 1
 655 506 l 1
 431 506 l 1
 431 390 l 1
 273 390 l 1
 273 542 l 1
 762 542 l 1
 762 80 l 1
 655 80 l 1
477 729 m 256
 491 729 502.833333333 724.166666667 512.5 714.5 c 128
 522.166666667 704.833333333 527 692.666666667 527 678 c 0
 527 664.666666667 522.166666667 653.333333333 512.5 644 c 128
 502.833333333 634.666666667 491 630 477 630 c 0
 463.666666667 630 452 634.666666667 442 644 c 128
 432 653.333333333 427 664.666666667 427 678 c 0
 427 692 431.833333333 704 441.5 714 c 128
 451.166666667 724 463 729 477 729 c 256
623 729 m 256
 637 729 648.666666667 724.166666667 658 714.5 c 128
 667.333333333 704.833333333 672 692.666666667 672 678 c 0
 672 664.666666667 667.333333333 653.333333333 658 644 c 128
 648.666666667 634.666666667 637 630 623 630 c 0
 609.666666667 630 597.833333333 634.666666667 587.5 644 c 128
 577.166666667 653.333333333 572 664.666666667 572 678 c 0
 572 692 577 704 587 714 c 128
 597 724 609 729 623 729 c 256
EndSplineSet
EndChar

StartChar: D
Encoding: 68 68 37
Width: 900
GlyphClass: 1
Flags: HW
LayerCount: 2
Fore
SplineSet
383 729 m 256
 397 729 408.666666667 724.166666667 418 714.5 c 128
 427.333333333 704.833333333 432 693 432 679 c 0
 432 665.666666667 427.333333333 654.166666667 418 644.5 c 128
 408.666666667 634.833333333 397 630 383 630 c 0
 369.666666667 630 357.833333333 634.833333333 347.5 644.5 c 128
 337.166666667 654.166666667 332 665.666666667 332 679 c 0
 332 693 337 704.833333333 347 714.5 c 128
 357 724.166666667 369 729 383 729 c 256
528 729 m 256
 542 729 553.833333333 724.166666667 563.5 714.5 c 128
 573.166666667 704.833333333 578 693 578 679 c 0
 578 665.666666667 573.166666667 654.166666667 563.5 644.5 c 128
 553.833333333 634.833333333 542 630 528 630 c 0
 514.666666667 630 503 634.833333333 493 644.5 c 128
 483 654.166666667 478 665.666666667 478 679 c 0
 478 693 482.833333333 704.833333333 492.5 714.5 c 128
 502.166666667 724.166666667 514 729 528 729 c 256
124 81 m 1
 124 543 l 1
 768 543 l 1
 768 81 l 1
 657 81 l 1
 657 500 l 1
 505 500 l 1
 505 81 l 1
 393 81 l 1
 393 500 l 1
 238 500 l 1
 238 81 l 1
 124 81 l 1
EndSplineSet
EndChar

StartChar: E
Encoding: 69 69 38
Width: 644
GlyphClass: 1
Flags: HW
LayerCount: 2
Fore
SplineSet
546 315 m 0
 546 248.333333333 525.333333333 192.666666667 484 148 c 128
 442.666666667 103.333333333 390.666666667 81 328 81 c 0
 262.666666667 81 207.666666667 102.333333333 163 145 c 0
 117 189 94 244.666666667 94 312 c 0
 94 380.666666667 120.666666667 438.666666667 174 486 c 0
 220 527.333333333 267.666666667 547.666666667 317 547 c 0
 372.333333333 547 422.333333333 528.333333333 467 491 c 0
 519.666666667 447 546 388.333333333 546 315 c 0
416 317 m 0
 416 366.333333333 408.666666667 409 394 445 c 0
 375.333333333 489 350 511 318 511 c 0
 291.333333333 511 270.666666667 489 256 445 c 0
 243.333333333 408.333333333 237 365.666666667 237 317 c 256
 237 268.333333333 244 226.333333333 258 191 c 0
 275.333333333 147.666666667 299 126.333333333 329 127 c 0
 362.333333333 127 386.333333333 148.333333333 401 191 c 0
 411 221 416 263 416 317 c 0
243 729 m 256
 257 729 268.833333333 724.166666667 278.5 714.5 c 128
 288.166666667 704.833333333 293 693 293 679 c 0
 293 665.666666667 288.166666667 654.166666667 278.5 644.5 c 128
 268.833333333 634.833333333 257 630 243 630 c 0
 229.666666667 630 218 634.833333333 208 644.5 c 128
 198 654.166666667 193 665.666666667 193 679 c 0
 193 693 197.833333333 704.833333333 207.5 714.5 c 128
 217.166666667 724.166666667 229 729 243 729 c 256
389 729 m 256
 403 729 414.666666667 724.166666667 424 714.5 c 128
 433.333333333 704.833333333 438 693 438 679 c 0
 438 665.666666667 433.333333333 654.166666667 424 644.5 c 128
 414.666666667 634.833333333 403 630 389 630 c 0
 375.666666667 630 363.833333333 634.833333333 353.5 644.5 c 128
 343.166666667 654.166666667 338 665.666666667 338 679 c 0
 338 693 343 704.833333333 353 714.5 c 128
 363 724.166666667 375 729 389 729 c 256
EndSplineSet
EndChar

StartChar: F
Encoding: 70 70 39
Width: 402
GlyphClass: 1
Flags: HW
LayerCount: 2
Fore
SplineSet
352 81 m 1
 232 81 l 1
 232 543 l 1
 352 543 l 1
 352 81 l 1
222 729 m 256
 236 729 247.833333333 724.166666667 257.5 714.5 c 128
 267.166666667 704.833333333 272 693 272 679 c 0
 272 665.666666667 267.166666667 654.166666667 257.5 644.5 c 128
 247.833333333 634.833333333 236 630 222 630 c 0
 208.666666667 630 197 634.833333333 187 644.5 c 128
 177 654.166666667 172 665.666666667 172 679 c 0
 172 693 176.833333333 704.833333333 186.5 714.5 c 128
 196.166666667 724.166666667 208 729 222 729 c 256
368 729 m 256
 382 729 393.666666667 724.166666667 403 714.5 c 128
 412.333333333 704.833333333 417 693 417 679 c 0
 417 665.666666667 412.166666667 654.166666667 402.5 644.5 c 128
 392.833333333 634.833333333 381.333333333 630 368 630 c 256
 354.666666667 630 342.833333333 634.833333333 332.5 644.5 c 128
 322.166666667 654.166666667 317 665.666666667 317 679 c 0
 317 693 322 704.833333333 332 714.5 c 128
 342 724.166666667 354 729 368 729 c 256
EndSplineSet
EndChar

StartChar: G
Encoding: 71 71 40
Width: 552
GlyphClass: 1
Flags: HW
LayerCount: 2
Fore
SplineSet
89 81 m 1
 89 543 l 1
 219 543 l 1
 382 187 l 1
 387 187 l 1
 387 543 l 1
 463 543 l 1
 463 81 l 1
 349 81 l 1
 177 447 l 1
 170 447 l 1
 170 81 l 1
 89 81 l 1
202 729 m 256
 216 729 227.833333333 724.166666667 237.5 714.5 c 128
 247.166666667 704.833333333 252 693 252 679 c 0
 252 665.666666667 247.166666667 654.166666667 237.5 644.5 c 128
 227.833333333 634.833333333 216 630 202 630 c 0
 188.666666667 630 177 634.833333333 167 644.5 c 128
 157 654.166666667 152 665.666666667 152 679 c 0
 152 693 156.833333333 704.833333333 166.5 714.5 c 128
 176.166666667 724.166666667 188 729 202 729 c 256
348 729 m 256
 362 729 373.833333333 724.166666667 383.5 714.5 c 128
 393.166666667 704.833333333 398 693 398 679 c 0
 398 665.666666667 393.166666667 654.166666667 383.5 644.5 c 128
 373.833333333 634.833333333 362 630 348 630 c 0
 334.666666667 630 323 634.833333333 313 644.5 c 128
 303 654.166666667 298 665.666666667 298 679 c 0
 298 693 302.833333333 704.833333333 312.5 714.5 c 128
 322.166666667 724.166666667 334 729 348 729 c 256
EndSplineSet
EndChar

StartChar: H
Encoding: 72 72 41
Width: 908
GlyphClass: 1
Flags: HW
LayerCount: 2
Fore
SplineSet
455 455 m 256
 469 455 480.833333333 450.166666667 490.5 440.5 c 128
 500.166666667 430.833333333 505 419 505 405 c 0
 505 391.666666667 500.166666667 380.166666667 490.5 370.5 c 128
 480.833333333 360.833333333 469 356 455 356 c 0
 441.666666667 356 430 360.833333333 420 370.5 c 128
 410 380.166666667 405 391.666666667 405 405 c 0
 405 419 409.833333333 430.833333333 419.5 440.5 c 128
 429.166666667 450.166666667 441 455 455 455 c 256
601 455 m 256
 615 455 626.666666667 450.166666667 636 440.5 c 128
 645.333333333 430.833333333 650 419 650 405 c 0
 650 391.666666667 645.166666667 380.166666667 635.5 370.5 c 128
 625.833333333 360.833333333 614.333333333 356 601 356 c 128
 587.666666667 356 575.833333333 360.833333333 565.5 370.5 c 128
 555.166666667 380.166666667 550 391.666666667 550 405 c 0
 550 419 555 430.833333333 565 440.5 c 128
 575 450.166666667 587 455 601 455 c 256
791 87 m 1
 529 -162 l 1
 343 -161 l 1
 267 47 l 1
 205 47 l 1
 205 87 l 1
 253 87 l 1
 168 347 l 1
 152 402.333333333 141 438.666666667 135 456 c 0
 121.666666667 494.666666667 107 526.666666667 91 552 c 0
 71.6666666667 582 49 605.333333333 23 622 c 1
 23 635 l 1
 223 635 l 1
 376 87 l 1
 791 87 l 1
640 47 m 1
 389 47 l 1
 389 46.3333333333 407 -11.3333333333 443 -126 c 1
 449 -122.666666667 469.333333333 -105.666666667 504 -75 c 0
 536 -47 565.666666667 -20.3333333333 593 5 c 0
 609 19 624.666666667 33 640 47 c 1
EndSplineSet
EndChar

StartChar: I
Encoding: 73 73 42
Width: 520
GlyphClass: 1
Flags: HW
LayerCount: 2
Fore
SplineSet
122 729 m 256
 136 729 147.833333333 724.166666667 157.5 714.5 c 128
 167.166666667 704.833333333 172 693 172 679 c 0
 172 665.666666667 167.166666667 654.166666667 157.5 644.5 c 128
 147.833333333 634.833333333 136 630 122 630 c 0
 108.666666667 630 97 634.833333333 87 644.5 c 128
 77 654.166666667 72 665.666666667 72 679 c 0
 72 693 76.8333333333 704.833333333 86.5 714.5 c 128
 96.1666666667 724.166666667 108 729 122 729 c 256
268 729 m 256
 282 729 293.833333333 724.166666667 303.5 714.5 c 128
 313.166666667 704.833333333 318 693 318 679 c 0
 318 665.666666667 313.166666667 654.166666667 303.5 644.5 c 128
 293.833333333 634.833333333 282 630 268 630 c 0
 254.666666667 630 243 634.833333333 233 644.5 c 128
 223 654.166666667 218 665.666666667 218 679 c 0
 218 693 222.833333333 704.833333333 232.5 714.5 c 128
 242.166666667 724.166666667 254 729 268 729 c 256
110 121 m 1
 160 483 l 1
 234 483 l 1
 394 121 l 1
 458 121 l 1
 458 81 l 1
 69 81 l 1
 69 121 l 1
 110 121 l 1
EndSplineSet
EndChar

StartChar: K
Encoding: 75 75 43
Width: 534
GlyphClass: 1
Flags: HW
LayerCount: 2
Fore
SplineSet
217 729 m 256
 231 729 242.666666667 724.166666667 252 714.5 c 128
 261.333333333 704.833333333 266 693 266 679 c 0
 266 665.666666667 261.333333333 654.166666667 252 644.5 c 128
 242.666666667 634.833333333 231 630 217 630 c 0
 203.666666667 630 191.833333333 634.833333333 181.5 644.5 c 128
 171.166666667 654.166666667 166 665.666666667 166 679 c 0
 166 693 171 704.833333333 181 714.5 c 128
 191 724.166666667 203 729 217 729 c 256
362 729 m 256
 376 729 387.833333333 724.166666667 397.5 714.5 c 128
 407.166666667 704.833333333 412 693 412 679 c 0
 412 665.666666667 407.166666667 654.166666667 397.5 644.5 c 0
 387.166666667 634.833333333 375.333333333 630 362 630 c 128
 348.666666667 630 337 634.833333333 327 644.5 c 128
 317 654.166666667 312 665.666666667 312 679 c 0
 312 693 316.833333333 704.833333333 326.5 714.5 c 128
 336.166666667 724.166666667 348 729 362 729 c 256
437 81 m 1
 76 81 l 1
 76 121 l 1
 333 121 l 1
 334 392 l 2
 334 405.333333333 330.666666667 416.5 324 425.5 c 128
 317.333333333 434.5 308.333333333 439 297 439 c 128
 285.666666667 439 274 434 262 424 c 0
 245.333333333 410 225.333333333 385.666666667 202 351 c 1
 86 351 l 1
 82 356 l 1
 90.6666666667 368 98.6666666667 378.666666667 106 388 c 0
 124.666666667 411.333333333 150 440.333333333 182 475 c 0
 197.333333333 491.666666667 213.666666667 506 231 518 c 0
 256.333333333 535.333333333 278.666666667 544 298 544 c 0
 339.333333333 544 372.833333333 530.333333333 398.5 503 c 128
 424.166666667 475.666666667 437 441 437 399 c 2
 437 81 l 1
EndSplineSet
EndChar

StartChar: L
Encoding: 76 76 44
Width: 628
GlyphClass: 1
Flags: HW
LayerCount: 2
Fore
SplineSet
539 75 m 1
 107 75 l 1
 107 115 l 1
 419 115 l 1
 420 120 l 1
 186 593 l 2
 178 607 165 621 147 635 c 0
 139.666666667 641.666666667 126.333333333 651 107 663 c 1
 301 663 l 1
 539 84 l 1
 539 75 l 1
403 675 m 256
 417 675 428.833333333 670.166666667 438.5 660.5 c 128
 448.166666667 650.833333333 453 639 453 625 c 0
 453 611.666666667 448.166666667 600.166666667 438.5 590.5 c 128
 428.833333333 580.833333333 417 576 403 576 c 0
 389.666666667 576 378 580.833333333 368 590.5 c 128
 358 600.166666667 353 611.666666667 353 625 c 0
 353 639 357.833333333 650.833333333 367.5 660.5 c 128
 377.166666667 670.166666667 389 675 403 675 c 256
541 675 m 256
 555 675 566.833333333 670.166666667 576.5 660.5 c 128
 586.166666667 650.833333333 591 639 591 625 c 0
 591 611.666666667 586.166666667 600.166666667 576.5 590.5 c 128
 566.833333333 580.833333333 555 576 541 576 c 0
 527.666666667 576 516 580.833333333 506 590.5 c 128
 496 600.166666667 491 611.666666667 491 625 c 0
 491 639 495.833333333 650.833333333 505.5 660.5 c 128
 515.166666667 670.166666667 527 675 541 675 c 256
EndSplineSet
EndChar

StartChar: N
Encoding: 78 78 45
Width: 892
GlyphClass: 1
Flags: HW
LayerCount: 2
Fore
SplineSet
771 81 m 1
 116 81 l 1
 116 121 l 1
 373 121 l 1
 373 499 l 1
 269 499 l 1
 269 392 l 1
 116 392 l 1
 116 543 l 1
 771 543 l 1
 771 81 l 1
658 121 m 1
 658 497 l 1
 487 497 l 1
 487 121 l 1
 658 121 l 1
374 729 m 256
 388 729 399.833333333 724.166666667 409.5 714.5 c 128
 419.166666667 704.833333333 424 693 424 679 c 0
 424 665.666666667 419.166666667 654.166666667 409.5 644.5 c 128
 399.833333333 634.833333333 388 630 374 630 c 0
 360.666666667 630 349 634.833333333 339 644.5 c 128
 329 654.166666667 324 665.666666667 324 679 c 0
 324 693 328.833333333 704.833333333 338.5 714.5 c 128
 348.166666667 724.166666667 360 729 374 729 c 256
520 729 m 256
 534 729 545.833333333 724.166666667 555.5 714.5 c 128
 565.166666667 704.833333333 570 693 570 679 c 0
 570 665.666666667 565.166666667 654.166666667 555.5 644.5 c 128
 545.833333333 634.833333333 534 630 520 630 c 0
 506.666666667 630 495 634.833333333 485 644.5 c 128
 475 654.166666667 470 665.666666667 470 679 c 0
 470 693 474.833333333 704.833333333 484.5 714.5 c 128
 494.166666667 724.166666667 506 729 520 729 c 256
EndSplineSet
EndChar

StartChar: O
Encoding: 79 79 46
Width: 756
GlyphClass: 1
Flags: HW
LayerCount: 2
Fore
SplineSet
478 48 m 2
 521 8 l 1
 576.333333333 -36 636 -79 700 -121 c 0
 747.333333333 -152.333333333 799 -184 855 -216 c 0
 889.666666667 -236 934.333333333 -261 989 -291 c 1
 988.333333333 -291 986.666666667 -296.666666667 984 -308 c 1
 908 -280 832.333333333 -251.666666667 757 -223 c 0
 659.666666667 -185.666666667 572.333333333 -149.666666667 495 -115 c 0
 398.333333333 -71.6666666667 321.333333333 -31.3333333333 264 6 c 0
 228.666666667 28.6666666667 201 50.3333333333 181 71 c 0
 155.666666667 97 143.333333333 121.333333333 144 144 c 0
 144 152.666666667 145 160 147 166 c 128
 149 172 153.333333333 179 160 187 c 0
 169.333333333 197.666666667 179.166666667 205.333333333 189.5 210 c 128
 199.833333333 214.666666667 210.666666667 217 222 217 c 0
 248.666666667 217 281 203 319 175 c 0
 341 157 356 145 364 139 c 0
 380.666666667 124.333333333 400 108.333333333 422 91 c 0
 454.666666667 66.3333333333 473.333333333 52 478 48 c 2
383 384 m 256
 397 384 408.666666667 379.166666667 418 369.5 c 128
 427.333333333 359.833333333 432 347.666666667 432 333 c 0
 432 319.666666667 427.333333333 308.166666667 418 298.5 c 128
 408.666666667 288.833333333 397 284 383 284 c 0
 369.666666667 284 357.833333333 288.833333333 347.5 298.5 c 128
 337.166666667 308.166666667 332 319.666666667 332 333 c 0
 332 347 337 359 347 369 c 128
 357 379 369 384 383 384 c 256
528 384 m 256
 542 384 553.833333333 379.166666667 563.5 369.5 c 128
 573.166666667 359.833333333 578 347.666666667 578 333 c 0
 578 319.666666667 573.166666667 308.166666667 563.5 298.5 c 0
 553.166666667 288.833333333 541.333333333 284 528 284 c 128
 514.666666667 284 503 288.833333333 493 298.5 c 128
 483 308.166666667 478 319.666666667 478 333 c 0
 478 347 482.833333333 359 492.5 369 c 128
 502.166666667 379 514 384 528 384 c 256
EndSplineSet
EndChar

StartChar: P
Encoding: 80 80 47
Width: 466
GlyphClass: 1
Flags: HW
LayerCount: 2
Fore
SplineSet
396 503 m 1
 327 503 l 1
 327 81 l 1
 95 81 l 1
 95 121 l 1
 219 121 l 1
 219 503 l 1
 147 503 l 1
 147 543 l 1
 396 543 l 1
 396 503 l 1
207 729 m 256
 221 729 232.833333333 724.166666667 242.5 714.5 c 128
 252.166666667 704.833333333 257 693 257 679 c 0
 257 665.666666667 252.166666667 654.166666667 242.5 644.5 c 128
 232.833333333 634.833333333 221 630 207 630 c 0
 193.666666667 630 182 634.833333333 172 644.5 c 128
 162 654.166666667 157 665.666666667 157 679 c 0
 157 693 161.833333333 704.833333333 171.5 714.5 c 128
 181.166666667 724.166666667 193 729 207 729 c 256
353 729 m 256
 367 729 378.833333333 724.166666667 388.5 714.5 c 128
 398.166666667 704.833333333 403 693 403 679 c 0
 403 665.666666667 398.166666667 654.166666667 388.5 644.5 c 128
 378.833333333 634.833333333 367 630 353 630 c 0
 339.666666667 630 328 634.833333333 318 644.5 c 128
 308 654.166666667 303 665.666666667 303 679 c 0
 303 693 307.833333333 704.833333333 317.5 714.5 c 128
 327.166666667 724.166666667 339 729 353 729 c 256
EndSplineSet
EndChar

StartChar: Q
Encoding: 81 81 48
Width: 935
GlyphClass: 1
Flags: HW
LayerCount: 2
Fore
SplineSet
741 322 m 0
 741 358 733 389.666666667 717 417 c 0
 697.666666667 450.333333333 672.333333333 467 641 467 c 0
 618.333333333 467 597.333333333 455.666666667 578 433 c 0
 562 413.666666667 547.333333333 385 534 347 c 0
 530.666666667 339 527 325.333333333 523 306 c 0
 513.666666667 263.333333333 509 228.666666667 509 202 c 0
 509 177.333333333 514.5 159.833333333 525.5 149.5 c 128
 536.5 139.166666667 553.333333333 134 576 134 c 0
 628 134 669 152.666666667 699 190 c 0
 727 224.666666667 741 268.666666667 741 322 c 0
429 202 m 0
 429 224.666666667 426 251 420 281 c 128
 414 311 408.333333333 333 403 347 c 0
 389.666666667 384.333333333 375 413 359 433 c 0
 341 455.666666667 320.333333333 467 297 467 c 0
 265.666666667 467 240.666666667 450.666666667 222 418 c 0
 205.333333333 389.333333333 197 357.333333333 197 322 c 0
 197 268.666666667 210.666666667 225 238 191 c 0
 268 153 309.333333333 134 362 134 c 0
 384 134 400.666666667 139.333333333 412 150 c 128
 423.333333333 160.666666667 429 178 429 202 c 0
676 81 m 2
 247 81 l 2
 213.666666667 81 182.666666667 105 154 153 c 0
 128.666666667 195 113.666666667 237 109 279 c 0
 108.333333333 285.666666667 107.833333333 291.333333333 107.5 296 c 128
 107.166666667 300.666666667 107 304.333333333 107 307 c 0
 107 356.333333333 118 401 140 441 c 128
 162 481 189.333333333 510.333333333 222 529 c 0
 230.666666667 533.666666667 243.5 537.5 260.5 540.5 c 128
 277.5 543.5 291.666666667 545 303 545 c 0
 331 545 359.666666667 530.333333333 389 501 c 0
 409 480.333333333 428.333333333 453 447 419 c 0
 453.666666667 404.333333333 461 389.666666667 469 375 c 1
 475.666666667 389.666666667 482.666666667 404.333333333 490 419 c 0
 509.333333333 453 529 480.333333333 549 501 c 0
 577.666666667 530.333333333 606 545 634 545 c 0
 653.333333333 545 668.833333333 544 680.5 542 c 128
 692.166666667 540 704 535.666666667 716 529 c 0
 752.666666667 507 780 478.333333333 798 443 c 0
 818 403.666666667 828.333333333 354.333333333 829 295 c 0
 829 259 811.666666667 215 777 163 c 0
 740.333333333 108.333333333 706.666666667 81 676 81 c 2
391 729 m 256
 405 729 416.833333333 724.166666667 426.5 714.5 c 128
 436.166666667 704.833333333 441 693 441 679 c 0
 441 665.666666667 436.166666667 654.166666667 426.5 644.5 c 128
 416.833333333 634.833333333 405 630 391 630 c 0
 377.666666667 630 366 634.833333333 356 644.5 c 128
 346 654.166666667 341 665.666666667 341 679 c 0
 341 693 345.833333333 704.833333333 355.5 714.5 c 128
 365.166666667 724.166666667 377 729 391 729 c 256
537 729 m 256
 551 729 562.666666667 724.166666667 572 714.5 c 128
 581.333333333 704.833333333 586 693 586 679 c 0
 586 665.666666667 581.333333333 654.166666667 572 644.5 c 128
 562.666666667 634.833333333 551 630 537 630 c 0
 523.666666667 630 511.833333333 634.833333333 501.5 644.5 c 128
 491.166666667 654.166666667 486 665.666666667 486 679 c 0
 486 693 491 704.833333333 501 714.5 c 128
 511 724.166666667 523 729 537 729 c 256
EndSplineSet
EndChar

StartChar: R
Encoding: 82 82 49
Width: 684
GlyphClass: 1
Flags: HW
LayerCount: 2
Fore
SplineSet
620 81 m 1
 104 81 l 1
 104 121 l 1
 457 121 l 1
 184 393 l 2
 165.333333333 411.666666667 151.333333333 426 142 436 c 0
 116.666666667 464 104 482.666666667 104 492 c 0
 104 512 114 526.333333333 134 535 c 0
 146.666666667 540.333333333 164.333333333 543 187 543 c 2
 337 543 l 1
 337 453 l 1
 256 453 l 2
 253.333333333 453 250.833333333 452 248.5 450 c 128
 246.166666667 448 245 446 245 444 c 0
 245 441.333333333 273.666666667 412 331 356 c 0
 376.333333333 311.333333333 429.333333333 260.333333333 490 203 c 0
 518.666666667 175 547.333333333 147.333333333 576 120 c 2
 620 81 l 1
278 729 m 256
 292 729 303.833333333 724.166666667 313.5 714.5 c 128
 323.166666667 704.833333333 328 693 328 679 c 0
 328 665.666666667 323.166666667 654.166666667 313.5 644.5 c 128
 303.833333333 634.833333333 292 630 278 630 c 0
 264.666666667 630 253 634.833333333 243 644.5 c 128
 233 654.166666667 228 665.666666667 228 679 c 0
 228 693 232.833333333 704.833333333 242.5 714.5 c 128
 252.166666667 724.166666667 264 729 278 729 c 256
424 729 m 256
 438 729 449.666666667 724.166666667 459 714.5 c 128
 468.333333333 704.833333333 473 693 473 679 c 0
 473 665.666666667 468.166666667 654.166666667 458.5 644.5 c 128
 448.833333333 634.833333333 437.333333333 630 424 630 c 256
 410.666666667 630 398.833333333 634.833333333 388.5 644.5 c 128
 378.166666667 654.166666667 373 665.666666667 373 679 c 0
 373 693 378 704.833333333 388 714.5 c 128
 398 724.166666667 410 729 424 729 c 256
EndSplineSet
EndChar

StartChar: S
Encoding: 83 83 50
Width: 754
GlyphClass: 1
Flags: HW
LayerCount: 2
Fore
SplineSet
271 729 m 256
 285 729 296.666666667 724.166666667 306 714.5 c 128
 315.333333333 704.833333333 320 693 320 679 c 0
 320 665.666666667 315.333333333 654.166666667 306 644.5 c 128
 296.666666667 634.833333333 285 630 271 630 c 0
 257.666666667 630 245.833333333 634.833333333 235.5 644.5 c 128
 225.166666667 654.166666667 220 665.666666667 220 679 c 0
 220 693 225 704.833333333 235 714.5 c 128
 245 724.166666667 257 729 271 729 c 256
416 729 m 256
 430 729 441.833333333 724.166666667 451.5 714.5 c 128
 461.166666667 704.833333333 466 693 466 679 c 0
 466 665.666666667 461.166666667 654.166666667 451.5 644.5 c 128
 441.833333333 634.833333333 430 630 416 630 c 0
 402.666666667 630 391 634.833333333 381 644.5 c 128
 371 654.166666667 366 665.666666667 366 679 c 0
 366 693 370.833333333 704.833333333 380.5 714.5 c 128
 390.166666667 724.166666667 402 729 416 729 c 256
156 121 m 1
 142 175 129.333333333 226 118 274 c 0
 103.333333333 339.333333333 96 379.666666667 96 395 c 0
 96 451.666666667 102.666666667 491 116 513 c 0
 128 533 145.666666667 543 169 543 c 2
 516 543 l 2
 532 543 548 523 564 483 c 0
 578.666666667 447 586 417.666666667 586 395 c 0
 586 352.333333333 565.666666667 308.333333333 525 263 c 0
 507 244.333333333 489.333333333 226 472 208 c 1
 464 208 l 1
 428 267 l 1
 442.666666667 289 453.666666667 306 461 318 c 0
 483 355.333333333 494 381.333333333 494 396 c 0
 494 412.666666667 490.333333333 429 483 445 c 128
 475.666666667 461 469.333333333 469 464 469 c 2
 209 469 l 2
 197 469 188.333333333 454.333333333 183 425 c 0
 181 413.666666667 180 403.666666667 180 395 c 0
 180 377.666666667 189.333333333 330.166666667 208 252.5 c 128
 226.666666667 174.833333333 240 129 248 115 c 1
 260 81 l 1
 65 81 l 1
 65 121 l 1
 156 121 l 1
EndSplineSet
EndChar

StartChar: T
Encoding: 84 84 51
Width: 680
GlyphClass: 1
Flags: HW
LayerCount: 2
Fore
SplineSet
585 394 m 0
 585 379.333333333 579 345.666666667 567 293 c 0
 562.333333333 271.666666667 551 224.666666667 533 152 c 0
 526.333333333 128 520 104 514 80 c 1
 420 80 l 1
 106 80 l 1
 106 121 l 1
 433 121 l 1
 441 135.666666667 454.333333333 180.5 473 255.5 c 128
 491.666666667 330.5 501 376.666666667 501 394 c 0
 501 408 499 422.333333333 495 437 c 0
 489.666666667 458.333333333 481.666666667 469 471 469 c 2
 216 469 l 2
 211.333333333 469 205.166666667 460.666666667 197.5 444 c 128
 189.833333333 427.333333333 186 411.333333333 186 396 c 0
 186 384 193.166666667 365.666666667 207.5 341 c 128
 221.833333333 316.333333333 236.666666667 291.333333333 252 266 c 1
 252 262 249.333333333 256 244 248 c 0
 230 228 221 214.666666667 217 208 c 1
 209 208 l 1
 185.666666667 233.333333333 162 259 138 285 c 1
 109.333333333 321.666666667 94.6666666667 358 94 394 c 0
 94 416 101.666666667 446.166666667 117 484.5 c 128
 132.333333333 522.833333333 148 542 164 542 c 2
 511 542 l 2
 541 542 561.666666667 525.666666667 573 493 c 0
 581 469.666666667 585 436.666666667 585 394 c 0
274 729 m 256
 288 729 299.666666667 724.166666667 309 714.5 c 128
 318.333333333 704.833333333 323 692.666666667 323 678 c 0
 323 664.666666667 318.166666667 653.333333333 308.5 644 c 128
 298.833333333 634.666666667 287.333333333 630 274 630 c 256
 260.666666667 630 248.833333333 634.666666667 238.5 644 c 128
 228.166666667 653.333333333 223 664.666666667 223 678 c 0
 223 692 228 704 238 714 c 128
 248 724 260 729 274 729 c 256
419 729 m 256
 433 729 444.833333333 724.166666667 454.5 714.5 c 128
 464.166666667 704.833333333 469 692.666666667 469 678 c 0
 469 664.666666667 464.166666667 653.333333333 454.5 644 c 128
 444.833333333 634.666666667 433 630 419 630 c 0
 405.666666667 630 394 634.666666667 384 644 c 128
 374 653.333333333 369 664.666666667 369 678 c 0
 369 692 373.833333333 704 383.5 714 c 128
 393.166666667 724 405 729 419 729 c 256
EndSplineSet
EndChar

StartChar: V
Encoding: 86 86 52
Width: 780
GlyphClass: 1
Flags: HW
LayerCount: 2
Fore
SplineSet
675 42 m 1
 328 42 l 1
 374.666666667 27.3333333333 421.333333333 13.3333333333 468 0 c 1
 524 -27.3333333333 552 -70 552 -128 c 0
 552 -162 526.333333333 -193.333333333 475 -222 c 0
 417.666666667 -253.333333333 346.666666667 -269 262 -269 c 2
 63 -267 l 1
 64 -219 l 1
 243 -219 l 2
 276.333333333 -219 311.333333333 -211.666666667 348 -197 c 0
 401.333333333 -177 428 -149 428 -113 c 0
 428 -67 397.833333333 -29.6666666667 337.5 -1 c 128
 277.166666667 27.6666666667 199 42 103 42 c 1
 103 82 l 1
 294 82 l 1
 360 504 l 1
 459 504 l 1
 675 42 l 1
335 690 m 256
 349 690 360.833333333 685.166666667 370.5 675.5 c 128
 380.166666667 665.833333333 385 654 385 640 c 0
 385 626.666666667 380.166666667 615.166666667 370.5 605.5 c 128
 360.833333333 595.833333333 349 591 335 591 c 0
 321.666666667 591 310 595.833333333 300 605.5 c 128
 290 615.166666667 285 626.666666667 285 640 c 0
 285 654 289.833333333 665.833333333 299.5 675.5 c 128
 309.166666667 685.166666667 321 690 335 690 c 256
481 690 m 256
 495 690 506.833333333 685.166666667 516.5 675.5 c 128
 526.166666667 665.833333333 531 654 531 640 c 0
 531 626.666666667 526.166666667 615.166666667 516.5 605.5 c 128
 506.833333333 595.833333333 495 591 481 591 c 0
 467.666666667 591 456 595.833333333 446 605.5 c 128
 436 615.166666667 431 626.666666667 431 640 c 0
 431 654 435.833333333 665.833333333 445.5 675.5 c 128
 455.166666667 685.166666667 467 690 481 690 c 256
EndSplineSet
EndChar

StartChar: W
Encoding: 87 87 53
Width: 660
GlyphClass: 1
Flags: HW
LayerCount: 2
Fore
SplineSet
434 121 m 1
 434 501 l 1
 221 501 l 1
 221 121 l 1
 434 121 l 1
101 81 m 1
 100 543 l 1
 556 543 l 1
 556 81 l 1
 101 81 l 1
263 729 m 256
 277 729 288.833333333 724.166666667 298.5 714.5 c 128
 308.166666667 704.833333333 313 693 313 679 c 0
 313 665.666666667 308.166666667 654.166666667 298.5 644.5 c 128
 288.833333333 634.833333333 277 630 263 630 c 0
 249.666666667 630 238 634.833333333 228 644.5 c 128
 218 654.166666667 213 665.666666667 213 679 c 0
 213 693 217.833333333 704.833333333 227.5 714.5 c 128
 237.166666667 724.166666667 249 729 263 729 c 256
409 729 m 256
 423 729 434.666666667 724.166666667 444 714.5 c 128
 453.333333333 704.833333333 458 693 458 679 c 0
 458 665.666666667 453.333333333 654.166666667 444 644.5 c 128
 434.666666667 634.833333333 423 630 409 630 c 0
 395.666666667 630 383.833333333 634.833333333 373.5 644.5 c 128
 363.166666667 654.166666667 358 665.666666667 358 679 c 0
 358 693 363 704.833333333 373 714.5 c 128
 383 724.166666667 395 729 409 729 c 256
EndSplineSet
EndChar

StartChar: X
Encoding: 88 88 54
Width: 864
GlyphClass: 1
Flags: HW
LayerCount: 2
Fore
SplineSet
655 80 m 1
 655 506 l 1
 431 506 l 1
 431 390 l 1
 273 390 l 1
 273 542 l 1
 762 542 l 1
 762 80 l 1
 655 80 l 1
477 729 m 256
 491 729 502.833333333 724.166666667 512.5 714.5 c 128
 522.166666667 704.833333333 527 692.666666667 527 678 c 0
 527 664.666666667 522.166666667 653.333333333 512.5 644 c 128
 502.833333333 634.666666667 491 630 477 630 c 0
 463.666666667 630 452 634.666666667 442 644 c 128
 432 653.333333333 427 664.666666667 427 678 c 0
 427 692 431.833333333 704 441.5 714 c 128
 451.166666667 724 463 729 477 729 c 256
623 729 m 256
 637 729 648.666666667 724.166666667 658 714.5 c 128
 667.333333333 704.833333333 672 692.666666667 672 678 c 0
 672 664.666666667 667.333333333 653.333333333 658 644 c 128
 648.666666667 634.666666667 637 630 623 630 c 0
 609.666666667 630 597.833333333 634.666666667 587.5 644 c 128
 577.166666667 653.333333333 572 664.666666667 572 678 c 0
 572 692 577 704 587 714 c 128
 597 724 609 729 623 729 c 256
EndSplineSet
EndChar

StartChar: Y
Encoding: 89 89 55
Width: 742
GlyphClass: 1
Flags: HW
LayerCount: 2
Fore
SplineSet
286 343 m 1
 94 543 l 1
 212 543 l 1
 366 388 l 1
 525 542 l 1
 648 541 l 1
 440 347 l 1
 456 331.666666667 468.333333333 312.333333333 477 289 c 128
 485.666666667 265.666666667 490 244.333333333 490 225 c 0
 490 179.666666667 480 143 460 115 c 0
 438 85 406.333333333 70 365 70 c 0
 324.333333333 70 293 85 271 115 c 0
 251 142.333333333 241 179 241 225 c 0
 241 247 244.666666667 268.166666667 252 288.5 c 128
 259.333333333 308.833333333 270.666666667 327 286 343 c 1
296 728 m 256
 310 728 321.666666667 723.166666667 331 713.5 c 128
 340.333333333 703.833333333 345 691.666666667 345 677 c 0
 345 663.666666667 340.333333333 652.333333333 331 643 c 128
 321.666666667 633.666666667 310 629 296 629 c 0
 282.666666667 629 270.833333333 633.666666667 260.5 643 c 128
 250.166666667 652.333333333 245 663.666666667 245 677 c 0
 245 691 250 703 260 713 c 128
 270 723 282 728 296 728 c 256
441 728 m 256
 455 728 466.833333333 723.166666667 476.5 713.5 c 128
 486.166666667 703.833333333 491 691.666666667 491 677 c 0
 491 663.666666667 486.166666667 652.333333333 476.5 643 c 128
 466.833333333 633.666666667 455 629 441 629 c 0
 427.666666667 629 416 633.666666667 406 643 c 128
 396 652.333333333 391 663.666666667 391 677 c 0
 391 691 395.833333333 703 405.5 713 c 128
 415.166666667 723 427 728 441 728 c 256
EndSplineSet
EndChar

StartChar: Z
Encoding: 90 90 56
Width: 970
GlyphClass: 1
Flags: HW
LayerCount: 2
Fore
SplineSet
843 301 m 0
 843 233 825.666666667 181 791 145 c 0
 749.666666667 102.333333333 677.333333333 81 574 81 c 2
 117 81 l 1
 117 141 l 1
 137 209 165.833333333 270 203.5 324 c 128
 241.166666667 378 287 423 341 459 c 1
 205 669 l 1
 312 669 l 1
 407 484 l 1
 425 493.333333333 436.333333333 499 441 501 c 0
 477 515.666666667 523.666666667 523 581 523 c 0
 658.333333333 523 720.666666667 504.333333333 768 467 c 0
 818 427 843 371.666666667 843 301 c 0
743 304 m 0
 743 352 725.333333333 388 690 412 c 0
 659.333333333 433.333333333 617.666666667 444 565 444 c 0
 521.666666667 444 490 441.666666667 470 437 c 0
 468 436.333333333 455.666666667 431.333333333 433 422 c 1
 570 144 l 1
 573.333333333 145.333333333 585 146 605 146 c 0
 651.666666667 146 688 166.333333333 714 207 c 0
 733.333333333 238.333333333 743 270.666666667 743 304 c 0
521 144 m 1
 509.666666667 163.333333333 498.333333333 183 487 203 c 0
 454.333333333 258.333333333 432 296.666666667 420 318 c 0
 389.333333333 370 373.333333333 397.666666667 372 401 c 1
 362 401 341.166666667 385 309.5 353 c 128
 277.833333333 321 250 286.333333333 226 249 c 0
 197.333333333 205 182.666666667 170 182 144 c 1
 521 144 l 1
486 729 m 256
 500 729 511.666666667 724.166666667 521 714.5 c 128
 530.333333333 704.833333333 535 693 535 679 c 0
 535 665.666666667 530.166666667 654.166666667 520.5 644.5 c 128
 510.833333333 634.833333333 499.333333333 630 486 630 c 256
 472.666666667 630 460.833333333 634.833333333 450.5 644.5 c 128
 440.166666667 654.166666667 435 665.666666667 435 679 c 0
 435 693 440 704.833333333 450 714.5 c 128
 460 724.166666667 472 729 486 729 c 256
631 729 m 256
 645 729 656.833333333 724.166666667 666.5 714.5 c 128
 676.166666667 704.833333333 681 693 681 679 c 0
 681 665.666666667 676.166666667 654.166666667 666.5 644.5 c 128
 656.833333333 634.833333333 645 630 631 630 c 0
 617.666666667 630 606 634.833333333 596 644.5 c 128
 586 654.166666667 581 665.666666667 581 679 c 0
 581 693 585.833333333 704.833333333 595.5 714.5 c 128
 605.166666667 724.166666667 617 729 631 729 c 256
EndSplineSet
EndChar

StartChar: bracketleft
Encoding: 91 91 57
Width: 384
GlyphClass: 1
Flags: HW
LayerCount: 2
Fore
SplineSet
292 -62 m 1
 96 -62 l 1
 96 598 l 1
 292 598 l 1
 292 550 l 1
 175 550 l 1
 175 -13 l 1
 174.333333333 -13 213.333333333 -13 292 -13 c 1
 292 -62 l 1
EndSplineSet
EndChar

StartChar: backslash
Encoding: 92 92 58
Width: 239
GlyphClass: 1
Flags: HW
LayerCount: 2
Fore
SplineSet
143 44 m 1
 26 466 l 1
 61 466 l 1
 177 44 l 1
 143 44 l 1
EndSplineSet
EndChar

StartChar: bracketright
Encoding: 93 93 59
Width: 384
GlyphClass: 1
Flags: HW
LayerCount: 2
Fore
SplineSet
88 -62 m 1
 88 -13 l 1
 204 -13 l 1
 205 550 l 1
 205.666666667 550 166.666666667 550 88 550 c 1
 88 598 l 1
 284 598 l 1
 284 -62 l 1
 88 -62 l 1
EndSplineSet
EndChar

StartChar: asciicircum
Encoding: 94 94 60
Width: 430
GlyphClass: 1
Flags: HW
LayerCount: 2
Fore
SplineSet
422 5 m 1
 89 5 l 1
 89 45 l 1
 422 45 l 1
 422 5 l 1
EndSplineSet
EndChar

StartChar: underscore
Encoding: 95 95 61
Width: 352
GlyphClass: 1
Flags: HW
LayerCount: 2
Fore
SplineSet
351 5 m 1
 1 5 l 1
 1 45 l 1
 351 45 l 1
 351 5 l 1
EndSplineSet
EndChar

StartChar: grave
Encoding: 96 96 62
Width: 836
GlyphClass: 1
Flags: HW
LayerCount: 2
Fore
SplineSet
330 760 m 256
 344.666666667 760 357 754.833333333 367 744.5 c 128
 377 734.166666667 382 722 382 708 c 256
 382 693.333333333 377 681.166666667 367 671.5 c 128
 357 661.833333333 344.666666667 657 330 657 c 256
 315.333333333 657 303 661.833333333 293 671.5 c 128
 283 681.166666667 278 693.333333333 278 708 c 256
 278 722.666666667 283 735 293 745 c 128
 303 755 315.333333333 760 330 760 c 256
695 84 m 1
 571 84 l 1
 379 475 l 1
 232 475 l 1
 233 84 l 1
 123 84 l 1
 123 546 l 1
 372 546 l 1
 704 756 l 1
 764 689 l 1
 494 501 l 1
 695 84 l 1
EndSplineSet
EndChar

StartChar: d
Encoding: 100 100 63
Width: 852
GlyphClass: 1
Flags: HW
LayerCount: 2
Fore
SplineSet
431 729 m 256
 445 729 456.666666667 724.166666667 466 714.5 c 128
 475.333333333 704.833333333 480 693 480 679 c 0
 480 665.666666667 475.166666667 654.166666667 465.5 644.5 c 128
 455.833333333 634.833333333 444.333333333 630 431 630 c 256
 417.666666667 630 405.833333333 634.833333333 395.5 644.5 c 128
 385.166666667 654.166666667 380 665.666666667 380 679 c 0
 380 693 385 704.833333333 395 714.5 c 128
 405 724.166666667 417 729 431 729 c 256
107 81 m 1
 107 543 l 1
 751 543 l 1
 751 81 l 1
 640 81 l 1
 640 500 l 1
 488 500 l 1
 488 81 l 1
 376 81 l 1
 376 500 l 1
 221 500 l 1
 221 81 l 1
 107 81 l 1
EndSplineSet
EndChar

StartChar: n
Encoding: 110 110 64
Width: 915
GlyphClass: 1
Flags: HW
LayerCount: 2
Fore
SplineSet
594 729 m 256
 608 729 619.833333333 724.166666667 629.5 714.5 c 128
 639.166666667 704.833333333 644 693 644 679 c 0
 644 665.666666667 639.166666667 654.166666667 629.5 644.5 c 128
 619.833333333 634.833333333 608 630 594 630 c 0
 580.666666667 630 569 634.833333333 559 644.5 c 128
 549 654.166666667 544 665.666666667 544 679 c 0
 544 693 548.833333333 704.833333333 558.5 714.5 c 128
 568.166666667 724.166666667 580 729 594 729 c 256
791 81 m 1
 136 81 l 1
 136 121 l 1
 393 121 l 1
 393 499 l 1
 289 499 l 1
 289 392 l 1
 136 392 l 1
 136 543 l 1
 791 543 l 1
 791 81 l 1
678 121 m 1
 678 497 l 1
 507 497 l 1
 507 121 l 1
 678 121 l 1
EndSplineSet
EndChar

StartChar: z
Encoding: 122 122 65
Width: 966
GlyphClass: 1
Flags: HW
LayerCount: 2
Fore
SplineSet
518 729 m 256
 532 729 543.666666667 724.166666667 553 714.5 c 128
 562.333333333 704.833333333 567 693 567 679 c 0
 567 665.666666667 562.166666667 654.166666667 552.5 644.5 c 128
 542.833333333 634.833333333 531.333333333 630 518 630 c 256
 504.666666667 630 492.833333333 634.833333333 482.5 644.5 c 128
 472.166666667 654.166666667 467 665.666666667 467 679 c 0
 467 693 472 704.833333333 482 714.5 c 128
 492 724.166666667 504 729 518 729 c 256
843 301 m 0
 843 233 825.666666667 181 791 145 c 0
 749.666666667 102.333333333 677.333333333 81 574 81 c 2
 117 81 l 1
 117 141 l 1
 137 209 165.833333333 270 203.5 324 c 128
 241.166666667 378 287 423 341 459 c 1
 205 669 l 1
 312 669 l 1
 407 484 l 1
 425 493.333333333 436.333333333 499 441 501 c 0
 477 515.666666667 523.666666667 523 581 523 c 0
 658.333333333 523 720.666666667 504.333333333 768 467 c 0
 818 427 843 371.666666667 843 301 c 0
743 304 m 0
 743 352 725.333333333 388 690 412 c 0
 659.333333333 433.333333333 617.666666667 444 565 444 c 0
 521.666666667 444 490 441.666666667 470 437 c 0
 468 436.333333333 455.666666667 431.333333333 433 422 c 1
 570 144 l 1
 573.333333333 145.333333333 585 146 605 146 c 0
 651.666666667 146 688 166.333333333 714 207 c 0
 733.333333333 238.333333333 743 270.666666667 743 304 c 0
521 144 m 1
 509.666666667 163.333333333 498.333333333 183 487 203 c 0
 454.333333333 258.333333333 432 296.666666667 420 318 c 0
 389.333333333 370 373.333333333 397.666666667 372 401 c 1
 362 401 341.166666667 385 309.5 353 c 128
 277.833333333 321 250 286.333333333 226 249 c 0
 197.333333333 205 182.666666667 170 182 144 c 1
 521 144 l 1
EndSplineSet
EndChar

StartChar: braceleft
Encoding: 123 123 66
Width: 384
GlyphClass: 1
Flags: HW
LayerCount: 2
Fore
SplineSet
304 -55 m 1
 303 -73 l 1
 289.666666667 -69 275.5 -63.8333333333 260.5 -57.5 c 128
 245.5 -51.1666666667 233.666666667 -46 225 -42 c 0
 207 -32.6666666667 193.666666667 -17.6666666667 185 3 c 128
 176.333333333 23.6666666667 172 46.3333333333 172 71 c 2
 172 187 l 2
 172 192.333333333 171.833333333 197.833333333 171.5 203.5 c 128
 171.166666667 209.166666667 169 215.333333333 165 222 c 0
 153.666666667 238.666666667 136.666666667 250.333333333 114 257 c 0
 106.666666667 259 96.3333333333 261 83 263 c 1
 83 278 l 1
 90.3333333333 278.666666667 96.3333333333 279.333333333 101 280 c 0
 129.666666667 286.666666667 151 298.666666667 165 316 c 0
 167.666666667 320 169.5 324.833333333 170.5 330.5 c 128
 171.5 336.166666667 172 342.666666667 172 350 c 2
 172 467 l 2
 172 491 176.333333333 513.666666667 185 535 c 128
 193.666666667 556.333333333 207 571.333333333 225 580 c 0
 235.666666667 584.666666667 249 590.166666667 265 596.5 c 128
 281 602.833333333 293.666666667 607.666666667 303 611 c 1
 304 592 l 1
 284 582.666666667 269 569.5 259 552.5 c 128
 249 535.5 244 516.333333333 244 495 c 2
 244 372 l 2
 244 353.333333333 238.166666667 334.333333333 226.5 315 c 0
 215.5 295.666666667 201.333333333 280.666666667 184 270 c 1
 200 260.666666667 214 245.666666667 226 225 c 128
 238 204.333333333 244 184.666666667 244 166 c 2
 244 43 l 2
 244 22.3333333333 249 3.16666666667 259 -14.5 c 128
 269 -32.1666666667 284 -45.6666666667 304 -55 c 1
EndSplineSet
EndChar

StartChar: bar
Encoding: 124 124 67
Width: 92
GlyphClass: 1
Flags: HW
LayerCount: 2
Fore
SplineSet
58 4 m 1
 30 4 l 1
 30 504 l 1
 58 504 l 1
 58 4 l 1
EndSplineSet
EndChar

StartChar: braceright
Encoding: 125 125 68
Width: 384
GlyphClass: 1
Flags: HW
LayerCount: 2
Fore
SplineSet
309 263 m 1
 296.333333333 261.666666667 286.333333333 260 279 258 c 0
 255.666666667 251.333333333 238.333333333 239.333333333 227 222 c 0
 224.333333333 216.666666667 222.5 211 221.5 205 c 128
 220.5 199 220 193 220 187 c 2
 220 71 l 2
 220 47 216 25.3333333333 208 6 c 0
 198.666666667 -16.6666666667 185 -32.6666666667 167 -42 c 0
 156.333333333 -46.6666666667 142.333333333 -52.3333333333 125 -59 c 128
 107.666666667 -65.6666666667 95.6666666667 -70.3333333333 89 -73 c 1
 88 -55 l 1
 108 -45.6666666667 123 -32.3333333333 133 -15 c 128
 143 2.33333333333 148 21.6666666667 148 43 c 2
 148 166 l 2
 148 184.666666667 154 204.166666667 166 224.5 c 128
 178 244.833333333 192 260 208 270 c 1
 192 279.333333333 178 294.166666667 166 314.5 c 128
 154 334.833333333 148 354 148 372 c 2
 148 495 l 2
 148 515.666666667 142.833333333 534.666666667 132.5 552 c 128
 122.166666667 569.333333333 107.333333333 582.666666667 88 592 c 1
 89 611 l 1
 105 605.666666667 120.333333333 600 135 594 c 0
 145 590 155.666666667 585.333333333 167 580 c 0
 185.666666667 570.666666667 199.166666667 555.666666667 207.5 535 c 128
 215.833333333 514.333333333 220 491.666666667 220 467 c 2
 220 350 l 2
 220 343.333333333 220.5 337 221.5 331 c 128
 222.5 325 224.333333333 320 227 316 c 0
 238.333333333 301.333333333 255.333333333 290.666666667 278 284 c 0
 285.333333333 282 295.666666667 280 309 278 c 1
 309 263 l 1
EndSplineSet
EndChar

StartChar: c129
Encoding: 129 129 69
Width: 381
GlyphClass: 1
Flags: HW
LayerCount: 2
Fore
SplineSet
273 715 m 256
 287.666666667 715 300 710 310 700 c 128
 320 690 325 677.666666667 325 663 c 256
 325 648.333333333 320 636.333333333 310 627 c 128
 300 617.666666667 287.666666667 613 273 613 c 256
 258.333333333 613 246 617.833333333 236 627.5 c 128
 226 637.166666667 221 649 221 663 c 256
 221 677.666666667 226 690 236 700 c 128
 246 710 258.333333333 715 273 715 c 256
121 27 m 256
 135.666666667 27 148 22 158 12 c 128
 168 2 173 -10.3333333333 173 -25 c 256
 173 -39.6666666667 168 -51.6666666667 158 -61 c 128
 148 -70.3333333333 135.666666667 -75 121 -75 c 256
 106.333333333 -75 94 -70.1666666667 84 -60.5 c 128
 74 -50.8333333333 69 -39 69 -25 c 256
 69 -10.3333333333 74 2 84 12 c 128
 94 22 106.333333333 27 121 27 c 256
EndSplineSet
EndChar

StartChar: ellipsis
Encoding: 8230 8230 70
Width: 564
GlyphClass: 1
Flags: HW
LayerCount: 2
Fore
SplineSet
56 231 m 256
 56 245 60.8333333333 256.833333333 70.5 266.5 c 128
 80.1666666667 276.166666667 92.3333333333 281 107 281 c 0
 120.333333333 281 131.833333333 276.166666667 141.5 266.5 c 128
 151.166666667 256.833333333 156 245 156 231 c 0
 156 217.666666667 151.166666667 206 141.5 196 c 128
 131.833333333 186 120.333333333 181 107 181 c 0
 93 181 81 185.833333333 71 195.5 c 128
 61 205.166666667 56 217 56 231 c 256
56 505 m 256
 56 519 60.8333333333 530.666666667 70.5 540 c 128
 80.1666666667 549.333333333 92.3333333333 554 107 554 c 0
 120.333333333 554 131.833333333 549.333333333 141.5 540 c 128
 151.166666667 530.666666667 156 519 156 505 c 0
 156 491.666666667 151.166666667 479.833333333 141.5 469.5 c 128
 131.833333333 459.166666667 120.333333333 454 107 454 c 0
 93 454 81 459 71 469 c 128
 61 479 56 491 56 505 c 256
EndSplineSet
EndChar

StartChar: dagger
Encoding: 8224 8224 71
Width: 786
GlyphClass: 1
Flags: HW
LayerCount: 2
Fore
SplineSet
314 718 m 256
 328.666666667 718 341 712.833333333 351 702.5 c 128
 361 692.166666667 366 680 366 666 c 256
 366 651.333333333 361 639.166666667 351 629.5 c 128
 341 619.833333333 328.666666667 615 314 615 c 256
 299.333333333 615 287 619.833333333 277 629.5 c 128
 267 639.166666667 262 651.333333333 262 666 c 256
 262 680.666666667 267 693 277 703 c 128
 287 713 299.333333333 718 314 718 c 256
370 30 m 256
 384.666666667 30 397 24.8333333333 407 14.5 c 128
 417 4.16666666667 422 -8 422 -22 c 256
 422 -36.6666666667 417 -48.8333333333 407 -58.5 c 128
 397 -68.1666666667 384.666666667 -73 370 -73 c 256
 355.333333333 -73 343 -68.1666666667 333 -58.5 c 128
 323 -48.8333333333 318 -36.6666666667 318 -22 c 256
 318 -7.33333333333 323 5 333 15 c 128
 343 25 355.333333333 30 370 30 c 256
695 66 m 1
 571 66 l 1
 379 457 l 1
 232 457 l 1
 232 456.333333333 232.333333333 326 233 66 c 1
 123 66 l 1
 123 528 l 1
 372 528 l 1
 704 738 l 1
 764 671 l 1
 494 483 l 1
 695 66 l 1
EndSplineSet
EndChar

StartChar: daggerdbl
Encoding: 8225 8225 72
Width: 822
GlyphClass: 1
Flags: HW
LayerCount: 2
Fore
SplineSet
340 165 m 256
 354.666666667 165 367 159.833333333 377 149.5 c 128
 387 139.166666667 392 127 392 113 c 256
 392 98.3333333333 386.833333333 86.1666666667 376.5 76.5 c 0
 366.833333333 66.8333333333 354.666666667 62 340 62 c 256
 325.333333333 62 313 66.8333333333 303 76.5 c 128
 293 86.1666666667 288 98.3333333333 288 113 c 256
 288 127.666666667 293 140 303 150 c 128
 313 160 325.333333333 165 340 165 c 256
495 57 m 1
 495 483 l 1
 271 483 l 1
 271 366 l 1
 113 366 l 1
 113 519 l 1
 602 519 l 1
 602 57 l 1
 495 57 l 1
EndSplineSet
EndChar

StartChar: guilsinglleft
Encoding: 8249 8249 73
Width: 384
GlyphClass: 1
Flags: HW
LayerCount: 2
Fore
SplineSet
291 608 m 1
 146 608 l 1
 146 462 l 1
 97 462 l 1
 97 657 l 1
 291 657 l 1
 291 608 l 1
EndSplineSet
EndChar

StartChar: OE
Encoding: 338 338 74
Width: 384
GlyphClass: 1
Flags: HW
LayerCount: 2
Fore
SplineSet
281 657 m 1
 281 462 l 1
 232 462 l 1
 232 608 l 1
 87 608 l 1
 87 657 l 1
 281 657 l 1
EndSplineSet
EndChar

StartChar: oe
Encoding: 339 339 75
Width: 564
GlyphClass: 1
Flags: HW
LayerCount: 2
Fore
SplineSet
130 418 m 256
 144 418 155.666666667 413.166666667 165 403.5 c 128
 174.333333333 393.833333333 179 381.666666667 179 367 c 0
 179 353.666666667 174.333333333 342.166666667 165 332.5 c 128
 155.666666667 322.833333333 144 318 130 318 c 0
 116.666666667 318 104.833333333 322.833333333 94.5 332.5 c 128
 84.1666666667 342.166666667 79 353.666666667 79 367 c 0
 79 381 84 393 94 403 c 128
 104 413 116 418 130 418 c 256
183 231 m 256
 183 245 187.833333333 256.833333333 197.5 266.5 c 128
 207.166666667 276.166666667 219.333333333 281 234 281 c 0
 247.333333333 281 258.833333333 276.166666667 268.5 266.5 c 128
 278.166666667 256.833333333 283 245 283 231 c 0
 283 217.666666667 278.166666667 206 268.5 196 c 128
 258.833333333 186 247.333333333 181 234 181 c 0
 220 181 208 185.833333333 198 195.5 c 128
 188 205.166666667 183 217 183 231 c 256
183 505 m 256
 183 519 187.833333333 530.666666667 197.5 540 c 128
 207.166666667 549.333333333 219.333333333 554 234 554 c 0
 247.333333333 554 258.833333333 549.333333333 268.5 540 c 128
 278.166666667 530.666666667 283 519 283 505 c 0
 283 491.666666667 278.166666667 479.833333333 268.5 469.5 c 128
 258.833333333 459.166666667 247.333333333 454 234 454 c 0
 220 454 208 459 198 469 c 128
 188 479 183 491 183 505 c 256
EndSplineSet
EndChar

StartChar: Ydieresis
Encoding: 376 376 76
Width: 256
GlyphClass: 1
Flags: HW
LayerCount: 2
Fore
SplineSet
210 610 m 256
 210 600.666666667 206.666666667 592.666666667 200 586 c 128
 193.333333333 579.333333333 185.333333333 576 176 576 c 256
 166.666666667 576 158.666666667 579.333333333 152 586 c 128
 145.333333333 592.666666667 142 600.666666667 142 610 c 256
 142 619.333333333 145.333333333 627.333333333 152 634 c 128
 158.666666667 640.666666667 166.666666667 644 176 644 c 256
 185.333333333 644 193.333333333 640.666666667 200 634 c 128
 206.666666667 627.333333333 210 619.333333333 210 610 c 256
106 -22 m 256
 106 -31.3333333333 102.666666667 -39.3333333333 96 -46 c 128
 89.3333333333 -52.6666666667 81.3333333333 -56 72 -56 c 256
 62.6666666667 -56 54.6666666667 -52.6666666667 48 -46 c 128
 41.3333333333 -39.3333333333 38 -31.3333333333 38 -22 c 256
 38 -12.6666666667 41.3333333333 -4.66666666667 48 2 c 128
 54.6666666667 8.66666666667 62.6666666667 12 72 12 c 256
 81.3333333333 12 89.3333333333 8.66666666667 96 2 c 128
 102.666666667 -4.66666666667 106 -12.6666666667 106 -22 c 256
EndSplineSet
EndChar

StartChar: guillemotleft
Encoding: 171 171 77
Width: 512
GlyphClass: 1
Flags: HW
LayerCount: 2
Fore
SplineSet
244 226 m 1
 269 248 l 2
 289.666666667 266 314.333333333 288 343 314 c 0
 368.333333333 337.333333333 387.333333333 355.333333333 400 368 c 0
 406.666666667 374.666666667 411 378 413 378 c 0
 418.333333333 378 421 375 421 369 c 256
 421 363 400.333333333 332.666666667 359 278 c 0
 345.666666667 260 332.333333333 242.333333333 319 225 c 1
 326.333333333 215 337 201 351 183 c 0
 371 159 382.333333333 145.333333333 385 142 c 0
 394.333333333 130 402 118.666666667 408 108 c 0
 417.333333333 93.3333333333 422 84 422 80 c 0
 422 74 419 71 413 71 c 0
 411 71 404 77 392 89 c 0
 349.333333333 131 322.166666667 157 310.5 167 c 128
 298.833333333 177 287 187.666666667 275 199 c 0
 268.333333333 205 258 214 244 226 c 1
76 226 m 1
 101 248 l 2
 121.666666667 266 146.333333333 288 175 314 c 0
 200.333333333 337.333333333 219.333333333 355.333333333 232 368 c 0
 238.666666667 374.666666667 243 378 245 378 c 0
 250.333333333 378 253 375 253 369 c 256
 253 363 232.333333333 332.666666667 191 278 c 0
 177.666666667 260 164.333333333 242.333333333 151 225 c 1
 158.333333333 215 169 201 183 183 c 0
 203 159 214.333333333 145.333333333 217 142 c 0
 226.333333333 130 234 118.666666667 240 108 c 0
 249.333333333 93.3333333333 254 84 254 80 c 0
 254 74 251 71 245 71 c 0
 243 71 236 77 224 89 c 0
 181.333333333 131 154.166666667 157 142.5 167 c 128
 130.833333333 177 119 187.666666667 107 199 c 0
 100.333333333 205 90 214 76 226 c 1
EndSplineSet
EndChar

StartChar: logicalnot
Encoding: 172 172 78
Width: 416
GlyphClass: 1
Flags: HW
LayerCount: 2
Fore
SplineSet
344 72 m 1
 331 57 l 1
 52 314 l 1
 331 564 l 1
 343 548 l 1
 174 311 l 1
 344 72 l 1
EndSplineSet
EndChar

StartChar: minus
Encoding: 173 173 79
Width: 416
GlyphClass: 1
Flags: HW
LayerCount: 2
Fore
SplineSet
354 314 m 1
 75 57 l 1
 75 56.3333333333 70.6666666667 61.3333333333 62 72 c 1
 232 311 l 1
 232 310.333333333 175.666666667 389.333333333 63 548 c 1
 75 564 l 1
 354 314 l 1
EndSplineSet
EndChar

StartChar: registered
Encoding: 174 174 80
Width: 600
GlyphClass: 1
Flags: HW
LayerCount: 2
Fore
SplineSet
123 418 m 256
 137 418 148.833333333 413.166666667 158.5 403.5 c 128
 168.166666667 393.833333333 173 381.666666667 173 367 c 0
 173 353.666666667 168.166666667 342.166666667 158.5 332.5 c 128
 148.833333333 322.833333333 137 318 123 318 c 0
 109.666666667 318 98 322.833333333 88 332.5 c 128
 78 342.166666667 73 353.666666667 73 367 c 0
 73 381 77.8333333333 393 87.5 403 c 128
 97.1666666667 413 109 418 123 418 c 256
333 418 m 256
 347 418 358.666666667 413.166666667 368 403.5 c 128
 377.333333333 393.833333333 382 381.666666667 382 367 c 0
 382 353.666666667 377.333333333 342.166666667 368 332.5 c 128
 358.666666667 322.833333333 347 318 333 318 c 0
 319.666666667 318 307.833333333 322.833333333 297.5 332.5 c 128
 287.166666667 342.166666667 282 353.666666667 282 367 c 0
 282 381 287 393 297 403 c 128
 307 413 319 418 333 418 c 256
177 231 m 256
 177 245 181.833333333 256.833333333 191.5 266.5 c 128
 201.166666667 276.166666667 213 281 227 281 c 0
 240.333333333 281 251.833333333 276.166666667 261.5 266.5 c 128
 271.166666667 256.833333333 276 245 276 231 c 0
 276 217.666666667 271.166666667 206 261.5 196 c 128
 251.833333333 186 240.333333333 181 227 181 c 0
 213 181 201.166666667 185.833333333 191.5 195.5 c 128
 181.833333333 205.166666667 177 217 177 231 c 256
177 505 m 256
 177 519 181.833333333 530.666666667 191.5 540 c 128
 201.166666667 549.333333333 213 554 227 554 c 0
 240.333333333 554 251.833333333 549.333333333 261.5 540 c 128
 271.166666667 530.666666667 276 519 276 505 c 0
 276 491.666666667 271.166666667 479.833333333 261.5 469.5 c 128
 251.833333333 459.166666667 240.333333333 454 227 454 c 0
 213 454 201.166666667 459 191.5 469 c 128
 181.833333333 479 177 491 177 505 c 256
EndSplineSet
EndChar

StartChar: periodcentered
Encoding: 183 183 81
AltUni2: 002219.ffffffff.0 002219.ffffffff.0
Width: 235
GlyphClass: 1
Flags: HW
LayerCount: 2
Fore
SplineSet
177 596 m 256
 177 586.666666667 173.666666667 578.666666667 167 572 c 128
 160.333333333 565.333333333 152.333333333 562 143 562 c 256
 133.666666667 562 125.666666667 565.333333333 119 572 c 128
 112.333333333 578.666666667 109 586.666666667 109 596 c 256
 109 605.333333333 112.333333333 613.333333333 119 620 c 128
 125.666666667 626.666666667 133.666666667 630 143 630 c 256
 152.333333333 630 160.333333333 626.666666667 167 620 c 128
 173.666666667 613.333333333 177 605.333333333 177 596 c 256
129 492 m 256
 129 482.666666667 125.666666667 474.666666667 119 468 c 128
 112.333333333 461.333333333 104.333333333 458 95 458 c 256
 85.6666666667 458 77.6666666667 461.333333333 71 468 c 128
 64.3333333333 474.666666667 61 482.666666667 61 492 c 256
 61 501.333333333 64.3333333333 509.333333333 71 516 c 128
 77.6666666667 522.666666667 85.6666666667 526 95 526 c 256
 104.333333333 526 112.333333333 522.666666667 119 516 c 128
 125.666666667 509.333333333 129 501.333333333 129 492 c 256
EndSplineSet
EndChar

StartChar: cedilla
Encoding: 184 184 82
Width: 256
GlyphClass: 1
Flags: HW
LayerCount: 2
Fore
SplineSet
210 -101 m 256
 210 -110.333333333 206.666666667 -118.333333333 200 -125 c 128
 193.333333333 -131.666666667 185.333333333 -135 176 -135 c 256
 166.666666667 -135 158.666666667 -131.666666667 152 -125 c 128
 145.333333333 -118.333333333 142 -110.333333333 142 -101 c 256
 142 -91.6666666667 145.333333333 -83.6666666667 152 -77 c 128
 158.666666667 -70.3333333333 166.666666667 -67 176 -67 c 256
 185.333333333 -67 193.333333333 -70.3333333333 200 -77 c 128
 206.666666667 -83.6666666667 210 -91.6666666667 210 -101 c 256
106 -101 m 256
 106 -110.333333333 102.666666667 -118.333333333 96 -125 c 128
 89.3333333333 -131.666666667 81.3333333333 -135 72 -135 c 256
 62.6666666667 -135 54.6666666667 -131.666666667 48 -125 c 128
 41.3333333333 -118.333333333 38 -110.333333333 38 -101 c 256
 38 -91.6666666667 41.3333333333 -83.6666666667 48 -77 c 128
 54.6666666667 -70.3333333333 62.6666666667 -67 72 -67 c 256
 81.3333333333 -67 89.3333333333 -70.3333333333 96 -77 c 128
 102.666666667 -83.6666666667 106 -91.6666666667 106 -101 c 256
EndSplineSet
EndChar

StartChar: onesuperior
Encoding: 185 185 83
Width: 256
GlyphClass: 1
Flags: HW
LayerCount: 2
Fore
SplineSet
210 -116 m 256
 210 -125.333333333 206.666666667 -133.333333333 200 -140 c 128
 193.333333333 -146.666666667 185.333333333 -150 176 -150 c 256
 166.666666667 -150 158.666666667 -146.666666667 152 -140 c 128
 145.333333333 -133.333333333 142 -125.333333333 142 -116 c 256
 142 -106.666666667 145.333333333 -98.6666666667 152 -92 c 128
 158.666666667 -85.3333333333 166.666666667 -82 176 -82 c 256
 185.333333333 -82 193.333333333 -85.3333333333 200 -92 c 128
 206.666666667 -98.6666666667 210 -106.666666667 210 -116 c 256
106 -236 m 256
 106 -245.333333333 102.666666667 -253.333333333 96 -260 c 128
 89.3333333333 -266.666666667 81.3333333333 -270 72 -270 c 256
 62.6666666667 -270 54.6666666667 -266.666666667 48 -260 c 128
 41.3333333333 -253.333333333 38 -245.333333333 38 -236 c 256
 38 -226.666666667 41.3333333333 -218.666666667 48 -212 c 128
 54.6666666667 -205.333333333 62.6666666667 -202 72 -202 c 256
 81.3333333333 -202 89.3333333333 -205.333333333 96 -212 c 128
 102.666666667 -218.666666667 106 -226.666666667 106 -236 c 256
EndSplineSet
EndChar

StartChar: guillemotright
Encoding: 187 187 84
Width: 512
GlyphClass: 1
Flags: HW
LayerCount: 2
Fore
SplineSet
424 226 m 1
 410.666666667 214 400.333333333 205 393 199 c 0
 381 187.666666667 369 176.666666667 357 166 c 0
 339.666666667 151.333333333 317 130 289 102 c 0
 268.333333333 81.3333333333 257 71 255 71 c 0
 249 71 246 74 246 80 c 0
 246 85.3333333333 252.333333333 97.3333333333 265 116 c 0
 269 122.666666667 274.833333333 131.166666667 282.5 141.5 c 128
 290.166666667 151.833333333 301.333333333 165.666666667 316 183 c 0
 336 207 347 221 349 225 c 1
 311.666666667 274.333333333 292.666666667 299.666666667 292 301 c 0
 262 341.666666667 247 364.333333333 247 369 c 0
 247 375 249.666666667 378 255 378 c 0
 257 378 261.333333333 374.666666667 268 368 c 0
 282.666666667 353.333333333 301.666666667 335.333333333 325 314 c 0
 355.666666667 285.333333333 380.333333333 263.333333333 399 248 c 2
 424 226 l 1
256 226 m 1
 242.666666667 214 232.333333333 205 225 199 c 0
 213 187.666666667 201 176.666666667 189 166 c 0
 171.666666667 151.333333333 149 130 121 102 c 0
 100.333333333 81.3333333333 89 71 87 71 c 0
 81 71 78 74 78 80 c 0
 78 85.3333333333 84.3333333333 97.3333333333 97 116 c 0
 101 122.666666667 106.833333333 131.166666667 114.5 141.5 c 128
 122.166666667 151.833333333 133.333333333 165.666666667 148 183 c 0
 168 207 179 221 181 225 c 1
 143.666666667 274.333333333 124.666666667 299.666666667 124 301 c 0
 94 341.666666667 79 364.333333333 79 369 c 0
 79 375 81.6666666667 378 87 378 c 0
 89 378 93.3333333333 374.666666667 100 368 c 0
 114.666666667 353.333333333 133.666666667 335.333333333 157 314 c 0
 187.666666667 285.333333333 212.333333333 263.333333333 231 248 c 2
 256 226 l 1
EndSplineSet
EndChar

StartChar: onequarter
Encoding: 188 188 85
Width: 118
GlyphClass: 1
Flags: HW
LayerCount: 2
Fore
SplineSet
93 -101 m 256
 93 -110.333333333 89.6666666667 -118.333333333 83 -125 c 128
 76.3333333333 -131.666666667 68.3333333333 -135 59 -135 c 256
 49.6666666667 -135 41.6666666667 -131.666666667 35 -125 c 128
 28.3333333333 -118.333333333 25 -110.333333333 25 -101 c 256
 25 -91.6666666667 28.3333333333 -83.6666666667 35 -77 c 128
 41.6666666667 -70.3333333333 49.6666666667 -67 59 -67 c 256
 68.3333333333 -67 76.3333333333 -70.3333333333 83 -77 c 128
 89.6666666667 -83.6666666667 93 -91.6666666667 93 -101 c 256
EndSplineSet
EndChar

StartChar: Igrave
Encoding: 204 204 86
Width: 440
GlyphClass: 1
Flags: HW
LayerCount: 2
Fore
SplineSet
173 365 m 256
 173 350.333333333 168 338.333333333 158 329 c 128
 148 319.666666667 135.666666667 315 121 315 c 256
 106.333333333 315 94.3333333333 319.833333333 85 329.5 c 128
 75.6666666667 339.166666667 71 351 71 365 c 256
 71 379.666666667 75.8333333333 392 85.5 402 c 128
 95.1666666667 412 107 417 121 417 c 256
 135.666666667 417 148 412 158 402 c 128
 168 392 173 379.666666667 173 365 c 256
EndSplineSet
EndChar

StartChar: Icircumflex
Encoding: 206 206 87
Width: 423
GlyphClass: 1
Flags: HW
LayerCount: 2
Fore
SplineSet
96 454 m 1
 136 563 l 1
 348 563 l 1
 305 454 l 1
 96 454 l 1
EndSplineSet
EndChar

StartChar: Eth
Encoding: 208 208 88
Width: 908
GlyphClass: 1
Flags: HW
LayerCount: 2
Fore
SplineSet
91 212 m 1
 91 250 l 1
 817 250 l 1
 817 212 l 1
 91 212 l 1
EndSplineSet
EndChar

StartChar: Ntilde
Encoding: 209 209 89
Width: 4
GlyphClass: 1
Flags: HW
LayerCount: 2
Fore
SplineSet
17 5 m 1
 -285 5 l 1
 -285 45 l 1
 17 45 l 1
 17 5 l 1
EndSplineSet
EndChar

StartChar: Ograve
Encoding: 210 210 90
Width: 4
GlyphClass: 1
Flags: HW
LayerCount: 2
Fore
SplineSet
270 5 m 5
 -8 5 l 5
 -8 45 l 5
 270 45 l 5
 270 5 l 5
EndSplineSet
EndChar

StartChar: Oacute
Encoding: 211 211 91
Width: 4
GlyphClass: 1
Flags: HW
LayerCount: 2
Fore
SplineSet
26 5 m 1
 -204 5 l 1
 -204 45 l 1
 26 45 l 1
 26 5 l 1
EndSplineSet
EndChar

StartChar: Ocircumflex
Encoding: 212 212 92
Width: 4
GlyphClass: 1
Flags: HW
LayerCount: 2
Fore
SplineSet
162 5 m 1
 -20 5 l 1
 -20 45 l 1
 162 45 l 1
 162 5 l 1
EndSplineSet
EndChar

StartChar: agrave
Encoding: 224 224 93
Width: 840
GlyphClass: 1
Flags: HW
LayerCount: 2
Fore
SplineSet
695 0 m 5
 571 0 l 5
 379 390 l 5
 232 390 l 5
 233 0 l 5
 123 0 l 5
 123 462 l 5
 372 462 l 5
 704 671 l 5
 764 605 l 5
 494 417 l 5
 695 0 l 5
EndSplineSet
EndChar

StartChar: aacute
Encoding: 225 225 94
Width: 800
GlyphClass: 1
Flags: HW
LayerCount: 2
Fore
SplineSet
689 58 m 1
 112 58 l 1
 112 98 l 1
 582 98 l 1
 582 483 l 1
 270 483 l 1
 270 482 270 482 270 366 c 1
 112 366 l 1
 112 519 l 1
 689 519 l 1
 689 58 l 1
EndSplineSet
EndChar

StartChar: acircumflex
Encoding: 226 226 95
Width: 760
GlyphClass: 1
Flags: HW
LayerCount: 2
Fore
SplineSet
324 83 m 1
 324 83.6666666667 283 213.333333333 201 472 c 2
 196.333333333 480.666666667 182.666666667 495.333333333 160 516 c 0
 152.666666667 522.666666667 141 533 125 547 c 1
 126 547 126 547 292 547 c 1
 402 83 l 1
 496 43 l 1
 504 36.3333333333 542.666666667 19.6666666667 612 -7 c 0
 678 -32.3333333333 717.166666667 -46.3333333333 729.5 -49 c 128
 741.833333333 -51.6666666667 755 -54.6666666667 769 -58 c 1
 783 -63.3333333333 790 -73.6666666667 790 -89 c 0
 790 -109 779.333333333 -119.333333333 758 -120 c 0
 708.666666667 -120 646.666666667 -103.333333333 572 -70 c 128
 497.333333333 -36.6666666667 441 1 403 43 c 1
 265 43 l 1
 265 83 l 1
 324 83 l 1
EndSplineSet
EndChar

StartChar: atilde
Encoding: 227 227 96
Width: 864
GlyphClass: 1
Flags: HW
LayerCount: 2
Fore
SplineSet
655 57 m 1
 655 483 l 1
 431 483 l 1
 431 366 l 1
 273 366 l 1
 273 519 l 1
 762 519 l 1
 762 57 l 1
 655 57 l 1
EndSplineSet
EndChar

StartChar: adieresis
Encoding: 228 228 97
Width: 870
GlyphClass: 1
Flags: HW
LayerCount: 2
Fore
SplineSet
114 58 m 1
 114 519 l 1
 758 519 l 1
 758 58 l 1
 647 58 l 1
 647 477 l 1
 495 477 l 1
 495 58 l 1
 383 58 l 1
 383 477 l 1
 228 477 l 1
 228 58 l 1
 114 58 l 1
EndSplineSet
EndChar

StartChar: aring
Encoding: 229 229 98
Width: 644
GlyphClass: 1
Flags: HW
LayerCount: 2
Fore
SplineSet
546 293 m 0
 546 226.333333333 525.333333333 170.5 484 125.5 c 128
 442.666666667 80.5 390.666666667 58 328 58 c 0
 262.666666667 58 207.666666667 79.3333333333 163 122 c 0
 117 166 94 222 94 290 c 0
 94 358.666666667 120.666666667 416.333333333 174 463 c 0
 220 504.333333333 267.666666667 525 317 525 c 0
 372.333333333 525 422.333333333 506.333333333 467 469 c 0
 519.666666667 425 546 366.333333333 546 293 c 0
416 294 m 0
 416 343.333333333 408.666666667 386 394 422 c 0
 375.333333333 466 350 488 318 488 c 0
 291.333333333 488 270.666666667 466 256 422 c 0
 243.333333333 385.333333333 237 342.666666667 237 294 c 256
 237 245.333333333 244 203.666666667 258 169 c 0
 275.333333333 125.666666667 299 104 329 104 c 0
 362.333333333 104 386.333333333 125.333333333 401 168 c 0
 411 198 416 240 416 294 c 0
EndSplineSet
EndChar

StartChar: ae
Encoding: 230 230 99
Width: 402
GlyphClass: 1
Flags: HW
LayerCount: 2
Fore
SplineSet
352 58 m 1
 232 58 l 1
 232 519 l 1
 352 519 l 1
 352 58 l 1
EndSplineSet
EndChar

StartChar: ccedilla
Encoding: 231 231 100
Width: 552
GlyphClass: 1
Flags: HW
LayerCount: 2
Fore
SplineSet
89 58 m 1
 89 519 l 1
 219 519 l 1
 382 163 l 1
 387 163 l 1
 387 519 l 1
 463 519 l 1
 463 58 l 1
 349 58 l 1
 177 423 l 1
 170 423 l 1
 170 58 l 1
 89 58 l 1
EndSplineSet
EndChar

StartChar: egrave
Encoding: 232 232 101
Width: 912
GlyphClass: 1
Flags: HW
LayerCount: 2
Fore
SplineSet
791 40 m 1
 529 -209 l 1
 343 -208 l 1
 267 0 l 1
 205 0 l 1
 205 40 l 1
 253 40 l 1
 168 300 l 1
 152 355.333333333 139.166666667 397 129.5 425 c 0
 105.343098958 494.97265625 69.8430989583 544.97265625 23 575 c 1
 23 588 l 1
 223 588 l 1
 376 40 l 1
 791 40 l 1
640 0 m 1
 389 0 l 1
 389 -0.666666666667 407 -58.3333333333 443 -173 c 1
 455.810546875 -165.8828125 521.477213541 -108.216145833 640 0 c 1
EndSplineSet
EndChar

StartChar: eacute
Encoding: 233 233 102
Width: 520
GlyphClass: 1
Flags: HW
LayerCount: 2
Fore
SplineSet
110 90 m 1
 160 452 l 1
 234 452 l 1
 394 90 l 1
 458 90 l 1
 458 50 l 1
 69 50 l 1
 69 90 l 1
 110 90 l 1
EndSplineSet
EndChar

StartChar: ecircumflex
Encoding: 234 234 103
Width: 868
GlyphClass: 1
Flags: HW
LayerCount: 2
Fore
SplineSet
574 192 m 1
 564.666666667 118.666666667 542.333333333 65.3333333333 507 32 c 0
 473.666666667 1.33333333333 426 -14.3333333333 364 -15 c 0
 306 -15 258 8 220 54 c 0
 185.333333333 95.3333333333 168 141.333333333 168 192 c 2
 168 374 l 1
 252 374 l 1
 252 264 l 2
 252 196 262.666666667 145.333333333 284 112 c 0
 303.333333333 83.3333333333 331.333333333 69 368 69 c 0
 422.666666667 69 460 90.6666666667 480 134 c 0
 493.333333333 163.333333333 500 210.666666667 500 276 c 2
 500 374 l 1
 592 374 l 1
 932 -280 l 1
 932 -290 l 1
 884 -291 l 1
 574 192 l 1
EndSplineSet
EndChar

StartChar: edieresis
Encoding: 235 235 104
Width: 524
GlyphClass: 1
Flags: HW
LayerCount: 2
Fore
SplineSet
437 58 m 1
 76 58 l 1
 76 98 l 1
 333 98 l 1
 334 369 l 2
 334 382.333333333 330.666666667 393.5 324 402.5 c 128
 317.333333333 411.5 308.333333333 416 297 416 c 128
 285.666666667 416 274 411 262 401 c 0
 245.333333333 387 225.333333333 362.666666667 202 328 c 1
 86 328 l 1
 82 333 l 1
 90.6666666667 345 98.6666666667 355.666666667 106 365 c 0
 124.666666667 388.333333333 150 417.333333333 182 452 c 0
 197.333333333 468.666666667 213.666666667 483 231 495 c 0
 256.333333333 512.333333333 278.666666667 521 298 521 c 0
 339.333333333 521 372.833333333 507.333333333 398.5 480 c 0
 424.166666667 453.333333333 437 418.666666667 437 376 c 2
 437 58 l 1
EndSplineSet
EndChar

StartChar: igrave
Encoding: 236 236 105
Width: 628
GlyphClass: 1
Flags: HW
LayerCount: 2
Fore
SplineSet
533 74 m 1
 101 74 l 1
 101 114 l 1
 412 114 l 1
 414 118 l 1
 179 591 l 2
 171 605 158.333333333 619.333333333 141 634 c 0
 133.666666667 640.666666667 120.333333333 650 101 662 c 1
 295 662 l 1
 533 82 l 1
 533 74 l 1
EndSplineSet
EndChar

StartChar: icircumflex
Encoding: 238 238 106
Width: 892
GlyphClass: 1
Flags: HW
LayerCount: 2
Fore
SplineSet
771 58 m 5
 116 58 l 1
 116 98 l 1
 373 98 l 1
 373 476 l 1
 269 476 l 1
 269 369 l 1
 116 369 l 1
 116 519 l 1
 771 519 l 1
 771 58 l 5
658 98 m 1
 658 474 l 1
 487 474 l 1
 487 98 l 1
 658 98 l 1
EndSplineSet
EndChar

StartChar: idieresis
Encoding: 239 239 107
Width: 807
GlyphClass: 1
Flags: HW
LayerCount: 2
Fore
SplineSet
478 27 m 6
 521 -13 l 5
 576.333333333 -57 636 -100 700 -142 c 4
 747.333333333 -173.333333333 799 -205 855 -237 c 4
 889.666666667 -257 934.333333333 -282 989 -312 c 5
 988.333333333 -312 986.666666667 -317.333333333 984 -328 c 5
 908 -300 832.333333333 -272 757 -244 c 4
 659.666666667 -206.666666667 572.333333333 -170.666666667 495 -136 c 4
 398.333333333 -92.6666666667 321.333333333 -52.3333333333 264 -15 c 4
 228.666666667 7.66666666667 201 29.3333333333 181 50 c 4
 155.666666667 76 143.333333333 100.333333333 144 123 c 4
 144 131.666666667 145 139 147 145 c 132
 149 151 153.333333333 158 160 166 c 4
 169.333333333 176.666666667 179.166666667 184.333333333 189.5 189 c 132
 199.833333333 193.666666667 210.666666667 196 222 196 c 4
 248.666666667 196 281 182 319 154 c 4
 341 136 356 124 364 118 c 4
 380.666666667 103.333333333 400 87.3333333333 422 70 c 4
 454.666666667 45.3333333333 473.333333333 31 478 27 c 6
EndSplineSet
EndChar

StartChar: eth
Encoding: 240 240 108
Width: 466
GlyphClass: 1
Flags: HW
LayerCount: 2
Fore
SplineSet
393 479 m 1
 325 479 l 1
 325 58 l 1
 77 58 l 1
 77 98 l 1
 216 98 l 1
 216 480 l 1
 145 480 l 1
 145 519 l 1
 393 519 l 1
 393 479 l 1
EndSplineSet
EndChar

StartChar: ntilde
Encoding: 241 241 109
Width: 935
GlyphClass: 1
Flags: HW
LayerCount: 2
Fore
SplineSet
741 299 m 0
 741 335 733 366.666666667 717 394 c 0
 697.666666667 427.333333333 672.333333333 444 641 444 c 0
 618.333333333 444 597.333333333 432.666666667 578 410 c 0
 562 390.666666667 547.333333333 362 534 324 c 0
 530.666666667 316 527 302.333333333 523 283 c 0
 513.666666667 240.333333333 509 205.666666667 509 179 c 0
 509 154.333333333 514.5 136.833333333 525.5 126.5 c 128
 536.5 116.166666667 553.333333333 111 576 111 c 0
 628 111 669 129.666666667 699 167 c 0
 727 201.666666667 741 245.666666667 741 299 c 0
429 179 m 0
 429 201.666666667 426 228 420 258 c 128
 414 288 408.333333333 310 403 324 c 0
 389.666666667 361.333333333 375 390 359 410 c 0
 341 432.666666667 320.333333333 444 297 444 c 0
 265.666666667 444 240.666666667 427.666666667 222 395 c 0
 205.333333333 366.333333333 197 334.333333333 197 299 c 0
 197 245.666666667 210.666666667 202 238 168 c 0
 268 130 309.333333333 111 362 111 c 0
 384 111 400.666666667 116.333333333 412 127 c 128
 423.333333333 137.666666667 429 155 429 179 c 0
676 58 m 2
 247 58 l 2
 213.666666667 58 182.666666667 82 154 130 c 0
 128.666666667 172 113.666666667 214 109 256 c 0
 108.333333333 262.666666667 107.833333333 268.333333333 107.5 273 c 128
 107.166666667 277.666666667 107 281.333333333 107 284 c 0
 107 333.333333333 118 378 140 418 c 128
 162 458 189.333333333 487.333333333 222 506 c 0
 230.666666667 510.666666667 243.5 514.5 260.5 517.5 c 128
 277.5 520.5 291.666666667 522 303 522 c 0
 331 522 359.666666667 507.333333333 389 478 c 0
 409 457.333333333 428.333333333 430 447 396 c 0
 453.666666667 381.333333333 461 366.666666667 469 352 c 1
 475.666666667 366.666666667 482.666666667 381.333333333 490 396 c 0
 509.333333333 430 529 457.333333333 549 478 c 0
 577.666666667 507.333333333 606 522 634 522 c 0
 653.333333333 522 668.833333333 521 680.5 519 c 128
 692.166666667 517 704 512.666666667 716 506 c 0
 752.666666667 484 780 455.333333333 798 420 c 0
 818 380.666666667 828.333333333 331.333333333 829 272 c 0
 829 236 811.666666667 192 777 140 c 0
 740.333333333 85.3333333333 706.666666667 58 676 58 c 2
EndSplineSet
EndChar

StartChar: ograve
Encoding: 242 242 110
Width: 684
GlyphClass: 1
Flags: HW
LayerCount: 2
Fore
SplineSet
620 58 m 1
 104 58 l 1
 104 98 l 1
 457 98 l 1
 184 370 l 2
 165.333333333 388.666666667 151.333333333 403 142 413 c 0
 116.666666667 441 104 459.666666667 104 469 c 0
 104 489 114 503 134 511 c 0
 146.666666667 516.333333333 164.333333333 519 187 519 c 2
 337 519 l 1
 337 430 l 1
 256 430 l 2
 253.333333333 430 250.833333333 428.833333333 248.5 426.5 c 128
 246.166666667 424.166666667 245 422.333333333 245 421 c 0
 245 418.333333333 273.666666667 389 331 333 c 0
 376.333333333 288.333333333 429.333333333 237 490 179 c 0
 518.666666667 151 547.333333333 123.666666667 576 97 c 2
 620 58 l 1
EndSplineSet
EndChar

StartChar: oacute
Encoding: 243 243 111
Width: 754
GlyphClass: 1
Flags: HW
LayerCount: 2
Fore
SplineSet
156 98 m 1
 142 151.333333333 129.333333333 202 118 250 c 0
 103.333333333 315.333333333 96 355.666666667 96 371 c 0
 96 427.666666667 102.666666667 467.333333333 116 490 c 0
 128 510 145.666666667 519.666666667 169 519 c 2
 516 519 l 2
 532 519 548 499 564 459 c 0
 578.666666667 423 586 393.666666667 586 371 c 0
 586 328.333333333 565.666666667 284.666666667 525 240 c 0
 507 221.333333333 489.333333333 203 472 185 c 1
 464 185 l 1
 428 243 l 1
 442.666666667 265 453.666666667 282 461 294 c 0
 483 331.333333333 494 357.666666667 494 373 c 0
 494 389.666666667 490.333333333 406 483 422 c 128
 475.666666667 438 469.333333333 446 464 446 c 2
 209 446 l 2
 197 446 188.333333333 431.333333333 183 402 c 0
 181 390.666666667 180 380.333333333 180 371 c 0
 180 353.666666667 189.333333333 306.333333333 208 229 c 128
 226.666666667 151.666666667 240 106 248 92 c 1
 260 58 l 1
 65 58 l 1
 65 98 l 1
 156 98 l 1
EndSplineSet
EndChar

StartChar: ocircumflex
Encoding: 244 244 112
Width: 680
GlyphClass: 1
Flags: HW
LayerCount: 2
Fore
SplineSet
585 371 m 0
 585 356.333333333 579 322.666666667 567 270 c 0
 562.333333333 248.666666667 551 201.666666667 533 129 c 0
 526.333333333 105 520 81 514 57 c 1
 420 57 l 1
 106 57 l 1
 106 98 l 1
 433 98 l 1
 441 112.666666667 454.333333333 157.5 473 232.5 c 128
 491.666666667 307.5 501 353.666666667 501 371 c 0
 501 385 499 399.333333333 495 414 c 0
 489.666666667 435.333333333 481.666666667 446 471 446 c 2
 216 446 l 2
 211.333333333 446 205.166666667 437.666666667 197.5 421 c 128
 189.833333333 404.333333333 186 388.333333333 186 373 c 0
 186 361 193.166666667 342.666666667 207.5 318 c 128
 221.833333333 293.333333333 236.666666667 268.333333333 252 243 c 1
 252 239 249.333333333 233 244 225 c 0
 230 205 221 191.666666667 217 185 c 1
 209 185 l 1
 185.666666667 210.333333333 162 236 138 262 c 1
 109.333333333 298.666666667 94.6666666667 335 94 371 c 0
 94 393 101.666666667 423.166666667 117 461.5 c 128
 132.333333333 499.833333333 148 519 164 519 c 2
 511 519 l 2
 541 519 561.666666667 502.666666667 573 470 c 0
 581 446.666666667 585 413.666666667 585 371 c 0
EndSplineSet
EndChar

StartChar: odieresis
Encoding: 246 246 113
Width: 780
GlyphClass: 1
Flags: HW
LayerCount: 2
Fore
SplineSet
675 19 m 1
 328 19 l 1
 398 -2 398 -2 468 -23 c 1
 524 -50.3333333333 552 -93.3333333333 552 -152 c 0
 552 -186 526.333333333 -217 475 -245 c 0
 417.666666667 -276.333333333 346.666666667 -292 262 -292 c 2
 63 -290 l 1
 64 -242 l 1
 243 -242 l 2
 276.333333333 -242 311.333333333 -234.666666667 348 -220 c 0
 401.333333333 -200 428 -172 428 -136 c 0
 428 -90 397.833333333 -52.6666666667 337.5 -24 c 128
 277.166666667 4.66666666667 199 19 103 19 c 1
 103 59 l 1
 294 59 l 1
 360 480 l 1
 459 480 l 1
 675 19 l 1
EndSplineSet
EndChar

StartChar: divide
Encoding: 247 247 114
Width: 660
GlyphClass: 1
Flags: HW
LayerCount: 2
Fore
SplineSet
434 98 m 1
 434 478 l 1
 221 478 l 1
 221 98 l 1
 434 98 l 1
101 58 m 1
 100 519 l 1
 556 519 l 1
 556 58 l 1
 101 58 l 1
EndSplineSet
EndChar

StartChar: oslash
Encoding: 248 248 115
Width: 864
GlyphClass: 1
Flags: HW
LayerCount: 2
Fore
SplineSet
655 80 m 1
 655 506 l 1
 431 506 l 1
 431 390 l 1
 273 390 l 1
 273 542 l 1
 762 542 l 1
 762 80 l 1
 655 80 l 1
525 729 m 256
 539 729 550.833333333 724.166666667 560.5 714.5 c 128
 570.166666667 704.833333333 575 692.666666667 575 678 c 0
 575 664.666666667 570.166666667 653.333333333 560.5 644 c 128
 550.833333333 634.666666667 539 630 525 630 c 0
 511.666666667 630 500 634.666666667 490 644 c 128
 480 653.333333333 475 664.666666667 475 678 c 0
 475 692 479.833333333 704 489.5 714 c 128
 499.166666667 724 511 729 525 729 c 256
EndSplineSet
EndChar

StartChar: ugrave
Encoding: 249 249 116
Width: 742
GlyphClass: 1
Flags: HW
LayerCount: 2
Fore
SplineSet
286 320 m 1
 94 520 l 1
 212 520 l 1
 366 365 l 1
 525 519 l 1
 648 518 l 1
 440 324 l 1
 456 308.666666667 468.333333333 289.333333333 477 266 c 0
 485.666666667 243.333333333 490 222 490 202 c 0
 490 156.666666667 480 120 460 92 c 0
 438 62 406.333333333 47 365 47 c 0
 324.333333333 47 293 62 271 92 c 0
 251 120 241 156.666666667 241 202 c 0
 241 224 244.666666667 245.166666667 252 265.5 c 128
 259.333333333 285.833333333 270.666666667 304 286 320 c 1
EndSplineSet
EndChar

StartChar: uacute
Encoding: 250 250 117
Width: 970
GlyphClass: 1
Flags: HW
LayerCount: 2
Fore
SplineSet
843 294 m 0
 843 226 825.666666667 174 791 138 c 0
 749.666666667 95.3333333333 677.333333333 74 574 74 c 2
 117 74 l 1
 117 134 l 1
 137 202 165.833333333 263 203.5 317 c 128
 241.166666667 371 287 415.666666667 341 451 c 1
 341 451.666666667 295.666666667 522 205 662 c 1
 312 662 l 1
 407 477 l 1
 425 487 436.333333333 492.666666667 441 494 c 0
 477 508.666666667 523.666666667 516 581 516 c 0
 658.333333333 516 720.666666667 497 768 459 c 0
 818 419.666666667 843 364.666666667 843 294 c 0
743 297 m 0
 743 345 725.333333333 381 690 405 c 0
 659.333333333 426.333333333 617.666666667 437 565 437 c 0
 521.666666667 437.666666667 490 435.333333333 470 430 c 0
 468 429.333333333 455.666666667 424 433 414 c 1
 570 137 l 1
 573.333333333 138.333333333 585 138.666666667 605 138 c 0
 651.666666667 138 688 158.666666667 714 200 c 0
 733.333333333 231.333333333 743 263.666666667 743 297 c 0
521 137 m 1
 504 166 504 166 487 195 c 0
 454.333333333 250.333333333 432 288.666666667 420 310 c 0
 389.333333333 362 373.333333333 390 372 394 c 1
 362 394 341.166666667 378 309.5 346 c 128
 277.833333333 314 250 279.333333333 226 242 c 0
 197.333333333 198 182.666666667 163 182 137 c 1
 521 137 l 1
EndSplineSet
EndChar

StartChar: ETX
Encoding: 3 3 118
Width: 746
GlyphClass: 1
Flags: HW
LayerCount: 2
Fore
SplineSet
111 1 m 5
 111 597 l 5
 635 597 l 5
 635 1 l 5
 111 1 l 5
598 37 m 5
 598 561 l 5
 148 561 l 5
 148 37 l 5
 598 37 l 5
EndSplineSet
EndChar

StartChar: ring
Encoding: 730 730 119
Width: 912
GlyphClass: 1
Flags: HW
LayerCount: 2
Fore
SplineSet
791 87 m 1
 529 -162 l 1
 343 -161 l 1
 267 47 l 1
 205 47 l 1
 205 87 l 1
 253 87 l 1
 168 347 l 1
 152 402.333333333 141 438.666666667 135 456 c 0
 121.666666667 494.666666667 107 526.666666667 91 552 c 0
 71.6666666667 582 49 605.333333333 23 622 c 1
 23 635 l 1
 223 635 l 1
 376 87 l 1
 791 87 l 1
640 47 m 1
 389 47 l 1
 389 46.3333333333 407 -11.3333333333 443 -126 c 1
 449 -122.666666667 469.333333333 -105.666666667 504 -75 c 0
 536 -47 565.666666667 -20.3333333333 593 5 c 0
 609 19 624.666666667 33 640 47 c 1
EndSplineSet
EndChar

StartChar: uni0712
Encoding: 1810 1810 120
Width: 757
Flags: HW
HStem: 0 40<80 550> 308 153<80 238> 425 36<238 550>
VStem: 80 158<308 425> 550 107<40 425>
LayerCount: 2
Fore
SplineSet
657 0 m 1
 80 0 l 1
 80 40 l 1
 550 40 l 1
 550 425 l 1
 238 425 l 1
 238 424 238 424 238 308 c 1
 80 308 l 1
 80 461 l 1
 657 461 l 1
 657 0 l 1
EndSplineSet
Substitution2: "'medi' Medial Forms lookup 1-1" uni0712.med
Substitution2: "'fina' Terminal Forms lookup 2-1" uni0712.fin
Substitution2: "'init' Initial Forms lookup 0-1" uni0712.init
EndChar

StartChar: uni0713
Encoding: 1811 1811 121
Width: 760
Flags: HW
HStem: -163 62<614.104 711.495> 0 40<187.5 246.5>
LayerCount: 2
Fore
SplineSet
246.5 40 m 5
 246.5 40.6666666667 205.5 170.333333333 123.5 429 c 6
 118.833333333 437.666666667 105.166666667 452.333333333 82.5 473 c 4
 75.1666666667 479.666666667 63.5 490 47.5 504 c 5
 48.5 504 48.5 504 214.5 504 c 5
 324.5 40 l 5
 418.5 0 l 5
 426.5 -6.66666666667 465.166666667 -23.3333333333 534.5 -50 c 4
 600.5 -75.3333333333 639.666666667 -89.3333333333 652 -92 c 132
 664.333333333 -94.6666666667 677.5 -97.6666666667 691.5 -101 c 5
 705.5 -106.333333333 712.5 -116.666666667 712.5 -132 c 4
 712.5 -152 701.833333333 -162.333333333 680.5 -163 c 4
 631.166666667 -163 569.166666667 -146.333333333 494.5 -113 c 132
 419.833333333 -79.6666666667 363.5 -42 325.5 0 c 5
 187.5 0 l 5
 187.5 40 l 5
 246.5 40 l 5
EndSplineSet
Substitution2: "'medi' Medial Forms lookup 1-1" uni0713.med
Substitution2: "'fina' Terminal Forms lookup 2-1" uni0713.fin
Substitution2: "'init' Initial Forms lookup 0-1" uni0713.init
EndChar

StartChar: uni0712.init
Encoding: 1114113 -1 122
Width: 757
Flags: W
HStem: 0 40<-130 549> 308 153<80 237> 425 36<237 549>
VStem: 80 157<308 425> 549 107<40 425>
AnchorPoint: "curs" -129 0 exit 0
LayerCount: 2
Fore
SplineSet
656 0 m 1xb8
 -130 0 l 1
 -130 40 l 1
 549 40 l 1
 549 425 l 1
 237 425 l 1xb8
 237 424 237 424 237 308 c 1
 80 308 l 1
 80 461 l 1xd8
 656 461 l 1
 656 0 l 1xb8
EndSplineSet
EndChar

StartChar: uni0712.med
Encoding: 1114114 -1 123
Width: 757
Flags: W
HStem: 0 40<-130 549 656 887> 308 153<80 237> 425 36<237 549>
VStem: 80 157<308 425> 549 107<40 425>
AnchorPoint: "curs" -129 0 exit 0
AnchorPoint: "curs" 885 0 entry 0
LayerCount: 2
Fore
SplineSet
887 0 m 1xb8
 -130 0 l 1
 -130 40 l 1
 549 40 l 1
 549 425 l 1
 237 425 l 1xb8
 237 308 l 1
 80 308 l 1
 80 461 l 1xd8
 656 461 l 1
 656 40 l 1
 887 40 l 1
 887 0 l 1xb8
EndSplineSet
EndChar

StartChar: uni0712.fin
Encoding: 1114115 -1 124
Width: 757
Flags: W
HStem: 0 40<80 549 656 887> 308 153<80 237> 425 36<237 549>
VStem: 80 157<308 425> 549 107<40 425>
AnchorPoint: "curs" 885 0 entry 0
LayerCount: 2
Fore
SplineSet
887 0 m 1xb8
 80 0 l 1
 80 40 l 1
 549 40 l 1
 549 425 l 1
 237 425 l 1xb8
 237 308 l 1
 80 308 l 1
 80 461 l 1xd8
 656 461 l 1
 656 40 l 1
 887 40 l 1
 887 0 l 1xb8
EndSplineSet
EndChar

StartChar: uni0713.init
Encoding: 1114116 -1 125
Width: 760
Flags: W
HStem: -163 62<612.912 709.995> 0 40<-130 245>
AnchorPoint: "curs" -128 0 exit 0
LayerCount: 2
Fore
SplineSet
245 40 m 1
 245 40 203 170 122 429 c 2
 120 436 106 450 81 473 c 0
 74 480 62 490 46 504 c 1
 213 504 l 1
 323 40 l 1
 417 0 l 1
 425 -7 464 -23 534 -50 c 0
 600 -75 639 -89 651 -92 c 0
 662 -95 675 -98 690 -101 c 1
 704 -106 711 -117 711 -132 c 0
 711 -152 700 -163 679 -163 c 0
 630 -163 568 -146 494 -113 c 0
 419 -80 361 -42 322 0 c 1
 -130 0 l 1
 -130 40 l 1
 245 40 l 1
EndSplineSet
EndChar

StartChar: uni0713.med
Encoding: 1114117 -1 126
Width: 760
Flags: W
HStem: -163 62<610.284 711.995> 0 40<-130 247 325 345.603 415 890>
AnchorPoint: "curs" -128 0 exit 0
AnchorPoint: "curs" 888 0 entry 0
LayerCount: 2
Fore
SplineSet
890 0 m 1
 415 0 l 1
 510 -40 l 2
 572 -66 615 -82 637 -88 c 0
 659 -93 677 -98 692 -101 c 0
 706 -106 713 -117 713 -132 c 0
 713 -152 702 -163 681 -163 c 0
 635 -163 574 -148 498 -114 c 0
 422 -80 365 -42 326 0 c 1
 -130 0 l 1
 -130 40 l 1
 247 40 l 1
 244 43 203 173 124 429 c 0
 121 438 96 463 48 504 c 1
 48 504 48 504 215 504 c 1
 325 40 l 1
 890 40 l 1
 890 0 l 1
EndSplineSet
EndChar

StartChar: uni0713.fin
Encoding: 1114118 -1 127
Width: 760
Flags: W
HStem: -163 62<610.284 711.995> 0 40<228 247 325 345.603 415 890>
AnchorPoint: "curs" 888 0 entry 0
LayerCount: 2
Fore
SplineSet
890 0 m 1
 415 0 l 1
 510 -40 l 2
 572 -66 615 -82 637 -88 c 0
 659 -93 677 -98 692 -101 c 1
 706 -106 713 -117 713 -132 c 0
 713 -152 702 -163 681 -163 c 0
 635 -163 574 -148 498 -114 c 0
 422 -80 365 -42 326 0 c 1
 326 0 326 0 228 0 c 1
 228 40 l 1
 247 40 l 1
 244 43 203 173 124 429 c 0
 121 438 96 463 48 504 c 1
 48 504 48 504 215 504 c 1
 325 40 l 1
 890 40 l 1
 890 0 l 1
EndSplineSet
EndChar

StartChar: uni0710
Encoding: 1808 1808 128
Width: 800
Flags: HW
LayerCount: 2
Fore
SplineSet
651.5 1 m 5
 527.5 1 l 5
 335.5 391 l 5
 188.5 391 l 5
 189.5 1 l 5
 79.5 1 l 5
 79.5 463 l 5
 328.5 463 l 5
 660.5 672 l 5
 720.5 606 l 5
 450.5 418 l 5
 651.5 1 l 5
EndSplineSet
Substitution2: "'medi' Medial Forms lookup 1-1" uni0710.med
Substitution2: "'init' Initial Forms lookup 0-1" uni0710.init
Substitution2: "'fina' Terminal Forms lookup 2-1" uni0710.fin
EndChar

StartChar: uni0715
Encoding: 1813 1813 129
Width: 648
Flags: HW
HStem: 309 153<80.5 238.5> 426 36<238.5 462.5>
VStem: 80.5 158<309 426> 462.5 107<0 426>
LayerCount: 2
Fore
SplineSet
462.5 0 m 5
 462.5 426 l 5
 238.5 426 l 5
 238.5 309 l 5
 80.5 309 l 5
 80.5 462 l 5
 569.5 462 l 5
 569.5 0 l 5
 462.5 0 l 5
EndSplineSet
Substitution2: "'fina' Terminal Forms lookup 2-1" uni0715.fin
EndChar

StartChar: uni0717
Encoding: 1815 1815 130
Width: 804
Flags: HW
HStem: 419 42<194 349 461 613>
VStem: 80 114<0 419> 349 112<0 419> 613 111<0 419>
LayerCount: 2
Fore
SplineSet
80 0 m 5
 80 461 l 5
 724 461 l 5
 724 0 l 5
 613 0 l 5
 613 419 l 5
 461 419 l 5
 461 0 l 5
 349 0 l 5
 349 419 l 5
 194 419 l 5
 194 0 l 5
 80 0 l 5
EndSplineSet
Substitution2: "'medi' Medial Forms lookup 1-1" uni0717.med
Substitution2: "'fina' Terminal Forms lookup 2-1" uni0717.fin
Substitution2: "'init' Initial Forms lookup 0-1" uni0717.init
EndChar

StartChar: uni0718
Encoding: 1816 1816 131
Width: 612
Flags: HW
HStem: 0 46<269.542 362.567> 430 37<268.061 348.302>
VStem: 80 143<129.068 329.601> 402 130<127.924 337.164>
LayerCount: 2
Fore
SplineSet
532 235 m 4
 532 168.333333333 511.333333333 112.5 470 67.5 c 132
 428.666666667 22.5 376.666666667 0 314 0 c 4
 248.666666667 0 193.666666667 21.3333333333 149 64 c 4
 103 108 80 164 80 232 c 4
 80 300.666666667 106.666666667 358.333333333 160 405 c 4
 206 446.333333333 253.666666667 467 303 467 c 4
 358.333333333 467 408.333333333 448.333333333 453 411 c 4
 505.666666667 367 532 308.333333333 532 235 c 4
402 236 m 4
 402 285.333333333 394.666666667 328 380 364 c 4
 361.333333333 408 336 430 304 430 c 4
 277.333333333 430 256.666666667 408 242 364 c 4
 229.333333333 327.333333333 223 284.666666667 223 236 c 260
 223 187.333333333 230 145.666666667 244 111 c 4
 261.333333333 67.6666666667 285 46 315 46 c 4
 348.333333333 46 372.333333333 67.3333333333 387 110 c 4
 397 140 402 182 402 236 c 4
EndSplineSet
Substitution2: "'medi' Medial Forms lookup 1-1" uni0718.med
Substitution2: "'fina' Terminal Forms lookup 2-1" uni0718.fin
Substitution2: "'init' Initial Forms lookup 0-1" uni0718.init
EndChar

StartChar: uni0719
Encoding: 1817 1817 132
Width: 300
Flags: HW
VStem: 92 120<0 461>
LayerCount: 2
Fore
SplineSet
212 0 m 1
 92 0 l 1
 92 461 l 1
 212 461 l 1
 212 0 l 1
EndSplineSet
Substitution2: "'fina' Terminal Forms lookup 2-1" uni0719.fin
EndChar

StartChar: uni071A
Encoding: 1818 1818 133
Width: 524
Flags: HW
VStem: 80 81<0 365> 378 76<105 461>
LayerCount: 2
Fore
SplineSet
80 0 m 5
 80 461 l 5
 210 461 l 5
 373 105 l 5
 378 105 l 5
 378 461 l 5
 454 461 l 5
 454 0 l 5
 340 0 l 5
 168 365 l 5
 161 365 l 5
 161 0 l 5
 80 0 l 5
EndSplineSet
Substitution2: "'medi' Medial Forms lookup 1-1" uni071A.med
Substitution2: "'fina' Terminal Forms lookup 2-1" uni071A.fin
Substitution2: "'init' Initial Forms lookup 0-1" uni071A.init
EndChar

StartChar: uni071B
Encoding: 1819 1819 134
Width: 870
Flags: HW
HStem: 0 40<205 253 389 640>
LayerCount: 2
Fore
SplineSet
791 40 m 5
 529 -209 l 5
 343 -208 l 5
 267 0 l 5
 205 0 l 5
 205 40 l 5
 253 40 l 5
 168 300 l 5
 152 355.333333333 139.166666667 397 129.5 425 c 4
 105.343098958 494.97265625 69.8430989583 544.97265625 23 575 c 5
 23 588 l 5
 223 588 l 5
 376 40 l 5
 791 40 l 5
640 0 m 5
 389 0 l 5
 389 -0.666666666667 407 -58.3333333333 443 -173 c 5
 455.810546875 -165.8828125 521.477213541 -108.216145833 640 0 c 5
EndSplineSet
Substitution2: "'medi' Medial Forms lookup 1-1" uni071B.med
Substitution2: "'fina' Terminal Forms lookup 2-1" uni071B.fin
Substitution2: "'init' Initial Forms lookup 0-1" uni071B.init
EndChar

StartChar: uni071D
Encoding: 1821 1821 135
Width: 520
Flags: HW
HStem: 0 40<69 110 394 458>
LayerCount: 2
Fore
SplineSet
110 40 m 5
 160 402 l 5
 234 402 l 5
 394 40 l 5
 458 40 l 5
 458 0 l 5
 69 0 l 5
 69 40 l 5
 110 40 l 5
EndSplineSet
Substitution2: "'medi' Medial Forms lookup 1-1" uni071D.med
Substitution2: "'fina' Terminal Forms lookup 2-1" uni071D.fin
Substitution2: "'init' Initial Forms lookup 0-1" uni071D.init
EndChar

StartChar: uni071F
Encoding: 1823 1823 136
Width: 868
Flags: HW
HStem: -14.5 83.5<216.492 357.155>
VStem: 80 84<134.175 374>
LayerCount: 2
Fore
SplineSet
164 264 m 6
 164 134 202.666666667 69 280 69 c 4
 334.666666667 69 372 90.6666666667 392 134 c 4
 405.333333333 163.333333333 412 210.666666667 412 276 c 6
 412 374 l 5
 504 374 l 5
 844 -280 l 5
 844 -290 l 5
 796 -291 l 5
 486 192 l 5
 476.666666667 118.666666667 454.833333333 66 420.5 34 c 132
 386.166666667 2 339 -14.1666666667 279 -14.5 c 132
 219 -14.8333333333 170.833333333 6.83333333333 134.5 50.5 c 132
 98.1666666667 94.1666666667 80 141.333333333 80 192 c 6
 80 374 l 5
 164 374 l 5
 164 264 l 6
EndSplineSet
Substitution2: "'medi' Medial Forms lookup 1-1" uni071F.med
Substitution2: "'fina' Terminal Forms lookup 2-1" uni071F.fin
Substitution2: "'init' Initial Forms lookup 0-1" uni071F.init
EndChar

StartChar: uni0720
Encoding: 1824 1824 137
Width: 598
Flags: HW
HStem: 1 40<80 391>
LayerCount: 2
Fore
SplineSet
512 1 m 5
 80 1 l 5
 80 41 l 5
 391 41 l 5
 393 45 l 5
 158 518 l 5
 144.666666667 541.333333333 118.666666667 565 80 589 c 5
 274 589 l 5
 512 9 l 5
 512 1 l 5
EndSplineSet
Substitution2: "'medi' Medial Forms lookup 1-1" uni0720.med
Substitution2: "'fina' Terminal Forms lookup 2-1" uni0720.fin
Substitution2: "'init' Initial Forms lookup 0-1" uni0720.init
EndChar

StartChar: uni0721
Encoding: 1825 1825 138
Width: 805
Flags: HW
HStem: 1 40<80 337 451 622> 312 150<80 233> 419 43<233 337 451 622>
VStem: 80 153<312 419> 337 114<41 417> 622 113<41 417>
LayerCount: 2
Fore
SplineSet
735 1 m 5
 80 1 l 5
 80 41 l 5
 337 41 l 5
 337 419 l 5
 233 419 l 5
 233 312 l 5
 80 312 l 5
 80 462 l 5
 735 462 l 5
 735 1 l 5
622 41 m 5
 622 417 l 5
 451 417 l 5
 451 41 l 5
 622 41 l 5
EndSplineSet
Substitution2: "'medi' Medial Forms lookup 1-1" uni0721.med
Substitution2: "'fina' Terminal Forms lookup 2-1" uni0721.fin
Substitution2: "'init' Initial Forms lookup 0-1" uni0721.init
EndChar

StartChar: uni0722
Encoding: 1826 1826 139
Width: 807
Flags: HW
LayerCount: 2
Fore
SplineSet
457 -71 m 1
 555.666666667 -149.666666667 667 -224.333333333 791 -295 c 0
 825.666666667 -315 870.333333333 -340 925 -370 c 1
 924.333333333 -370 922.666666667 -375.333333333 920 -386 c 1
 692.666666667 -302 530.215820313 -238.24609375 432.647460938 -194.73828125 c 0
 197.549153646 -88.9127604167 80 -2.33333333333 80 65 c 0
 80 81 85 94.8001302083 95 106.400390625 c 0
 113 127.466796875 135.833333333 138 163.5 138 c 128
 191.166666667 138 221.666666667 124 255 96 c 0
 314.333333333 46.6666666667 352 15.5 368 2.5 c 0
 382.577473959 -9.34440104167 412.244140625 -33.8444010417 457 -71 c 1
EndSplineSet
Substitution2: "'medi' Medial Forms lookup 1-1" uni0722.med
Substitution2: "'fina' Terminal Forms lookup 2-1" uni0722.fin
Substitution2: "'init' Initial Forms lookup 0-1" uni0722.init
EndChar

StartChar: uni0723
Encoding: 1827 1827 140
Width: 881
Flags: HW
HStem: 1 53<250.312 389.176 499.02 633.023> 387 78<214.954 320.572 563.361 668.776>
VStem: 80 90<142.04 332.182> 402 80<69.99 253.148> 714 88<142.031 332.416>
LayerCount: 2
Fore
SplineSet
714 242 m 4
 714 278 705.166666667 311.166666667 687.5 341.5 c 132
 669.833333333 371.833333333 645.333333333 387 614 387 c 4
 570.736979167 387 535.0703125 347 507 267 c 4
 503.666666667 259 498.666666667 239.5 492 208.5 c 132
 485.333333333 177.5 482 149.166666667 482 123.5 c 132
 482 97.8333333333 487.5 79.8333333333 498.5 69.5 c 132
 509.5 59.1666666667 526.333333333 54 549 54 c 4
 601 54 641.5 72 670.5 108 c 132
 699.5 144 714 188.666666667 714 242 c 4
335 54 m 4
 379.666666667 54 402 76.6666666667 402 122 c 4
 402 144.666666667 399 171 393 201 c 4
 379.533203125 268.333333333 359.199869792 319 332 353 c 4
 314 375.666666667 293.333333333 387 270 387 c 4
 238.666666667 387 214.166666667 371.666666667 196.5 341 c 132
 178.833333333 310.333333333 170 277.333333333 170 242 c 4
 170 188.666666667 184.333333333 144 213 108 c 132
 241.666666667 72 282.333333333 54 335 54 c 4
649 1 m 6
 220 1 l 6
 186.666666667 1 156.5 23.5 129.5 68.5 c 4
 96.5 123.5 80 176 80 226 c 132
 80 276 91 321 113 361 c 132
 135 401 162.333333333 430.333333333 195 449 c 4
 203.666666667 453.666666667 216.5 457.5 233.5 460.5 c 132
 250.5 463.5 264.666666667 465 276 465 c 4
 304 465 330.333333333 452.5 355 427.5 c 132
 379.666666667 402.5 401.333333333 373 420 339 c 4
 426.666666667 324.333333333 434 309.666666667 442 295 c 5
 466.76171875 349.475911459 493.428385417 391.475911459 522 421 c 4
 550.666666667 450.333333333 579 465 607 465 c 4
 642.466796875 465 669.800130208 459.666666667 689 449 c 4
 725.666666667 427 753.5 397.333333333 772.5 360 c 132
 791.5 322.666666667 801.333333333 274.333333333 802 215 c 4
 802 179 784.166666667 134.333333333 748.5 81 c 132
 712.833333333 27.6666666667 679.666666667 1 649 1 c 6
EndSplineSet
Substitution2: "'medi' Medial Forms lookup 1-1" uni0723.med
Substitution2: "'fina' Terminal Forms lookup 2-1" uni0723.fin
Substitution2: "'init' Initial Forms lookup 0-1" uni0723.init
EndChar

StartChar: uni0725
Encoding: 1829 1829 141
Width: 676
Flags: HW
HStem: 0 40<80 433> 372 89<221.001 313>
LayerCount: 2
Fore
SplineSet
80 411 m 4
 80 444.333333333 107.666666667 461 163 461 c 6
 313 461 l 5
 313 372 l 5
 232 372 l 6
 229.333333333 372 226.833333333 370.833333333 224.5 368.5 c 132
 222.166666667 366.166666667 221 364 221 362 c 4
 221 357.486979167 302.666666667 277.153645833 466 121 c 4
 494.666666667 93 523.333333333 65.6666666667 552 39 c 5
 596 0 l 5
 80 0 l 5
 80 40 l 5
 433 40 l 5
 160 312 l 6
 141.333333333 330.666666667 123.333333333 349.5 106 368.5 c 132
 88.6666666667 387.5 80 401.666666667 80 411 c 4
EndSplineSet
Substitution2: "'medi' Medial Forms lookup 1-1" uni0725.med
Substitution2: "'fina' Terminal Forms lookup 2-1" uni0725.fin
Substitution2: "'init' Initial Forms lookup 0-1" uni0725.init
EndChar

StartChar: uni0727
Encoding: 1831 1831 142
Width: 680
Flags: HW
HStem: 1 40<80 171> 389 73<203.631 496.975>
VStem: 111 84<200.292 386.322> 509 92<258.23 383.26>
LayerCount: 2
Fore
SplineSet
443 186 m 5
 487 252 509 294.333333333 509 313 c 132
 509 331.666666667 505.333333333 349 498 365 c 132
 490.666666667 381 484.333333333 389 479 389 c 6
 224 389 l 6
 212 389 203.333333333 374.333333333 198 345 c 4
 196 333.666666667 195 321.333333333 195 308 c 132
 195 294.666666667 204.333333333 249.333333333 223 172 c 132
 241.666666667 94.6666666667 255 49 263 35 c 5
 275 1 l 5
 80 1 l 5
 80 41 l 5
 171 41 l 5
 131 193.380859375 111 284.380859375 111 314 c 4
 111 370.666666667 117.333333333 409.666666667 130 431 c 132
 142.666666667 452.333333333 160.666666667 462.666666667 184 462 c 5
 531 462 l 6
 547 462 562.666666667 443 578 405 c 132
 593.333333333 367 601 336.666666667 601 314 c 4
 601 271.333333333 580.666666667 227.666666667 540 183 c 4
 522 164.333333333 504.333333333 146 487 128 c 5
 479 128 l 5
 443 186 l 5
EndSplineSet
Substitution2: "'medi' Medial Forms lookup 1-1" uni0727.med
Substitution2: "'fina' Terminal Forms lookup 2-1" uni0727.fin
Substitution2: "'init' Initial Forms lookup 0-1" uni0727.init
EndChar

StartChar: uni0726
Encoding: 1830 1830 143
Width: 631
Flags: HW
HStem: 0 41<92 427.016> 389 73<184.92 478.361>
VStem: 80 92<261.23 382.451> 487 84<202.057 386.887>
LayerCount: 2
Fore
SplineSet
571 314 m 4
 571 292.6171875 560.666666667 240.938151042 540 158.962890625 c 132
 519.333333333 76.9876302083 506 24 500 0 c 5
 92 0 l 5
 92 41 l 5
 419 41 l 5
 427 55.6666666667 440.333333333 100.5 459 175.5 c 132
 477.666666667 250.5 487 295.833333333 487 311.5 c 132
 487 327.166666667 484.666666667 344 480 362 c 132
 475.333333333 380 467.666666667 389 457 389 c 6
 202 389 l 6
 197.333333333 389 191.166666667 380.666666667 183.5 364 c 132
 175.833333333 347.333333333 172 332.166666667 172 318.5 c 132
 172 304.833333333 179.166666667 285.666666667 193.5 261 c 132
 207.833333333 236.333333333 222.666666667 211.333333333 238 186 c 4
 238 182 233.166666667 173 223.5 159 c 132
 213.833333333 145 207 134.666666667 203 128 c 5
 195 128 l 5
 171.666666667 153.333333333 148 179 124 205 c 5
 95.3333333333 241.666666667 80.6666666667 278 80 314 c 4
 80 336 87.6666666667 366.166666667 103 404.5 c 132
 118.333333333 442.833333333 134 462 150 462 c 6
 497 462 l 6
 527 462 547.666666667 445.666666667 559 413 c 4
 567 389.666666667 571 356.666666667 571 314 c 4
EndSplineSet
Substitution2: "'medi' Medial Forms lookup 1-1" uni0726.med
Substitution2: "'fina' Terminal Forms lookup 2-1" uni0726.fin
Substitution2: "'init' Initial Forms lookup 0-1" uni0726.init
EndChar

StartChar: uni0728
Encoding: 1832 1832 144
Width: 710
Flags: HW
HStem: -310 50<41 324.405> 1 40<80 249.349>
VStem: 405 124<-203.038 -93.5032>
LayerCount: 2
Fore
SplineSet
652 1 m 5
 305 1 l 5
 305 1 305 1 445 -41 c 5
 501 -68.3333333333 529 -111.333333333 529 -170 c 4
 529 -204 501.833333333 -235.833333333 447.5 -265.5 c 132
 393.166666667 -295.166666667 323.666666667 -310 239 -310 c 5
 40 -308 l 5
 41 -260 l 5
 220 -260 l 6
 253.333333333 -260 288.333333333 -252.666666667 325 -238 c 4
 378.333333333 -218 405 -190 405 -154 c 4
 405 -108 374.833333333 -70.6666666667 314.5 -42 c 132
 254.166666667 -13.3333333333 176 1 80 1 c 5
 80 41 l 5
 271 41 l 5
 337 462 l 5
 436 462 l 5
 652 1 l 5
EndSplineSet
Substitution2: "'medi' Medial Forms lookup 1-1" uni0728.med
Substitution2: "'init' Initial Forms lookup 0-1" uni0728.init
Substitution2: "'fina' Terminal Forms lookup 2-1" uni0728.fin
EndChar

StartChar: uni0729
Encoding: 1833 1833 145
Width: 610
Flags: HW
HStem: 0 40<200 413> 420 41<200 413>
VStem: 80 120<40 420> 413 122<40 420>
LayerCount: 2
Fore
SplineSet
413 40 m 5
 413 420 l 5
 200 420 l 5
 200 40 l 5
 413 40 l 5
80 0 m 5
 79 461 l 5
 535 461 l 5
 535 0 l 5
 80 0 l 5
EndSplineSet
Substitution2: "'medi' Medial Forms lookup 1-1" uni0729.med
Substitution2: "'fina' Terminal Forms lookup 2-1" uni0729.fin
Substitution2: "'init' Initial Forms lookup 0-1" uni0729.init
EndChar

StartChar: uni072A
Encoding: 1834 1834 146
Width: 640
Flags: HW
HStem: 310 152<81 239> 426 36<239 463> 550 99<298.47 368.045>
VStem: 81 158<310 426> 283 100<564.439 633.53> 463 107<0 426>
LayerCount: 2
Fore
SplineSet
463 0 m 5
 463 426 l 5
 239 426 l 5
 239 310 l 5
 81 310 l 5
 81 462 l 5
 570 462 l 5
 570 0 l 5
 463 0 l 5
333 649 m 260
 347 649 358.833333333 644.166666667 368.5 634.5 c 132
 378.166666667 624.833333333 383 613 383 599 c 132
 383 585 378.166666667 573.333333333 368.5 564 c 132
 358.833333333 554.666666667 347.166666667 550 333.5 550 c 132
 319.833333333 550 308 554.666666667 298 564 c 132
 288 573.333333333 283 584.833333333 283 598.5 c 132
 283 612.166666667 287.833333333 624 297.5 634 c 132
 307.166666667 644 319 649 333 649 c 260
EndSplineSet
Substitution2: "'medi' Medial Forms lookup 1-1" uni072A.med
Substitution2: "'fina' Terminal Forms lookup 2-1" uni072A.fin
EndChar

StartChar: uni072B
Encoding: 1835 1835 147
Width: 708
Flags: HW
VStem: 221 249<56.2218 235.051>
LayerCount: 2
Fore
SplineSet
470 152 m 4
 470 106.666666667 459.5 69.5 438.5 40.5 c 132
 417.5 11.5 386.5 -3 345.5 -3 c 132
 304.5 -3 273.5 11.5 252.5 40.5 c 132
 231.5 69.5 221 107.173828125 221 153.521484375 c 132
 221 199.869791666 236 238.695963541 266 270 c 5
 74 470 l 5
 192 470 l 5
 346 315 l 5
 505 469 l 5
 628 468 l 5
 420 274 l 5
 436 258.666666667 448.333333333 239.5 457 216.5 c 132
 465.666666667 193.5 470 172 470 152 c 4
EndSplineSet
Substitution2: "'medi' Medial Forms lookup 1-1" uni072B.med
Substitution2: "'fina' Terminal Forms lookup 2-1" uni072B.fin
Substitution2: "'init' Initial Forms lookup 0-1" uni072B.init
EndChar

StartChar: uni072C
Encoding: 1836 1836 148
Width: 886
Flags: HW
HStem: 1 63<145 484 533.162 636.395> 364.5 78.5<404.227 634.222>
VStem: 706 100<140.924 300.692>
LayerCount: 2
Fore
SplineSet
80 61 m 1
 121.382161459 201.698567708 196.048828125 307.365234375 304 378 c 0
 304 378.666666667 258.666666667 449 168 589 c 1
 275 589 l 1
 370 404 l 1
 388 414 399.333333333 419.666666667 404 421 c 0
 440 435.666666667 486.666666667 443 544 443 c 0
 621.333333333 443 684.333333333 423.666666667 733 385 c 128
 781.666666667 346.333333333 806 292.333333333 806 223 c 128
 806 153.666666667 788.666666667 101 754 65 c 0
 712.666666667 22.3333333333 640.333333333 1 537 1 c 2
 80 1 l 1
 80 61 l 1
706 224 m 0
 706 272 688.333333333 308 653 332 c 0
 622.333333333 353.333333333 583 364.166666667 535 364.5 c 128
 487 364.833333333 457.5 363.5 446.5 360.5 c 128
 435.5 357.5 418.666666667 351 396 341 c 1
 533 64 l 1
 536.333333333 65.3333333333 548 65.6666666667 568 65 c 0
 614.666666667 65 651 85.6666666667 677 127 c 0
 696.333333333 158.333333333 706 190.666666667 706 224 c 0
484 64 m 1
 484 64 484 64 442.5 134.5 c 0
 372.820963541 252.870442708 336.987630208 315.037109375 335 321 c 1
 325 321 304.166666667 305 272.5 273 c 128
 240.833333333 241 211.833333333 204.666666667 185.5 164 c 128
 159.166666667 123.333333333 145.666666667 90 145 64 c 1
 484 64 l 1
EndSplineSet
Substitution2: "'medi' Medial Forms lookup 1-1" uni072C.med
Substitution2: "'init' Initial Forms lookup 0-1" uni072C.init
Substitution2: "'fina' Terminal Forms lookup 2-1" uni072C.fin
EndChar

StartChar: uni0308
Encoding: 776 776 149
Width: 0
GlyphClass: 4
Flags: W
HStem: 598 100<53.8382 136.162 199.456 281.5>
VStem: 45 100<607.058 689.102> 190 100<607.459 688.407>
LayerCount: 2
Fore
SplineSet
45 647 m 0
 45 675 66 698 95 698 c 256
 122 698 145 677 145 647 c 0
 145 621 124 598 95 598 c 0
 68 598 45 620 45 647 c 0
190 647 m 0
 190 675 213 698 241 698 c 256
 269 698 290 677 290 647 c 0
 290 621 270 598 241 598 c 0
 215 598 190 619 190 647 c 0
EndSplineSet
EndChar

StartChar: uni0307
Encoding: 775 775 150
Width: 0
GlyphClass: 4
Flags: W
HStem: 598 100<35.4557 117.5>
VStem: 26 100<607.459 688.407>
LayerCount: 2
Fore
SplineSet
26 647 m 0
 26 675 49 698 77 698 c 256
 105 698 126 677 126 647 c 0
 126 621 106 598 77 598 c 0
 51 598 26 619 26 647 c 0
EndSplineSet
EndChar

StartChar: uni0323
Encoding: 803 803 151
Width: 0
GlyphClass: 4
Flags: W
HStem: -182 100<35.4557 117.5>
VStem: 26 100<-172.541 -91.5929>
LayerCount: 2
Fore
SplineSet
26 -133 m 0
 26 -105 49 -82 77 -82 c 256
 105 -82 126 -103 126 -133 c 0
 126 -159 106 -182 77 -182 c 0
 51 -182 26 -161 26 -133 c 0
EndSplineSet
EndChar

StartChar: uni071F.med
Encoding: 1114119 -1 152
Width: 520
Flags: W
HStem: 0 41<-130 334 436 650> 359 105<253.814 325.538>
VStem: 334 103<41 345.531>
AnchorPoint: "curs" -129 0 exit 0
AnchorPoint: "curs" 649 0 entry 0
LayerCount: 2
Fore
SplineSet
650 0 m 1
 -130 0 l 1
 -130 41 l 1
 334 41 l 1
 334 312 l 2
 334 325 331 336 324 346 c 0
 317 354 308 359 297 359 c 0
 286 359 273 353 258 341 c 0
 244 329 225 306 202 271 c 1
 202 271 202 271 86 271 c 1
 82 276 l 1
 105 309 132 341 161 373 c 0
 190 404 216 427 237 442 c 0
 258 457 279 464 298 464 c 0
 339 464 373 450 398 424 c 0
 424 396 437 361 437 319 c 0
 437 226 436 133 436 40 c 1
 650 40 l 1
 650 0 l 1
EndSplineSet
EndChar

StartChar: uni0722.init
Encoding: 1114120 -1 153
Width: 466
Flags: W
HStem: 0 40<-130 186> 422 39<115 186 295 363>
VStem: 186 109<40 421>
AnchorPoint: "curs" -128 0 exit 0
LayerCount: 2
Fore
SplineSet
363 421 m 1
 295 421 l 1
 295 0 l 1
 -130 0 l 1
 -130 40 l 5
 186 40 l 1
 186 422 l 1
 115 422 l 1
 115 461 l 1
 363 461 l 1
 363 421 l 1
EndSplineSet
EndChar

StartChar: uni0710.med
Encoding: 1114121 -1 154
Width: 800
Flags: W
HStem: 0 40<-130 79 632 930> 390 72<188 328>
VStem: 79 109<40 390>
AnchorPoint: "curs" -125 0 exit 0
AnchorPoint: "curs" 924 0 entry 0
LayerCount: 2
Fore
SplineSet
632 40 m 1
 930 40 l 1
 930 0 l 1
 527 0 l 1
 335 390 l 1
 188 390 l 1
 188 0 l 1
 -130 0 l 1
 -130 40 l 1
 79 40 l 1
 79 462 l 1
 328 462 l 1
 660 671 l 1
 720 605 l 1
 450 417 l 1
 632 40 l 1
EndSplineSet
EndChar

StartChar: uni0717.init
Encoding: 1114122 -1 155
Width: 804
Flags: W
HStem: 0 40<-130 80> 418 42<194 349 461 613>
VStem: 80 114<40 418> 349 112<0 418> 613 111<0 418>
AnchorPoint: "curs" -125 1 exit 0
LayerCount: 2
Fore
SplineSet
-130 0 m 1
 -130 40 l 1
 80 40 l 1
 80 40 80 40 80 460 c 1
 724 460 l 1
 724 0 l 1
 613 0 l 1
 613 418 l 1
 461 418 l 1
 461 0 l 1
 349 0 l 1
 349 418 l 1
 194 418 l 1
 194 0 l 1
 -130 0 l 1
EndSplineSet
EndChar

StartChar: uni0717.med
Encoding: 1114123 -1 156
Width: 804
Flags: W
HStem: 0 40<-131 80 724 934> 418 42<194 349 461 613>
VStem: 80 114<40 418> 349 112<0 418> 613 111<40 418>
AnchorPoint: "curs" 931 0 entry 0
AnchorPoint: "curs" -125 0 exit 0
LayerCount: 2
Fore
SplineSet
724 40 m 1
 934 40 l 1
 934 0 l 1
 613 0 l 1
 613 418 l 1
 461 418 l 1
 461 0 l 1
 349 0 l 1
 349 418 l 1
 194 418 l 1
 194 0 l 1
 -131 0 l 1
 -131 40 l 1
 80 40 l 1
 80 40 80 40 80 460 c 1
 724 460 l 1
 724 40 l 1
EndSplineSet
EndChar

StartChar: uni0717.fin
Encoding: 1114124 -1 157
Width: 804
Flags: W
HStem: 0 40<724 934> 419 42<194 349 461 613>
VStem: 80 114<0 419> 349 112<0 419> 613 111<40 419>
AnchorPoint: "curs" 932 0 entry 0
LayerCount: 2
Fore
SplineSet
724 40 m 1
 934 40 l 1
 934 0 l 1
 613 0 l 1
 613 419 l 1
 461 419 l 1
 461 0 l 1
 349 0 l 1
 349 419 l 1
 194 419 l 1
 194 0 l 1
 80 0 l 1
 80 461 l 1
 724 461 l 1
 724 40 l 1
EndSplineSet
EndChar

StartChar: uni0718.med
Encoding: 1114125 -1 158
Width: 612
Flags: W
HStem: 0 47<269.237 361.727> 0 40<-130 177 439 732> 430 37<264.858 347.375>
VStem: 79 143<130.431 329.945> 401 130<131.443 339.276>
AnchorPoint: "curs" 728 0 entry 0
AnchorPoint: "curs" -125 0 exit 0
LayerCount: 2
Fore
SplineSet
306 467 m 0x78
 401 467 531 391 531 240 c 0
 531 170 510 112 469 68 c 0
 460 57 450 48 439 40 c 1
 732 40 l 1
 732 0 l 1
 -130 0 l 1
 -130 40 l 1
 177 40 l 1
 141 65 79 124 79 233 c 0
 79 300 104 355 154 400 c 0
 203 445 254 467 306 467 c 0x78
222 236 m 0
 222 140 252 47 314 47 c 0xb8
 372 47 401 109 401 236 c 0
 401 285 394 328 379 364 c 0
 360 408 335 430 303 430 c 0
 227 430 222 262 222 236 c 0
EndSplineSet
EndChar

StartChar: uni0718.fin
Encoding: 1114126 -1 159
Width: 612
Flags: W
HStem: 0 40<279.573 355.08 440 732> 430 37<267.57 346.823>
VStem: 80 143<129.431 325.886> 402 130<127.321 335.168>
AnchorPoint: "curs" 727 0 entry 0
LayerCount: 2
Fore
SplineSet
304 430 m 0
 231 430 223 271 223 236 c 0
 223 187 230 146 244 111 c 0
 261 68 285 46 315 46 c 0
 373 46 402 109 402 236 c 0
 402 285 395 328 380 364 c 0
 361 408 336 430 304 430 c 0
308 467 m 0
 390 467 532 405 532 229 c 0
 532 152 501 89 440 40 c 1
 732 40 l 1
 732 0 l 1
 314 0 l 2
 190 0 80 87 80 232 c 0
 80 369 203 467 308 467 c 0
EndSplineSet
EndChar

StartChar: uni0718.init
Encoding: 1114127 -1 160
Width: 612
Flags: W
HStem: 0 40<-130 178 278.008 353.527> 430 37<266.077 346.764>
VStem: 80 143<131.001 330.272> 402 130<131.29 337.727>
AnchorPoint: "curs" -125 0 exit 0
LayerCount: 2
Fore
SplineSet
315 46 m 0
 373 46 402 109 402 236 c 0
 402 285 395 328 380 364 c 0
 361 408 336 430 304 430 c 0
 277 430 257 410 244 370 c 0
 230 329 223 285 223 236 c 0
 223 187 230 146 244 111 c 0
 261 68 285 46 315 46 c 0
314 0 m 2
 -130 0 l 1
 -130 40 l 1
 178 40 l 1
 157 54 80 114 80 233 c 0
 80 300 105 355 154 400 c 0
 204 445 255 467 308 467 c 0
 405 467 532 388 532 240 c 0
 532 96 438 0 314 0 c 2
EndSplineSet
EndChar

StartChar: uni071A.init
Encoding: 1114128 -1 161
Width: 524
Flags: W
HStem: 0 41<-130 80>
VStem: 80 81<41 365> 378 76<105 461>
AnchorPoint: "curs" -125 0 exit 0
LayerCount: 2
Fore
SplineSet
-130 0 m 1
 -130 41 l 1
 80 41 l 1
 80 461 l 1
 210 461 l 1
 373 105 l 1
 378 105 l 1
 378 461 l 1
 454 461 l 1
 454 0 l 1
 341 0 l 1
 168 365 l 1
 161 365 l 1
 161 0 l 1
 -130 0 l 1
EndSplineSet
EndChar

StartChar: uni071A.med
Encoding: 1114129 -1 162
Width: 524
Flags: W
HStem: 0 40<-130 80 454 654>
VStem: 80 81<40 365> 378 76<105 461>
AnchorPoint: "curs" -128 0 exit 0
AnchorPoint: "curs" 652 0 entry 0
LayerCount: 2
Fore
SplineSet
340 0 m 2
 340 0 283 122 168 365 c 1
 161 365 l 1
 161 0 l 1
 -130 0 l 1
 -130 40 l 1
 80 40 l 1
 80 461 l 1
 210 461 l 1
 373 105 l 1
 378 105 l 1
 378 461 l 1
 454 461 l 1
 454 40 l 1
 654 40 l 1
 654 0 l 1
 340 0 l 2
EndSplineSet
EndChar

StartChar: uni071A.fin
Encoding: 1114130 -1 163
Width: 524
Flags: W
HStem: 0 40<454 654>
VStem: 80 81<0 365> 378 76<105 461>
AnchorPoint: "curs" 651 0 entry 0
LayerCount: 2
Fore
SplineSet
340 0 m 1
 168 365 l 1
 161 365 l 1
 161 0 l 1
 80 0 l 1
 80 461 l 1
 210 461 l 1
 373 105 l 1
 378 105 l 1
 378 461 l 1
 454 461 l 1
 454 40 l 1
 654 40 l 1
 654 0 l 1
 340 0 l 1
EndSplineSet
EndChar

StartChar: uni071B.init
Encoding: 1114131 -1 164
Width: 870
Flags: W
HStem: 0 40<-130 253 388 639>
AnchorPoint: "curs" -122 0 exit 0
LayerCount: 2
Fore
SplineSet
639 0 m 1
 388 0 l 1
 388 -1 407 -57 443 -172 c 1
 456 -165 520 -108 639 0 c 1
205 0 m 1
 -130 0 l 1
 -130 40 l 1
 205 40 l 1
 253 40 l 1
 168 300 l 1
 128 437 103 523 23 575 c 1
 23 588 l 1
 223 588 l 1
 376 40 l 1
 791 40 l 1
 529 -209 l 1
 343 -209 l 1
 267 0 l 1
 205 0 l 1
EndSplineSet
EndChar

StartChar: uni071B.med
Encoding: 1114132 -1 165
Width: 870
Flags: W
HStem: 0 40<-130 253 389 640 754 1000>
AnchorPoint: "curs" 998 0 entry 0
AnchorPoint: "curs" -127 0 exit 0
LayerCount: 2
Fore
SplineSet
1000 0 m 1
 754 0 l 1
 529 -209 l 1
 343 -209 l 1
 267 0 l 1
 -130 0 l 1
 -130 40 l 1
 253 40 l 1
 176 275 131 421 130 425 c 0
 105 495 70 545 23 575 c 1
 23 588 l 1
 223 588 l 1
 376 40 l 1
 1000 40 l 1
 1000 0 l 1
640 0 m 1
 389 0 l 1
 389 -1 407 -57 443 -172 c 1
 456 -165 521 -108 640 0 c 1
EndSplineSet
EndChar

StartChar: uni071B.fin
Encoding: 1114133 -1 166
Width: 870
Flags: W
HStem: 0 40<204 253 389 640 749 1000>
AnchorPoint: "curs" 998 0 entry 0
LayerCount: 2
Fore
SplineSet
1000 0 m 1
 749 0 l 1
 529 -209 l 1
 343 -209 l 1
 267 0 l 1
 204 0 l 1
 204 40 l 1
 253 40 l 1
 176 275 131 421 130 425 c 0
 105 495 70 545 23 575 c 1
 23 588 l 1
 223 588 l 1
 376 40 l 1
 1000 40 l 1
 1000 0 l 1
640 0 m 1
 389 0 l 1
 389 -1 407 -57 443 -172 c 1
 456 -165 521 -108 640 0 c 1
EndSplineSet
EndChar

StartChar: uni071D.init
Encoding: 1114134 -1 167
Width: 520
Flags: W
HStem: 0 40<-130 110 394 458>
AnchorPoint: "curs" -127 0 exit 0
LayerCount: 2
Fore
SplineSet
110 40 m 1
 160 402 l 1
 234 402 l 1
 394 40 l 1
 458 40 l 1
 458 0 l 1
 -130 0 l 1
 -130 40 l 1
 110 40 l 1
EndSplineSet
EndChar

StartChar: uni071D.med
Encoding: 1114135 -1 168
Width: 520
Flags: W
HStem: 0 40<-130 110 394 650>
AnchorPoint: "curs" -128 0 exit 0
AnchorPoint: "curs" 647 0 entry 0
LayerCount: 2
Fore
SplineSet
110 40 m 1
 160 402 l 1
 234 402 l 1
 394 40 l 1
 650 40 l 1
 650 0 l 1
 -130 0 l 1
 -130 40 l 1
 110 40 l 1
EndSplineSet
EndChar

StartChar: uni071D.fin
Encoding: 1114136 -1 169
Width: 520
Flags: W
HStem: 0 40<69 110 394 650>
AnchorPoint: "curs" 648 0 entry 0
LayerCount: 2
Fore
SplineSet
110 40 m 1
 160 402 l 1
 234 402 l 1
 394 40 l 1
 650 40 l 1
 650 0 l 1
 69 0 l 1
 69 40 l 1
 110 40 l 1
EndSplineSet
EndChar

StartChar: uni071F.init
Encoding: 1114137 -1 170
Width: 520
Flags: W
HStem: 0 40<-130 334> 359 105<255.804 328.509>
VStem: 334 103<40 353.279>
AnchorPoint: "curs" -127 0 exit 0
LayerCount: 2
Fore
SplineSet
298 464 m 0
 382 464 437 404 437 319 c 2
 437 0 l 1
 -130 0 l 1
 -130 40 l 1
 334 40 l 1
 334 312 l 2
 334 314 334 359 297 359 c 0
 265 359 231 313 202 271 c 1
 86 271 l 1
 82 276 l 1
 123 333 189 409 237 442 c 0
 258 457 279 464 298 464 c 0
EndSplineSet
EndChar

StartChar: uni071F.fin
Encoding: 1114138 -1 171
Width: 868
Flags: W
HStem: -14 83<216.511 355.312> 0 40<698 998>
VStem: 80 84<134.175 374>
AnchorPoint: "curs" 992 0 entry 0
LayerCount: 2
Fore
SplineSet
280 69 m 0xa0
 397 69 412 164 412 276 c 2
 412 374 l 1
 504 374 l 1
 677 40 l 1
 998 40 l 1
 998 0 l 1
 698 0 l 1x60
 844 -280 l 1
 844 -290 l 1
 796 -290 l 1
 486 192 l 1
 473 89 433 -14 279 -14 c 0
 219 -14 171 7 134 50 c 0
 98 94 80 141 80 192 c 2
 80 374 l 1
 164 374 l 1
 164 264 l 2
 164 134 203 69 280 69 c 0xa0
EndSplineSet
EndChar

StartChar: uni0710.fin
Encoding: 1114139 -1 172
Width: 800
Flags: W
HStem: 0 40<632 930> 391 72<189 329>
VStem: 80 109<0 391>
AnchorPoint: "curs" 927 0 entry 0
LayerCount: 2
Fore
SplineSet
930 0 m 1
 529 0 l 1
 336 391 l 1
 189 391 l 1
 189 0 l 1
 80 0 l 1
 80 463 l 1
 329 463 l 1
 661 672 l 1
 721 606 l 1
 451 418 l 1
 632 40 l 1
 930 40 l 1
 930 0 l 1
EndSplineSet
EndChar

StartChar: uni200D
Encoding: 8205 8205 173
Width: 817
VWidth: 2048
Flags: HW
HStem: 114 42<324.921 394.769> 431 42<198 305> 435 14G<35.7586 53 784.286 802> 452 27G<5 22.7358 755 772.447> 574 13G<35.4242 53 784.5 802> 590 28G<5 22.551 755 772.143> 628 44<134 239> 753 20G<5 95 147 237 288 378 429 519 571 661 712 802>
VStem: 404 52<161.729 360 431 497.375> 632 58<593.751 672>
LayerCount: 2
Fore
SplineSet
802 767 m 1
 755 712 l 1
 755 724 l 1
 797 773 l 1
 802 773 l 1
 802 767 l 1
787 773 m 1
 748 728 l 1
 738 728 l 1
 777 773 l 1
 787 773 l 1
802 743 m 1
 755 689 l 1
 755 701 l 1
 802 755 l 1
 802 743 l 1
767 773 m 1
 728 728 l 1
 718 728 l 1
 757 773 l 1
 767 773 l 1
802 721 m 1
 773 687 l 1
 763 687 l 1
 802 732 l 1
 802 721 l 1
802 697 m 1
 794 687 l 1
 783 687 l 1
 802 709 l 1
 802 697 l 1
727 773 m 1
 712 755 l 1
 712 768 l 1
 716 773 l 1
 727 773 l 1
747 773 m 1
 712 732 l 1
 712 744 l 1
 737 773 l 1
 747 773 l 1
661 743 m 1
 648 728 l 1
 637 728 l 1
 661 755 l 1
 661 743 l 1
661 766 m 1
 628 728 l 1
 617 728 l 1
 656 773 l 1
 661 773 l 1
 661 766 l 1
661 728 m 1
 657 728 l 1
 661 732 l 1
 661 728 l 1
771 639 m 1
 755 620 l 1
 755 632 l 1
 761 639 l 1
 771 639 l 1
791 639 m 1
 755 597 l 1
 755 608 l 1
 781 639 l 1
 791 639 l 1
802 628 m 1
 755 574 l 1
 755 586 l 1
 801 639 l 1
 802 639 l 1
 802 628 l 1
647 773 m 1
 608 728 l 1
 597 728 l 1
 636 773 l 1
 647 773 l 1
802 605 m 1
 757 554 l 1
 755 554 l 1
 755 562 l 1
 802 617 l 1
 802 605 l 1
627 773 m 1
 588 728 l 1
 577 728 l 1
 616 773 l 1
 627 773 l 1
802 582 m 1
 777 554 l 1
 767 554 l 1
 802 594 l 1
 802 582 l 1
802 559 m 1
 798 554 l 1
 787 554 l 1
 802 571 l 1
 802 559 l 1
586 773 m 1
 571 755 l 1
 571 767 l 1
 576 773 l 1
 586 773 l 1
606 773 m 1
 571 732 l 1
 571 743 l 1
 596 773 l 1
 606 773 l 1
519 743 m 1
 506 728 l 1
 496 728 l 1
 519 755 l 1
 519 743 l 1
519 766 m 1
 486 728 l 1
 476 728 l 1
 515 773 l 1
 519 773 l 1
 519 766 l 1
519 728 m 1
 516 728 l 1
 519 732 l 1
 519 728 l 1
755 505 m 1
 755 504 l 1
 755 505 l 1
775 505 m 1
 755 481 l 1
 755 493 l 1
 765 505 l 1
 775 505 l 1
796 505 m 1
 755 458 l 1
 755 470 l 1
 785 505 l 1
 796 505 l 1
505 773 m 1
 466 728 l 1
 456 728 l 1
 495 773 l 1
 505 773 l 1
802 490 m 1
 755 435 l 1
 755 447 l 1
 802 501 l 1
 802 490 l 1
485 773 m 1
 446 728 l 1
 436 728 l 1
 475 773 l 1
 485 773 l 1
802 466 m 1
 762 420 l 1
 755 420 l 1
 755 424 l 1
 802 479 l 1
 802 466 l 1
802 443 m 1
 782 420 l 1
 771 420 l 1
 802 455 l 1
 802 443 l 1
802 420 m 1
 792 420 l 1
 802 432 l 1
 802 420 l 1
445 773 m 1
 429 755 l 1
 429 767 l 1
 435 773 l 1
 445 773 l 1
465 773 m 1
 429 732 l 1
 429 743 l 1
 455 773 l 1
 465 773 l 1
378 765 m 1
 346 728 l 1
 335 728 l 1
 374 773 l 1
 378 773 l 1
 378 765 l 1
378 742 m 1
 366 728 l 1
 356 728 l 1
 378 754 l 1
 378 742 l 1
378 728 m 1
 376 728 l 1
 378 730 l 1
 378 728 l 1
759 371 m 1
 755 366 l 1
 755 371 l 1
 759 371 l 1
779 371 m 1
 755 343 l 1
 755 355 l 1
 769 371 l 1
 779 371 l 1
800 371 m 1
 755 319 l 1
 755 332 l 1
 789 371 l 1
 800 371 l 1
365 773 m 1
 326 728 l 1
 315 728 l 1
 354 773 l 1
 365 773 l 1
802 351 m 1
 755 297 l 1
 755 308 l 1
 802 363 l 1
 802 351 l 1
345 773 m 1
 306 728 l 1
 295 728 l 1
 334 773 l 1
 345 773 l 1
802 328 m 1
 766 286 l 1
 755 286 l 1
 802 340 l 1
 802 328 l 1
802 305 m 1
 786 286 l 1
 775 286 l 1
 802 317 l 1
 802 305 l 1
802 286 m 1
 796 286 l 1
 802 294 l 1
 802 286 l 1
305 773 m 1
 288 754 l 1
 288 766 l 1
 294 773 l 1
 305 773 l 1
325 773 m 1
 288 730 l 1
 288 743 l 1
 314 773 l 1
 325 773 l 1
438 493 m 1
 441.333333333 513 449 542 461 580 c 128
 473 618 480.666666667 648.666666667 484 672 c 1
 544 672 l 1
 544 662.666666667 547 646.333333333 553 623 c 0
 565.666666667 582.333333333 578 538.333333333 590 491 c 1
 590.666666667 503.666666667 598.333333333 533.666666667 613 581 c 0
 624.333333333 614.333333333 630.666666667 644.666666667 632 672 c 1
 690 672 l 1
 690 656.666666667 681.666666667 627 665 583 c 0
 637 509 620 458.333333333 614 431 c 1
 558 431 l 1
 558 444.333333333 553.666666667 463 545 487 c 0
 523 549 510.666666667 588 508 604 c 1
 504.666666667 582 499 560 491 538 c 2
 470 473 l 2
 466.666666667 462.333333333 464 448.333333333 462 431 c 1
 406 431 l 1
 404.666666667 446.333333333 396.333333333 476 381 520 c 0
 377.666666667 528.666666667 373 540.833333333 367 556.5 c 128
 361 572.166666667 356.333333333 584.5 353 593.5 c 128
 349.666666667 602.5 345.833333333 614.166666667 341.5 628.5 c 128
 337.166666667 642.833333333 333.333333333 657.333333333 330 672 c 1
 395 672 l 1
 396.333333333 656 399.333333333 640.333333333 404 625 c 0
 415.333333333 588.333333333 426.666666667 544.333333333 438 493 c 1
237 764 m 1
 205 728 l 1
 195 728 l 1
 234 773 l 1
 237 773 l 1
 237 764 l 1
237 741 m 1
 225 728 l 1
 215 728 l 1
 237 753 l 1
 237 741 l 1
237 728 m 1
 235 728 l 1
 237 730 l 1
 237 728 l 1
764 238 m 1
 755 227 l 1
 755 238 l 1
 764 238 l 1
784 238 m 1
 755 204 l 1
 755 216 l 1
 773 238 l 1
 784 238 l 1
802 235 m 1
 755 181 l 1
 755 193 l 1
 794 238 l 1
 802 238 l 1
 802 235 l 1
224 773 m 1
 185 728 l 1
 175 728 l 1
 214 773 l 1
 224 773 l 1
802 212 m 1
 755 158 l 1
 755 170 l 1
 802 224 l 1
 802 212 l 1
204 773 m 1
 165 728 l 1
 155 728 l 1
 194 773 l 1
 204 773 l 1
802 189 m 1
 770 153 l 1
 760 153 l 1
 802 201 l 1
 802 189 l 1
802 166 m 1
 790 153 l 1
 780 153 l 1
 802 178 l 1
 802 166 l 1
802 153 m 1
 800 153 l 1
 802 155 l 1
 802 153 l 1
164 773 m 1
 147 753 l 1
 147 765 l 1
 154 773 l 1
 164 773 l 1
184 773 m 1
 147 730 l 1
 147 741 l 1
 174 773 l 1
 184 773 l 1
95 763 m 1
 65 728 l 1
 54 728 l 1
 93 773 l 1
 95 773 l 1
 95 763 l 1
95 740 m 1
 85 728 l 1
 75 728 l 1
 95 752 l 1
 95 740 l 1
95 728 m 1
 95 729 l 1
 95 728 l 1
768 104 m 1
 755 89 l 1
 755 101 l 1
 757 104 l 1
 768 104 l 1
788 104 m 1
 755 66 l 1
 755 77 l 1
 777 104 l 1
 788 104 l 1
802 74 m 1
 754 19 l 1
 744 19 l 1
 802 86 l 1
 802 74 l 1
802 97 m 1
 734 19 l 1
 724 19 l 1
 798 104 l 1
 802 104 l 1
 802 97 l 1
802 51 m 1
 774 19 l 1
 764 19 l 1
 802 63 l 1
 802 51 l 1
802 28 m 1
 794 19 l 1
 784 19 l 1
 802 40 l 1
 802 28 l 1
24 773 m 1
 5 752 l 1
 5 764 l 1
 13 773 l 1
 24 773 l 1
44 773 m 1
 5 729 l 1
 5 741 l 1
 33 773 l 1
 44 773 l 1
84 773 m 1
 10 687 l 1
 5 687 l 1
 5 694 l 1
 73 773 l 1
 84 773 l 1
64 773 m 1
 5 706 l 1
 5 717 l 1
 53 773 l 1
 64 773 l 1
307 477 m 1
 305 431 l 1
 130 431 l 1
 133 472 l 1
 149.666666667 493.333333333 170.666666667 522.333333333 196 559 c 128
 221.333333333 595.666666667 235.666666667 620 239 632 c 1
 203.666666667 632 168.333333333 630.666666667 133 628 c 1
 134 672 l 1
 303 672 l 1
 300 632 l 1
 239 551 205 498 198 473 c 1
 230.666666667 473 267 474.333333333 307 477 c 1
53 714 m 1
 30 687 l 1
 20 687 l 1
 53 726 l 1
 53 714 l 1
53 691 m 1
 50 687 l 1
 40 687 l 1
 53 703 l 1
 53 691 l 1
713 64 m 1
 712 63 l 1
 712 64 l 1
 713 64 l 1
733 64 m 1
 712 40 l 1
 712 52 l 1
 722 64 l 1
 733 64 l 1
753 64 m 1
 714 19 l 1
 712 19 l 1
 712 28 l 1
 743 64 l 1
 753 64 l 1
661 50 m 1
 634 19 l 1
 623 19 l 1
 661 62 l 1
 661 50 l 1
661 27 m 1
 654 19 l 1
 643 19 l 1
 661 39 l 1
 661 27 l 1
7 639 m 1
 5 636 l 1
 5 639 l 1
 7 639 l 1
28 639 m 1
 5 613 l 1
 5 625 l 1
 18 639 l 1
 28 639 l 1
48 639 m 1
 5 590 l 1
 5 602 l 1
 38 639 l 1
 48 639 l 1
653 64 m 1
 614 19 l 1
 603 19 l 1
 642 64 l 1
 653 64 l 1
53 622 m 1
 5 567 l 1
 5 579 l 1
 53 634 l 1
 53 622 l 1
633 64 m 1
 594 19 l 1
 583 19 l 1
 622 64 l 1
 633 64 l 1
53 599 m 1
 14 554 l 1
 5 554 l 1
 5 556 l 1
 53 610 l 1
 53 599 l 1
53 575 m 1
 34 554 l 1
 24 554 l 1
 53 587 l 1
 53 575 l 1
353 156 m 0
 372.333333333 156 385.666666667 161.166666667 393 171.5 c 128
 400.333333333 181.833333333 404 198.333333333 404 221 c 0
 404 277.666666667 403 324 401 360 c 1
 458 360 l 1
 456.666666667 334.666666667 456 289.333333333 456 224 c 0
 456 150.666666667 423.333333333 114 358 114 c 0
 350 114 338 115.333333333 322 118 c 1
 325 162 l 1
 335 158 344.333333333 156 353 156 c 0
53 554 m 1
 44 554 l 1
 53 564 l 1
 53 554 l 1
572 64 m 1
 571 62 l 1
 571 64 l 1
 572 64 l 1
592 64 m 1
 571 39 l 1
 571 51 l 1
 582 64 l 1
 592 64 l 1
612 64 m 1
 574 19 l 1
 571 19 l 1
 571 28 l 1
 602 64 l 1
 612 64 l 1
519 50 m 1
 492 19 l 1
 482 19 l 1
 519 62 l 1
 519 50 l 1
519 27 m 1
 513 19 l 1
 502 19 l 1
 519 39 l 1
 519 27 l 1
12 505 m 1
 5 498 l 1
 5 505 l 1
 12 505 l 1
32 505 m 1
 5 475 l 1
 5 487 l 1
 22 505 l 1
 32 505 l 1
52 505 m 1
 5 452 l 1
 5 464 l 1
 42 505 l 1
 52 505 l 1
511 64 m 1
 472 19 l 1
 462 19 l 1
 501 64 l 1
 511 64 l 1
53 483 m 1
 5 428 l 1
 5 441 l 1
 53 495 l 1
 53 483 l 1
491 64 m 1
 452 19 l 1
 442 19 l 1
 481 64 l 1
 491 64 l 1
53 460 m 1
 18 420 l 1
 8 420 l 1
 53 472 l 1
 53 460 l 1
53 437 m 1
 38 420 l 1
 28 420 l 1
 53 449 l 1
 53 437 l 1
53 420 m 1
 48 420 l 1
 53 426 l 1
 53 420 l 1
431 64 m 1
 429 62 l 1
 429 64 l 1
 431 64 l 1
451 64 m 1
 429 39 l 1
 429 51 l 1
 441 64 l 1
 451 64 l 1
471 64 m 1
 432 19 l 1
 429 19 l 1
 429 28 l 1
 461 64 l 1
 471 64 l 1
378 49 m 1
 352 19 l 1
 341 19 l 1
 378 61 l 1
 378 49 l 1
378 26 m 1
 372 19 l 1
 362 19 l 1
 378 38 l 1
 378 26 l 1
16 371 m 1
 5 359 l 1
 5 371 l 1
 16 371 l 1
36 371 m 1
 5 336 l 1
 5 348 l 1
 26 371 l 1
 36 371 l 1
53 368 m 1
 5 313 l 1
 5 325 l 1
 46 371 l 1
 53 371 l 1
 53 368 l 1
371 64 m 1
 332 19 l 1
 321 19 l 1
 360 64 l 1
 371 64 l 1
53 344 m 1
 5 290 l 1
 5 302 l 1
 53 357 l 1
 53 344 l 1
351 64 m 1
 312 19 l 1
 301 19 l 1
 340 64 l 1
 351 64 l 1
53 321 m 1
 22 286 l 1
 12 286 l 1
 53 333 l 1
 53 321 l 1
53 298 m 1
 42 286 l 1
 32 286 l 1
 53 310 l 1
 53 298 l 1
53 286 m 1
 52 286 l 1
 53 287 l 1
 53 286 l 1
291 64 m 1
 288 61 l 1
 288 64 l 1
 291 64 l 1
311 64 m 1
 288 38 l 1
 288 50 l 1
 300 64 l 1
 311 64 l 1
331 64 m 1
 292 19 l 1
 288 19 l 1
 288 27 l 1
 320 64 l 1
 331 64 l 1
237 48 m 1
 211 19 l 1
 201 19 l 1
 237 60 l 1
 237 48 l 1
237 25 m 1
 231 19 l 1
 221 19 l 1
 237 37 l 1
 237 25 l 1
20 238 m 1
 5 221 l 1
 5 233 l 1
 10 238 l 1
 20 238 l 1
40 238 m 1
 5 198 l 1
 5 210 l 1
 30 238 l 1
 40 238 l 1
230 64 m 1
 191 19 l 1
 181 19 l 1
 220 64 l 1
 230 64 l 1
53 229 m 1
 5 175 l 1
 5 186 l 1
 50 238 l 1
 53 238 l 1
 53 229 l 1
210 64 m 1
 171 19 l 1
 161 19 l 1
 200 64 l 1
 210 64 l 1
53 206 m 1
 6 153 l 1
 5 153 l 1
 5 163 l 1
 53 218 l 1
 53 206 l 1
53 183 m 1
 26 153 l 1
 16 153 l 1
 53 195 l 1
 53 183 l 1
53 160 m 1
 46 153 l 1
 36 153 l 1
 53 172 l 1
 53 160 l 1
150 64 m 1
 147 60 l 1
 147 64 l 1
 150 64 l 1
190 64 m 1
 151 19 l 1
 147 19 l 1
 147 26 l 1
 180 64 l 1
 190 64 l 1
170 64 m 1
 147 37 l 1
 147 49 l 1
 160 64 l 1
 170 64 l 1
95 47 m 1
 71 19 l 1
 60 19 l 1
 95 59 l 1
 95 47 l 1
95 24 m 1
 91 19 l 1
 81 19 l 1
 95 36 l 1
 95 24 l 1
24 104 m 1
 5 82 l 1
 5 94 l 1
 14 104 l 1
 24 104 l 1
44 104 m 1
 5 59 l 1
 5 71 l 1
 34 104 l 1
 44 104 l 1
90 64 m 1
 51 19 l 1
 40 19 l 1
 79 64 l 1
 90 64 l 1
53 90 m 1
 5 36 l 1
 5 48 l 1
 53 102 l 1
 53 90 l 1
70 64 m 1
 31 19 l 1
 20 19 l 1
 59 64 l 1
 70 64 l 1
53 67 m 1
 11 19 l 1
 5 19 l 1
 5 25 l 1
 53 79 l 1
 53 67 l 1
EndSplineSet
EndChar

StartChar: uni200C
Encoding: 8204 8204 174
Width: 797
VWidth: 2048
Flags: HW
HStem: 103 43<471.47 539.182> 431 45<196 303> 438 13G<36.3333 53 774.243 791> 454 28G<6 22.4286 744 760.786> 558 37G<36.4286 53 776 791> 598 4G<6 22.7347 744 760.491> 638 46<132 236> 768 20G<6 94 145 234 284 373 423 512 563 651 702 791> 770 21G<423 439 563 578 702 717>
VStem: 178 61<316.849 359> 178 50<108 292> 334 52<262 359> 341 42<108 135.732 183 357.591> 548 52<152.096 359 431 497.844> 623 58<596.544 684>
LayerCount: 2
Fore
SplineSet
791 782 m 1
 744 725 l 1
 744 737 l 1
 785 788 l 1
 791 788 l 1
 791 782 l 1
776 788 m 1
 738 741 l 1
 727 741 l 1
 766 788 l 1
 776 788 l 1
791 758 m 1
 744 701 l 1
 744 714 l 1
 791 770 l 1
 791 758 l 1
756 788 m 1
 718 741 l 1
 707 741 l 1
 746 788 l 1
 756 788 l 1
791 734 m 1
 762 700 l 1
 752 700 l 1
 791 746 l 1
 791 734 l 1
791 710 m 1
 782 700 l 1
 772 700 l 1
 791 722 l 1
 791 710 l 1
717 788 m 1
 702 770 l 1
 702 783 l 1
 706 788 l 1
 717 788 l 1
736 788 m 1
 702 746 l 1
 702 759 l 1
 726 788 l 1
 736 788 l 1
651 757 m 1
 639 741 l 1
 628 741 l 1
 651 770 l 1
 651 757 l 1
651 781 m 1
 619 741 l 1
 609 741 l 1
 647 788 l 1
 651 788 l 1
 651 781 l 1
651 741 m 1
 648 741 l 1
 651 745 l 1
 651 741 l 1
760 649 m 1
 744 629 l 1
 744 641 l 1
 750 649 l 1
 760 649 l 1
780 647 m 1
 744 605 l 1
 744 617 l 1
 770 647 l 1
 780 647 l 1
791 638 m 1
 744 581 l 1
 744 594 l 1
 790 647 l 1
 791 647 l 1
 791 638 l 1
637 788 m 1
 599 741 l 1
 589 741 l 1
 627 788 l 1
 637 788 l 1
791 614 m 1
 747 560 l 1
 744 560 l 1
 744 569 l 1
 791 626 l 1
 791 614 l 1
618 788 m 1
 579 741 l 1
 569 741 l 1
 607 788 l 1
 618 788 l 1
791 590 m 1
 766 560 l 1
 756 560 l 1
 791 602 l 1
 791 590 l 1
791 565 m 1
 786 560 l 1
 776 560 l 1
 791 578 l 1
 791 565 l 1
578 788 m 1
 563 770 l 1
 563 782 l 1
 568 788 l 1
 578 788 l 1
598 788 m 1
 563 745 l 1
 563 758 l 1
 588 788 l 1
 598 788 l 1
512 757 m 1
 499 741 l 1
 489 741 l 1
 512 770 l 1
 512 757 l 1
512 781 m 1
 480 741 l 1
 469 741 l 1
 508 788 l 1
 512 788 l 1
 512 781 l 1
512 741 m 1
 509 741 l 1
 512 745 l 1
 512 741 l 1
745 510 m 1
 744 509 l 1
 744 510 l 1
 745 510 l 1
764 510 m 1
 744 485 l 1
 744 497 l 1
 754 510 l 1
 764 510 l 1
784 510 m 1
 744 461 l 1
 744 473 l 1
 774 510 l 1
 784 510 l 1
498 788 m 1
 460 741 l 1
 450 741 l 1
 488 788 l 1
 498 788 l 1
791 493 m 1
 744 437 l 1
 744 449 l 1
 791 506 l 1
 791 493 l 1
478 788 m 1
 440 741 l 1
 430 741 l 1
 468 788 l 1
 478 788 l 1
791 469 m 1
 751 421 l 1
 744 421 l 1
 744 425 l 1
 791 482 l 1
 791 469 l 1
791 445 m 1
 771 421 l 1
 760 421 l 1
 791 458 l 1
 791 445 l 1
791 421 m 1
 780 421 l 1
 791 434 l 1
 791 421 l 1
439 788 m 1
 423 770 l 1
 423 782 l 1
 429 788 l 1
 439 788 l 1
459 788 m 1
 423 745 l 1
 423 758 l 1
 448 788 l 1
 459 788 l 1
373 780 m 1
 341 741 l 1
 331 741 l 1
 369 788 l 1
 373 788 l 1
 373 780 l 1
373 756 m 1
 361 741 l 1
 351 741 l 1
 373 768 l 1
 373 756 l 1
373 741 m 1
 371 741 l 1
 373 744 l 1
 373 741 l 1
749 370 m 1
 744 365 l 1
 744 370 l 1
 749 370 l 1
768 370 m 1
 744 340 l 1
 744 353 l 1
 758 370 l 1
 768 370 l 1
788 370 m 1
 744 316 l 1
 744 329 l 1
 778 370 l 1
 788 370 l 1
360 788 m 1
 321 741 l 1
 311 741 l 1
 350 788 l 1
 360 788 l 1
791 349 m 1
 744 293 l 1
 744 305 l 1
 791 362 l 1
 791 349 l 1
340 788 m 1
 302 741 l 1
 291 741 l 1
 330 788 l 1
 340 788 l 1
791 325 m 1
 755 282 l 1
 745 282 l 1
 791 338 l 1
 791 325 l 1
791 301 m 1
 775 282 l 1
 764 282 l 1
 791 314 l 1
 791 301 l 1
791 282 m 1
 784 282 l 1
 791 289 l 1
 791 282 l 1
300 788 m 1
 284 768 l 1
 284 781 l 1
 290 788 l 1
 300 788 l 1
320 788 m 1
 284 744 l 1
 284 757 l 1
 310 788 l 1
 320 788 l 1
681 684 m 1
 681 674.666666667 678.5 660.833333333 673.5 642.5 c 128
 668.5 624.166666667 663.333333333 607.666666667 658 593 c 128
 652.666666667 578.333333333 645.5 559.333333333 636.5 536 c 128
 627.5 512.666666667 622.333333333 499 621 495 c 0
 617.666666667 486.333333333 612.333333333 465 605 431 c 1
 550 431 l 1
 550 445 546 465 538 491 c 0
 516.666666667 554.333333333 504.333333333 595 501 613 c 1
 497.666666667 590.333333333 492 567.333333333 484 544 c 2
 464 476 l 2
 461.333333333 468.666666667 458.333333333 453.666666667 455 431 c 1
 400 431 l 1
 400 446.333333333 392 477.666666667 376 525 c 0
 348 605 331 658 325 684 c 1
 390 684 l 1
 390 669.333333333 393 653 399 635 c 0
 413 581.666666667 424 535.666666667 432 497 c 1
 435.333333333 518.333333333 440.666666667 541.333333333 448 566 c 2
 468 634 l 2
 472.666666667 650 476 666.666666667 478 684 c 1
 536 684 l 1
 536 672 539.333333333 655 546 633 c 0
 566 555 577.666666667 509 581 495 c 1
 583 514.333333333 591 545.666666667 605 589 c 0
 617 629 623 660.666666667 623 684 c 1
 681 684 l 1
234 779 m 1
 203 741 l 1
 193 741 l 1
 231 788 l 1
 234 788 l 1
 234 779 l 1
234 755 m 1
 223 741 l 1
 212 741 l 1
 234 768 l 1
 234 755 l 1
234 741 m 1
 232 741 l 1
 234 743 l 1
 234 741 l 1
753 231 m 1
 744 220 l 1
 744 231 l 1
 753 231 l 1
773 231 m 1
 744 196 l 1
 744 209 l 1
 762 231 l 1
 773 231 l 1
791 229 m 1
 744 172 l 1
 744 185 l 1
 782 231 l 1
 791 231 l 1
 791 229 l 1
221 788 m 1
 183 741 l 1
 173 741 l 1
 211 788 l 1
 221 788 l 1
791 205 m 1
 744 148 l 1
 744 160 l 1
 791 217 l 1
 791 205 l 1
202 788 m 1
 163 741 l 1
 153 741 l 1
 191 788 l 1
 202 788 l 1
791 181 m 1
 759 143 l 1
 749 143 l 1
 791 193 l 1
 791 181 l 1
791 157 m 1
 779 143 l 1
 769 143 l 1
 791 169 l 1
 791 157 l 1
791 143 m 1
 789 143 l 1
 791 145 l 1
 791 143 l 1
162 788 m 1
 145 768 l 1
 145 780 l 1
 152 788 l 1
 162 788 l 1
182 788 m 1
 145 743 l 1
 145 756 l 1
 172 788 l 1
 182 788 l 1
94 778 m 1
 64 741 l 1
 54 741 l 1
 92 788 l 1
 94 788 l 1
 94 778 l 1
94 754 m 1
 84 741 l 1
 74 741 l 1
 94 766 l 1
 94 754 l 1
94 741 m 1
 94 742 l 1
 94 741 l 1
757 92 m 1
 744 76 l 1
 744 88 l 1
 747 92 l 1
 757 92 l 1
777 92 m 1
 744 52 l 1
 744 64 l 1
 766 92 l 1
 777 92 l 1
791 61 m 1
 743 3 l 1
 733 3 l 1
 791 73 l 1
 791 61 l 1
791 85 m 1
 724 3 l 1
 713 3 l 1
 786 92 l 1
 791 92 l 1
 791 85 l 1
791 37 m 1
 763 3 l 1
 753 3 l 1
 791 49 l 1
 791 37 l 1
791 13 m 1
 783 3 l 1
 773 3 l 1
 791 25 l 1
 791 13 l 1
24 788 m 1
 6 766 l 1
 6 779 l 1
 13 788 l 1
 24 788 l 1
43 788 m 1
 6 743 l 1
 6 755 l 1
 33 788 l 1
 43 788 l 1
83 788 m 1
 10 698 l 1
 6 698 l 1
 6 707 l 1
 73 788 l 1
 83 788 l 1
63 788 m 1
 6 719 l 1
 6 731 l 1
 53 788 l 1
 63 788 l 1
303 480 m 1
 303 431 l 1
 131 431 l 1
 131 475 l 1
 146.333333333 495.666666667 166.833333333 525.5 192.5 564.5 c 128
 218.166666667 603.5 232.666666667 629.333333333 236 642 c 1
 226.666666667 642 210.5 641.333333333 187.5 640 c 128
 164.5 638.666666667 146 638 132 638 c 1
 132 684 l 1
 299 684 l 1
 299 641 l 1
 235.666666667 553 201.333333333 498 196 476 c 1
 203.333333333 476 218.833333333 476.666666667 242.5 478 c 128
 266.166666667 479.333333333 286.333333333 480 303 480 c 1
499 146 m 0
 517.666666667 146 530.5 151.333333333 537.5 162 c 128
 544.5 172.666666667 548 189.666666667 548 213 c 0
 548 235 547.666666667 262.166666667 547 294.5 c 128
 546.333333333 326.833333333 546 348.333333333 546 359 c 1
 602 359 l 1
 602 347 601.666666667 325.166666667 601 293.5 c 128
 600.333333333 261.833333333 600 236.333333333 600 217 c 0
 600 141 567.666666667 103 503 103 c 0
 492.333333333 103 481.666666667 104.333333333 471 107 c 1
 471 153 l 1
 480.333333333 148.333333333 489.666666667 146 499 146 c 0
53 727 m 1
 30 698 l 1
 20 698 l 1
 53 739 l 1
 53 727 l 1
53 703 m 1
 50 698 l 1
 39 698 l 1
 53 715 l 1
 53 703 l 1
703 50 m 1
 702 49 l 1
 702 50 l 1
 703 50 l 1
723 50 m 1
 702 25 l 1
 702 37 l 1
 712 50 l 1
 723 50 l 1
742 50 m 1
 704 3 l 1
 702 3 l 1
 702 13 l 1
 732 50 l 1
 742 50 l 1
651 36 m 1
 625 3 l 1
 615 3 l 1
 651 48 l 1
 651 36 l 1
651 12 m 1
 645 3 l 1
 634 3 l 1
 651 24 l 1
 651 12 l 1
8 647 m 1
 6 647 l 1
 8 647 l 1
28 647 m 1
 6 622 l 1
 6 635 l 1
 18 647 l 1
 28 647 l 1
47 647 m 1
 6 598 l 1
 6 611 l 1
 37 647 l 1
 47 647 l 1
643 50 m 1
 605 3 l 1
 595 3 l 1
 633 50 l 1
 643 50 l 1
53 631 m 1
 6 574 l 1
 6 587 l 1
 53 643 l 1
 53 631 l 1
624 50 m 1
 585 3 l 1
 575 3 l 1
 613 50 l 1
 624 50 l 1
53 607 m 1
 14 560 l 1
 6 560 l 1
 6 563 l 1
 53 619 l 1
 53 607 l 1
53 583 m 1
 34 560 l 1
 24 560 l 1
 53 595 l 1
 53 583 l 1
53 560 m 1
 43 560 l 1
 53 571 l 1
 53 560 l 1
564 50 m 1
 563 48 l 1
 563 50 l 1
 564 50 l 1
584 50 m 1
 563 24 l 1
 563 37 l 1
 574 50 l 1
 584 50 l 1
604 50 m 1
 565 3 l 1
 563 3 l 1
 563 13 l 1
 594 50 l 1
 604 50 l 1
512 36 m 1
 486 3 l 1
 475 3 l 1
 512 48 l 1
 512 36 l 1
512 12 m 1
 505 3 l 1
 495 3 l 1
 512 24 l 1
 512 12 l 1
386 108 m 1
 335 108 l 1
 333 116.666666667 315.666666667 144.666666667 283 192 c 0
 268.333333333 212 257.333333333 228 250 240 c 0
 238 259.333333333 229 276.666666667 223 292 c 1
 223 285.333333333 223.833333333 271.666666667 225.5 251 c 128
 227.166666667 230.333333333 228 213.333333333 228 200 c 0
 228 176 228 176 228 154.5 c 128
 228 140.166666667 228.166666667 129 228.5 121 c 128
 228.833333333 113 229 108.666666667 229 108 c 1
 178 108 l 1
 178 122.666666667 178.5 144.5 179.5 173.5 c 128
 180.5 202.5 181 224.333333333 181 239 c 0
 181 254.333333333 180.5 275.166666667 179.5 301.5 c 128
 178.5 327.833333333 178 347 178 359 c 1
 239 359 l 1
 240.333333333 349.666666667 255.666666667 322.333333333 285 277 c 0
 318.333333333 225 337 193.666666667 341 183 c 1
 341 193 339.833333333 217.333333333 337.5 256 c 128
 335.166666667 294.666666667 334 329 334 359 c 1
 386 359 l 1
 386 347.666666667 385.5 331.333333333 384.5 310 c 128
 383.5 288.666666667 383 272.666666667 383 262 c 2
 383 215 l 2
 383 205.666666667 383.5 189 384.5 165 c 128
 385.5 141 386 122 386 108 c 1
12 510 m 1
 6 502 l 1
 6 510 l 1
 12 510 l 1
32 510 m 1
 6 478 l 1
 6 490 l 1
 22 510 l 1
 32 510 l 1
52 510 m 1
 6 454 l 1
 6 467 l 1
 41 510 l 1
 52 510 l 1
504 50 m 1
 466 3 l 1
 456 3 l 1
 494 50 l 1
 504 50 l 1
53 487 m 1
 6 431 l 1
 6 442 l 1
 53 499 l 1
 53 487 l 1
484 50 m 1
 446 3 l 1
 436 3 l 1
 474 50 l 1
 484 50 l 1
53 463 m 1
 18 421 l 1
 8 421 l 1
 53 475 l 1
 53 463 l 1
53 438 m 1
 38 421 l 1
 28 421 l 1
 53 451 l 1
 53 438 l 1
53 421 m 1
 48 421 l 1
 53 427 l 1
 53 421 l 1
425 50 m 1
 423 48 l 1
 423 50 l 1
 425 50 l 1
445 50 m 1
 423 24 l 1
 423 37 l 1
 435 50 l 1
 445 50 l 1
465 50 m 1
 426 3 l 1
 423 3 l 1
 423 13 l 1
 454 50 l 1
 465 50 l 1
373 35 m 1
 347 3 l 1
 337 3 l 1
 373 47 l 1
 373 35 l 1
373 11 m 1
 367 3 l 1
 357 3 l 1
 373 23 l 1
 373 11 l 1
16 370 m 1
 6 358 l 1
 6 370 l 1
 16 370 l 1
36 370 m 1
 6 334 l 1
 6 346 l 1
 26 370 l 1
 36 370 l 1
53 367 m 1
 6 310 l 1
 6 322 l 1
 45 370 l 1
 53 370 l 1
 53 367 l 1
366 50 m 1
 327 3 l 1
 317 3 l 1
 355 50 l 1
 366 50 l 1
53 342 m 1
 6 286 l 1
 6 298 l 1
 53 355 l 1
 53 342 l 1
346 50 m 1
 308 3 l 1
 297 3 l 1
 336 50 l 1
 346 50 l 1
53 318 m 1
 22 282 l 1
 12 282 l 1
 53 331 l 1
 53 318 l 1
53 295 m 1
 42 282 l 1
 32 282 l 1
 53 307 l 1
 53 295 l 1
53 282 m 1
 52 282 l 1
 53 283 l 1
 53 282 l 1
287 50 m 1
 284 47 l 1
 284 50 l 1
 287 50 l 1
306 50 m 1
 284 23 l 1
 284 35 l 1
 296 50 l 1
 306 50 l 1
326 50 m 1
 288 3 l 1
 284 3 l 1
 284 12 l 1
 316 50 l 1
 326 50 l 1
234 34 m 1
 209 3 l 1
 198 3 l 1
 234 46 l 1
 234 34 l 1
234 10 m 1
 229 3 l 1
 218 3 l 1
 234 22 l 1
 234 10 l 1
20 231 m 1
 6 213 l 1
 6 226 l 1
 10 231 l 1
 20 231 l 1
40 231 m 1
 6 190 l 1
 6 202 l 1
 30 231 l 1
 40 231 l 1
227 50 m 1
 189 3 l 1
 179 3 l 1
 217 50 l 1
 227 50 l 1
53 222 m 1
 6 166 l 1
 6 178 l 1
 50 231 l 1
 53 231 l 1
 53 222 l 1
208 50 m 1
 169 3 l 1
 159 3 l 1
 197 50 l 1
 208 50 l 1
53 198 m 1
 7 143 l 1
 6 143 l 1
 6 154 l 1
 53 211 l 1
 53 198 l 1
53 174 m 1
 26 143 l 1
 17 143 l 1
 53 187 l 1
 53 174 l 1
53 150 m 1
 46 143 l 1
 36 143 l 1
 53 162 l 1
 53 150 l 1
148 50 m 1
 145 46 l 1
 145 50 l 1
 148 50 l 1
188 50 m 1
 149 3 l 1
 145 3 l 1
 145 11 l 1
 177 50 l 1
 188 50 l 1
168 50 m 1
 145 22 l 1
 145 35 l 1
 158 50 l 1
 168 50 l 1
94 33 m 1
 70 3 l 1
 60 3 l 1
 94 45 l 1
 94 33 l 1
94 9 m 1
 90 3 l 1
 80 3 l 1
 94 21 l 1
 94 9 l 1
24 92 m 1
 6 69 l 1
 6 82 l 1
 14 92 l 1
 24 92 l 1
44 92 m 1
 6 45 l 1
 6 58 l 1
 34 92 l 1
 44 92 l 1
89 50 m 1
 51 3 l 1
 40 3 l 1
 79 50 l 1
 89 50 l 1
53 78 m 1
 6 21 l 1
 6 34 l 1
 53 90 l 1
 53 78 l 1
69 50 m 1
 31 3 l 1
 20 3 l 1
 59 50 l 1
 69 50 l 1
53 54 m 1
 11 3 l 1
 6 3 l 1
 6 10 l 1
 53 66 l 1
 53 54 l 1
EndSplineSet
EndChar

StartChar: uni0710.init
Encoding: 1114140 -1 175
Width: 800
Flags: W
HStem: 0 40<-130 80> 391 72<189 329>
VStem: 80 109<40 391>
AnchorPoint: "curs" -124 0 exit 0
LayerCount: 2
Fore
SplineSet
80 40 m 1
 80 463 l 1
 329 463 l 1
 661 672 l 1
 721 606 l 1
 451 418 l 1
 653 0 l 1
 528 0 l 1
 336 391 l 1
 189 391 l 1
 189 0 l 1
 -130 0 l 1
 -130 40 l 1
 80 40 l 1
EndSplineSet
EndChar

StartChar: uni0715.med
Encoding: 1114141 -1 176
Width: 648
Flags: W
HStem: 0 40<571 778> 308 153<80 240> 425 36<240 464>
VStem: 80 160<308 425> 464 107<40 425>
AnchorPoint: "curs" -1 0 exit 0
AnchorPoint: "curs" 776 0 entry 0
LayerCount: 2
Fore
SplineSet
80 461 m 1xd8
 571 461 l 1
 571 40 l 1
 778 40 l 1
 778 0 l 1
 464 0 l 1
 464 425 l 1
 240 425 l 1xb8
 240 308 l 1
 80 308 l 1
 80 461 l 1xd8
EndSplineSet
EndChar

StartChar: uni0715.fin
Encoding: 1114142 -1 177
Width: 648
Flags: W
HStem: 0 40<571 778> 308 153<80 240> 425 36<240 464>
VStem: 80 160<308 425> 464 107<40 425>
AnchorPoint: "curs" 776 0 entry 0
LayerCount: 2
Fore
SplineSet
80 461 m 1xd8
 571 461 l 1
 571 40 l 1
 778 40 l 1
 778 0 l 1
 464 0 l 1
 464 425 l 1
 240 425 l 1xb8
 240 308 l 1
 80 308 l 1
 80 461 l 1xd8
EndSplineSet
EndChar

StartChar: uni0719.med
Encoding: 1114143 -1 178
Width: 400
Flags: W
HStem: 0 40<260 427>
VStem: 140 120<40 461>
AnchorPoint: "curs" 0 0 exit 0
AnchorPoint: "curs" 425 0 entry 0
LayerCount: 2
Fore
SplineSet
427 0 m 1
 140 0 l 1
 140 461 l 1
 260 461 l 1
 260 40 l 1
 427 40 l 1
 427 0 l 1
EndSplineSet
EndChar

StartChar: uni0719.fin
Encoding: 1114144 -1 179
Width: 400
Flags: W
HStem: 0 40<260 427>
VStem: 140 120<40 461>
AnchorPoint: "curs" 421 0 entry 0
LayerCount: 2
Fore
SplineSet
427 0 m 1
 140 0 l 1
 140 461 l 1
 260 461 l 1
 260 40 l 1
 427 40 l 1
 427 0 l 1
EndSplineSet
EndChar

StartChar: uni0720.init
Encoding: 1114145 -1 180
Width: 598
Flags: W
HStem: 0 40<-130 391>
AnchorPoint: "curs" -126 0 exit 0
LayerCount: 2
Fore
SplineSet
512 0 m 1
 -130 0 l 1
 -130 40 l 1
 391 40 l 1
 393 47 l 1
 158 518 l 1
 145 541 119 565 80 589 c 1
 274 589 l 1
 512 9 l 1
 512 0 l 1
EndSplineSet
EndChar

StartChar: uni0720.med
Encoding: 1114146 -1 181
Width: 598
Flags: W
HStem: 0 40<-130 391 499 728>
AnchorPoint: "curs" -127 0 exit 0
AnchorPoint: "curs" 726 0 entry 0
LayerCount: 2
Fore
SplineSet
728 0 m 1
 277 0 17 0 -130 0 c 1
 -130 40 l 1
 391 40 l 1
 393 47 l 1
 158 518 l 1
 145 541 119 565 80 589 c 1
 274 589 l 1
 349 406 424 223 499 40 c 0
 502 40 530 40 728 40 c 1
 728 0 l 1
EndSplineSet
EndChar

StartChar: uni0720.fin
Encoding: 1114147 -1 182
Width: 598
Flags: W
HStem: 0 40<80 392 492.969 728>
AnchorPoint: "curs" 727 0 entry 0
LayerCount: 2
Fore
SplineSet
728 0 m 1
 430 0 227 0 80 0 c 1
 80 40 l 1
 392 40 l 1
 394 47 l 1
 159 518 l 1
 146 541 120 565 81 589 c 1
 275 589 l 1
 350 406 425 222 500 39 c 1
 728 39 l 1
 728 0 l 1
EndSplineSet
EndChar

StartChar: uni0721.init
Encoding: 1114148 -1 183
Width: 805
Flags: W
HStem: 0 40<-130 337 451 622> 312 150<80 233> 419 43<233 337 451 622>
VStem: 80 153<312 419> 337 114<40 419> 622 113<40 419>
AnchorPoint: "curs" -128 0 exit 0
LayerCount: 2
Fore
SplineSet
735 0 m 1xbc
 -130 0 l 1
 -130 40 l 1
 337 40 l 1
 337 419 l 1
 233 419 l 1xbc
 233 312 l 1
 80 312 l 1
 80 462 l 1xdc
 735 462 l 1
 735 0 l 1xbc
622 40 m 1
 622 419 l 1
 451 419 l 1
 451 40 l 1
 622 40 l 1
EndSplineSet
EndChar

StartChar: uni0721.med
Encoding: 1114149 -1 184
Width: 805
Flags: W
HStem: 0 41<-130 337 451 622 735 925> 312 150<80 233> 419 43<233 337 451 622>
VStem: 80 153<312 419> 337 114<41 419> 622 113<41 419>
AnchorPoint: "curs" -128 0 exit 0
AnchorPoint: "curs" 923 0 entry 0
LayerCount: 2
Fore
SplineSet
622 41 m 1xbc
 622 419 l 1
 451 419 l 1
 451 41 l 1
 622 41 l 1xbc
-130 0 m 1
 -130 41 l 1
 337 41 l 1
 337 419 l 1
 233 419 l 1xbc
 233 312 l 1
 80 312 l 1
 80 462 l 1xdc
 735 462 l 1
 735 40 l 1
 925 40 l 1
 925 0 l 1
 -130 0 l 1
EndSplineSet
EndChar

StartChar: uni0721.fin
Encoding: 1114150 -1 185
Width: 805
Flags: W
HStem: 0 41<80 337 451 622 735 925> 312 150<80 233> 419 43<233 337 451 622>
VStem: 80 153<312 419> 337 114<41 419> 622 113<41 419>
AnchorPoint: "curs" 923 0 entry 0
LayerCount: 2
Fore
SplineSet
80 0 m 1xbc
 80 41 l 1
 337 41 l 1
 337 419 l 1
 233 419 l 1xbc
 233 312 l 1
 80 312 l 1
 80 462 l 1xdc
 735 462 l 1
 735 40 l 1
 925 40 l 1
 925 0 l 1
 80 0 l 1xbc
622 41 m 1
 622 419 l 1
 451 419 l 1
 451 41 l 1
 622 41 l 1
EndSplineSet
EndChar

StartChar: uni0722.med
Encoding: 1114151 -1 186
Width: 466
Flags: W
HStem: 0 40<-116.5 182.5 291.5 582.5> 422 39<111.5 182.5 291.5 359.5>
VStem: 182.5 109<40 422>
AnchorPoint: "curs" -118 0 exit 0
AnchorPoint: "curs" 577 0 entry 0
LayerCount: 2
Fore
SplineSet
-116.5 0 m 1
 -116.5 40 l 1
 182.5 40 l 1
 182.5 422 l 1
 111.5 422 l 1
 111.5 461 l 1
 359.5 461 l 1
 359.5 422 l 1
 291.5 422 l 1
 291.5 40 l 1
 582.5 40 l 1
 582.5 0 l 1
 -116.5 0 l 1
EndSplineSet
EndChar

StartChar: uni0722.fin
Encoding: 1114152 -1 187
Width: 807
Flags: W
HStem: 0 40<431 937>
AnchorPoint: "curs" 930 0 entry 0
LayerCount: 2
Fore
SplineSet
144 65 m 0
 144 106 183 138 228 138 c 0
 255 138 284 126 314 100 c 0
 344 76 368 55 385 40 c 0
 386 40 399 40 540 40 c 0
 622 40 746 40 937 40 c 1
 937 0 l 1
 431 0 l 1
 633 -162 715 -220 989 -370 c 1
 988 -370 987 -375 984 -386 c 1
 618 -251 144 -74 144 65 c 0
EndSplineSet
EndChar

StartChar: uni0723.med
Encoding: 1114153 -1 188
Width: 880
Flags: W
HStem: 0 54<252.081 390.283 494.969 634.12> 0 40<-130 152 718 1010> 387 78<216.118 319.754 565.579 669.608>
VStem: 81 90<143.126 332.757> 403 80<67.2186 252.892> 715 88<143.332 333.044>
AnchorPoint: "curs" -126 0 exit 0
AnchorPoint: "curs" 1004 0 entry 0
LayerCount: 2
Fore
SplineSet
171 242 m 0xbc
 171 219 177 54 336 54 c 0
 381 54 403 77 403 122 c 0
 403 193 364 387 271 387 c 0
 195 387 171 292 171 242 c 0xbc
550 54 m 0
 670 54 715 154 715 242 c 0
 715 294 690 387 615 387 c 0
 524 387 483 203 483 124 c 0
 483 83 495 54 550 54 c 0
803 215 m 0
 803 211 802 135 718 40 c 1
 1010 40 l 1
 1010 0 l 1
 -130 0 l 1
 -130 40 l 1
 152 40 l 1x7c
 139 53 81 131 81 224 c 0
 81 344 145 421 196 449 c 0
 216 460 259 465 277 465 c 0
 362 465 420 343 443 295 c 1
 494 408 552 465 614 465 c 0
 647 465 672 460 690 449 c 0
 786 391 803 294 803 215 c 0
EndSplineSet
EndChar

StartChar: uni0723.init
Encoding: 1114154 -1 189
Width: 880
Flags: W
HStem: 0 54<251.081 389.283 493.969 633.12> 0 40<-130 151> 387 77<215.118 318.754 564.562 668.626>
VStem: 80 90<143.493 332.176> 402 80<67.2186 252.892> 714 88<143.253 332.544>
AnchorPoint: "curs" -126 0 exit 0
LayerCount: 2
Fore
SplineSet
549 54 m 0xbc
 669 54 714 154 714 242 c 0
 714 294 689 387 614 387 c 0
 523 387 482 203 482 124 c 0
 482 83 494 54 549 54 c 0xbc
170 242 m 0
 170 219 176 54 335 54 c 0
 380 54 402 77 402 122 c 0
 402 193 363 387 270 387 c 0
 194 387 170 292 170 242 c 0
802 214 m 0
 802 145 716 0 648 0 c 2
 -130 0 l 1
 -130 40 l 1
 151 40 l 1x7c
 130 61 80 137 80 224 c 0
 80 342 144 420 195 448 c 0
 215 459 258 464 276 464 c 0
 361 464 419 342 442 294 c 1
 493 407 550 464 614 464 c 0
 646 464 671 459 689 448 c 0
 785 390 802 293 802 214 c 0
EndSplineSet
EndChar

StartChar: uni0723.fin
Encoding: 1114155 -1 190
Width: 880
Flags: W
HStem: 0 54<250.081 388.283 492.969 632.12> 0 40<716 1010> 387 78<214.118 317.754 563.579 667.608>
VStem: 79 90<144.438 332.612> 401 80<67.2186 252.892> 713 88<143.332 333.044>
AnchorPoint: "curs" 1007 0 entry 0
LayerCount: 2
Fore
SplineSet
169 242 m 0xbc
 169 219 175 54 334 54 c 0
 379 54 401 77 401 122 c 0
 401 193 362 387 269 387 c 0
 193 387 169 292 169 242 c 0xbc
548 54 m 0
 668 54 713 154 713 242 c 0
 713 294 688 387 613 387 c 0
 522 387 481 203 481 124 c 0
 481 83 493 54 548 54 c 0
801 215 m 0
 801 211 800 135 716 40 c 1
 1010 40 l 1
 1010 0 l 1
 211 0 l 1x7c
 137 8 79 155 79 231 c 0
 79 332 135 417 194 449 c 0
 214 460 257 465 275 465 c 0
 360 465 418 343 441 295 c 1
 492 408 550 465 612 465 c 0
 645 465 670 460 688 449 c 0
 784 391 801 294 801 215 c 0
EndSplineSet
EndChar

StartChar: uni0725.init
Encoding: 1114156 -1 191
Width: 676
Flags: W
HStem: 0 40<-130 433> 372 89<221.004 313>
VStem: 80 141<359.5 427.5>
AnchorPoint: "curs" -126 0 exit 0
LayerCount: 2
Fore
SplineSet
232 372 m 2
 226 372 221 366 221 362 c 0
 221 357 539 51 552 39 c 2
 596 0 l 1
 -130 0 l 1
 -130 40 l 1
 433 40 l 1
 160 312 l 2
 130 342 80 392 80 411 c 0
 80 444 108 461 163 461 c 2
 313 461 l 1
 313 372 l 1
 232 372 l 2
EndSplineSet
EndChar

StartChar: uni0725.med
Encoding: 1114157 -1 192
Width: 676
Flags: W
HStem: 0 40<-130 433 536.006 806> 372 89<221.004 313>
VStem: 80 141<360 427.5>
AnchorPoint: "curs" -127 0 exit 0
AnchorPoint: "curs" 802 0 entry 0
LayerCount: 2
Fore
SplineSet
221 362 m 0
 221 358 381 199 552 40 c 1
 806 40 l 1
 806 0 l 1
 -130 0 l 1
 -130 40 l 1
 433 40 l 1
 80 392 80 392 80 411 c 0
 80 444 108 461 163 461 c 2
 313 461 l 1
 313 372 l 1
 230 372 l 2
 227 372 221 366 221 362 c 0
EndSplineSet
EndChar

StartChar: uni0725.fin
Encoding: 1114158 -1 193
Width: 676
Flags: W
HStem: 0 40<80 433 536.006 806> 372 89<221.004 313>
AnchorPoint: "curs" 802 0 entry 0
LayerCount: 2
Fore
SplineSet
221 362 m 0
 221 358 381 199 552 40 c 1
 806 40 l 1
 806 0 l 1
 80 0 l 1
 80 40 l 1
 433 40 l 1
 80 392 80 392 80 411 c 0
 80 444 108 461 163 461 c 2
 313 461 l 1
 313 372 l 1
 230 372 l 2
 227 372 221 366 221 362 c 0
EndSplineSet
EndChar

StartChar: uni0727.init
Encoding: 1114159 -1 194
Width: 680
Flags: W
HStem: 0 40<-130 171> 388 73<203.484 496.774>
VStem: 111 84<198.133 385.902> 509 92<257.292 381.054>
AnchorPoint: "curs" -125 0 exit 0
LayerCount: 2
Fore
SplineSet
531 461 m 2
 567 461 601 352 601 313 c 0
 601 268 581 224 540 182 c 0
 522 163 504 145 487 127 c 1
 479 127 l 1
 443 185 l 1
 487 251 509 293 509 312 c 0
 509 354 488 388 479 388 c 2
 224 388 l 2
 203 388 195 343 195 307 c 0
 195 281 246 64 263 34 c 1
 275 0 l 1
 -130 0 l 1
 -130 40 l 1
 171 40 l 1
 131 193 111 284 111 313 c 0
 111 379 118 461 184 461 c 1
 531 461 l 2
EndSplineSet
EndChar

StartChar: uni0727.med
Encoding: 1114160 -1 195
Width: 680
Flags: W
HStem: 0 40<-130 171 254.119 810> 389 73<203.484 496.774>
VStem: 111 84<198.621 386.902> 509 92<258.292 382.054>
AnchorPoint: "curs" -127 0 exit 0
AnchorPoint: "curs" 806 0 entry 0
LayerCount: 2
Fore
SplineSet
195 308 m 0
 195 282 243 78 261 40 c 1
 810 40 l 1
 810 0 l 1
 497 0 183 -0 -130 0 c 1
 -130 41 l 1
 171 41 l 1
 131 194 111 285 111 314 c 0
 111 380 118 462 184 462 c 1
 531 462 l 2
 567 462 601 353 601 314 c 0
 601 269 581 225 540 183 c 0
 522 164 504 146 487 128 c 1
 479 128 l 1
 443 186 l 1
 487 252 509 294 509 313 c 0
 509 355 488 389 479 389 c 2
 224 389 l 2
 203 389 195 344 195 308 c 0
EndSplineSet
EndChar

StartChar: uni0727.fin
Encoding: 1114161 -1 196
Width: 680
Flags: W
HStem: 0 40<81 171 254.119 810> 389 73<203.484 496.774>
VStem: 111 84<198.621 386.902> 509 92<258.292 382.054>
AnchorPoint: "curs" 806 0 entry 0
LayerCount: 2
Fore
SplineSet
195 308 m 0
 195 282 243 78 261 40 c 1
 810 40 l 1
 810 0 l 1
 81 0 l 1
 81 41 l 1
 171 41 l 1
 131 194 111 285 111 314 c 0
 111 380 118 462 184 462 c 1
 531 462 l 2
 567 462 601 353 601 314 c 0
 601 269 581 225 540 183 c 0
 522 164 504 146 487 128 c 1
 479 128 l 1
 443 186 l 1
 487 252 509 294 509 313 c 0
 509 355 488 389 479 389 c 2
 224 389 l 2
 203 389 195 344 195 308 c 0
EndSplineSet
EndChar

StartChar: uni0726.init
Encoding: 1114162 -1 197
Width: 631
Flags: W
HStem: 0 40<-130 424.981> 389 73<184.832 478.077>
VStem: 80 92<261.89 381.166> 487 84<204.954 312>
AnchorPoint: "curs" -126 0 exit 0
LayerCount: 2
Fore
SplineSet
497 462 m 2
 553 462 571 406 571 314 c 0
 571 284 571 284 500 0 c 1
 -130 0 l 1
 -130 40 l 1
 418 40 l 1
 436 74 487 280 487 312 c 0
 487 312 486 389 457 389 c 2
 202 389 l 2
 193 389 172 348 172 318 c 0
 172 299 194 255 238 186 c 0
 238.167385191 185.776819745 238.247603886 185.463359906 238.247603886 185.066741977 c 0
 238.247603886 178.354882868 215.274664172 147.828303663 203 128 c 1
 195 128 l 1
 172 153 148 179 124 205 c 1
 95 242 80 278 80 314 c 0
 80 351 114 462 150 462 c 2
 497 462 l 2
EndSplineSet
EndChar

StartChar: uni0726.med
Encoding: 1114163 -1 198
Width: 631
Flags: W
HStem: 0 40<-130 424.981 510 761> 389 73<185.229 478.077>
VStem: 80 92<258.755 381.128> 487 84<204.575 312>
AnchorPoint: "curs" -126 0 exit 0
AnchorPoint: "curs" 755 0 entry 0
LayerCount: 2
Fore
SplineSet
488 462 m 2
 533 462 571 448 571 314 c 0
 571 291 551 199 510 40 c 1
 761 40 l 1
 761 0 l 1
 -130 0 l 1
 -130 40 l 1
 418 40 l 1
 436 74 487 280 487 312 c 0
 487 312 486 389 457 389 c 2
 202 389 l 2
 194 389 172 351 172 314 c 0
 172 295 194 252 238 186 c 0
 238.167385191 185.776819745 238.247603886 185.466472995 238.247603886 185.075560159 c 0
 238.247603886 178.460246817 215.274664172 148.772508599 203 128 c 1
 195 128 l 1
 172 153 148 179 124 205 c 0
 95 242 80 278 80 314 c 0
 80 350 112 462 150 462 c 1
 488 462 l 2
EndSplineSet
EndChar

StartChar: uni0726.fin
Encoding: 1114164 -1 199
Width: 631
Flags: W
HStem: 0 40<93 426.516 510 761> 389 73<185.229 478.077>
VStem: 80 92<258.755 381.128> 487 84<203.34 312>
AnchorPoint: "curs" 754 0 entry 0
LayerCount: 2
Fore
SplineSet
488 462 m 2
 533 462 571 448 571 314 c 0
 571 291 551 199 510 40 c 1
 761 40 l 1
 761 0 l 1
 93 0 l 1
 93 40 l 1
 419 40 l 1
 435 70 487 280 487 312 c 0
 487 312 486 389 457 389 c 2
 202 389 l 2
 194 389 172 351 172 314 c 0
 172 295 194 252 238 186 c 0
 238.167385191 185.776819745 238.247603886 185.466472995 238.247603886 185.075560159 c 0
 238.247603886 178.460246817 215.274664172 148.772508599 203 128 c 1
 195 128 l 1
 172 153 148 179 124 205 c 0
 95 242 80 278 80 314 c 0
 80 350 112 462 150 462 c 1
 488 462 l 2
EndSplineSet
EndChar

StartChar: uni0728.init
Encoding: 1114165 -1 200
Width: 710
Flags: W
HStem: -310 50<40 321.767> 0 40<-130 246.773>
VStem: 404 124<-203.125 -93.8781>
AnchorPoint: "curs" -125 0 exit 0
LayerCount: 2
Fore
SplineSet
404 -154 m 0
 404 -61 272 0 79 0 c 2
 -130 0 l 1
 -130 40 l 1
 3 40 135 40 269 40 c 1
 336 462 l 1
 435 462 l 1
 652 0 l 1
 304 0 l 1
 437.636363636 -40.0909090909 443.710743802 -41.0020661157 443.986851991 -41.0020661157 c 0
 444 -41.0020661157 444 -41 444 -41 c 1
 500 -68 528 -111 528 -170 c 0
 528 -226 432 -310 238 -310 c 1
 40 -310 l 1
 40 -260 l 1
 219 -260 l 2
 259 -260 404 -236 404 -154 c 0
EndSplineSet
EndChar

StartChar: uni0728.med
Encoding: 1114166 -1 201
Width: 710
Flags: W
HStem: -310 50<42 323.767> 0 40<-130 248.773 624.868 840>
VStem: 406 124<-203.125 -93.8781>
AnchorPoint: "curs" -125 0 exit 0
AnchorPoint: "curs" 837 0 entry 0
LayerCount: 2
Fore
SplineSet
406 -154 m 0
 406 -61 274 0 81 0 c 2
 -130 0 l 1
 -130 40 l 1
 271 40 l 1
 338 462 l 1
 437 462 l 1
 566 186 632 45 634 40 c 1
 840 40 l 1
 840 0 l 1
 306 0 l 1
 440 -40 446 -41 446 -41 c 0
 502 -68 530 -111 530 -170 c 0
 530 -226 434 -310 240 -310 c 2
 42 -310 l 1
 42 -260 l 1
 221 -260 l 2
 261 -260 406 -236 406 -154 c 0
EndSplineSet
EndChar

StartChar: uni0728.fin
Encoding: 1114167 -1 202
Width: 710
Flags: W
HStem: -310 50<43 324.767> 0 40<82 255.076 620.621 840>
VStem: 407 124<-203.125 -94.3638>
AnchorPoint: "curs" 837 0 entry 0
LayerCount: 2
Fore
SplineSet
407 -154 m 0
 407 -34 204 0 126 0 c 2
 82 0 l 1
 82 40 l 1
 272 40 l 1
 339 462 l 1
 438 462 l 1
 563 181 627 40 630 40 c 2
 840 40 l 1
 840 0 l 1
 307 -0 l 1
 308 -0 317 -2 447 -41 c 1
 503 -68 531 -111 531 -170 c 0
 531 -226 435 -310 241 -310 c 2
 43 -310 l 1
 43 -260 l 1
 222 -260 l 2
 262 -260 407 -236 407 -154 c 0
EndSplineSet
EndChar

StartChar: uni0729.init
Encoding: 1114168 -1 203
Width: 610
Flags: W
HStem: 0 40<-130 79 200 413> 420 41<200 413>
VStem: 79 121<40 420> 413 122<40 420>
AnchorPoint: "curs" -126 0 exit 0
LayerCount: 2
Fore
SplineSet
-130 0 m 1
 -130 40 l 1
 79 40 l 1
 79 461 l 1
 535 461 l 1
 535 0 l 1
 -130 0 l 1
413 40 m 1
 413 420 l 1
 200 420 l 1
 200 40 l 1
 413 40 l 1
EndSplineSet
EndChar

StartChar: uni0729.med
Encoding: 1114169 -1 204
Width: 610
Flags: W
HStem: 0 40<-130 79 200 413 535 740> 420 41<200 413>
VStem: 79 121<40 420> 413 122<40 420>
AnchorPoint: "curs" -126 0 exit 0
AnchorPoint: "curs" 736 0 entry 0
LayerCount: 2
Fore
SplineSet
740 0 m 1
 -130 0 l 1
 -130 40 l 1
 79 40 l 1
 79 461 l 1
 535 461 l 1
 535 40 l 1
 740 40 l 1
 740 0 l 1
413 40 m 1
 413 420 l 1
 200 420 l 1
 200 40 l 1
 413 40 l 1
EndSplineSet
EndChar

StartChar: uni0729.fin
Encoding: 1114170 -1 205
Width: 610
Flags: W
HStem: 0 40<202 415 537 740> 420 41<202 415>
VStem: 79 123<40 420> 415 122<40 420>
AnchorPoint: "curs" 735 0 entry 0
LayerCount: 2
Fore
SplineSet
740 0 m 1
 79 0 l 1
 79 461 l 1
 537 461 l 1
 537 40 l 1
 740 40 l 1
 740 0 l 1
415 40 m 1
 415 420 l 1
 202 420 l 1
 202 40 l 1
 415 40 l 1
EndSplineSet
EndChar

StartChar: uni072A.med
Encoding: 1114171 -1 206
Width: 640
Flags: W
HStem: 0 40<572 770> 308 154<81 240> 425 37<240 464> 550 99<292.965 375.299>
VStem: 81 159<308 425> 284 100<558.5 639.883> 464 108<40 425>
AnchorPoint: "curs" 766 0 entry 0
AnchorPoint: "curs" 0 0 exit 0
LayerCount: 2
Fore
SplineSet
284 598 m 0x9e
 284 625 305 649 334 649 c 256
 362 649 384 627 384 599 c 0
 384 570 361 550 334 550 c 0
 308 550 284 570 284 598 c 0x9e
81 462 m 1xde
 572 462 l 1
 572 40 l 1
 770 40 l 1
 770 0 l 1
 464 0 l 1
 464 425 l 1
 240 425 l 1xbe
 240 308 l 1
 81 308 l 1
 81 462 l 1xde
EndSplineSet
EndChar

StartChar: uni072A.fin
Encoding: 1114172 -1 207
Width: 640
Flags: W
HStem: 0 40<572 770> 308 154<81 240> 425 37<240 464> 550 99<292.965 375.299>
VStem: 81 159<308 425> 284 100<558.5 639.883> 464 108<40 425>
AnchorPoint: "curs" 767 0 entry 0
LayerCount: 2
Fore
SplineSet
81 462 m 1xde
 572 462 l 1
 572 40 l 1
 770 40 l 1
 770 0 l 1
 464 0 l 1
 464 425 l 1
 240 425 l 1xbe
 240 308 l 1
 81 308 l 1
 81 462 l 1xde
284 598 m 0
 284 625 305 649 334 649 c 0
 362 649 384 627 384 599 c 0
 384 570 361 550 334 550 c 0
 308 550 284 570 284 598 c 0
EndSplineSet
EndChar

StartChar: uni072B.init
Encoding: 1114173 -1 208
Width: 708
Flags: W
HStem: 0 40<-130 252>
VStem: 220 250<59.6442 233.917>
AnchorPoint: "curs" -126 0 exit 0
LayerCount: 2
Fore
SplineSet
470 151 m 0
 470 34 402 -5 345 -5 c 0
 334 -5 323 -3 313 -0 c 0
 313 -0 287 0 -130 0 c 1
 -130 40 l 1
 252 40 l 1
 235 64 220 105 220 149 c 0
 220 190 232 234 266 269 c 1
 74 469 l 1
 192 469 l 1
 346 314 l 1
 505 467 l 1
 628 467 l 1
 420 273 l 1
 423 270 470 224 470 151 c 0
EndSplineSet
EndChar

StartChar: uni072B.med
Encoding: 1114174 -1 209
Width: 708
Flags: W
HStem: 0 40<-129 251 438 838>
VStem: 219.852 250.148<56.2422 233.769>
AnchorPoint: "curs" -126 0 exit 0
AnchorPoint: "curs" 833 0 entry 0
LayerCount: 2
Fore
SplineSet
420 273 m 1
 460 235 470 175 470 151 c 0
 470 104 459 67 438 40 c 1
 444 41 523 41 550 41 c 0
 615 41 709 40 838 40 c 1
 838 0 l 1
 767.714285714 0 706.408163265 0.0816326530612 652.16909621 0.0816326530612 c 0
 516.571428571 0.0816326530612 425.142857143 -0.428571428571 348 -4 c 0
 345.520259177 -4.17712434447 343.103264422 -4.26012958873 340.754572661 -4.26012958873 c 0
 329.843134833 -4.26012958873 320.4058809 -2.4686269666 313 0 c 1
 -129 0 l 1
 -129 40 l 1
 251 40 l 1
 233.590961855 64.0654350831 219.852377453 104.647912014 219.852377453 148.189014841 c 0
 219.852377453 189.684057248 232.330106824 233.866198425 266 269 c 1
 74 469 l 1
 192 469 l 1
 346 314 l 1
 505 467 l 1
 628 467 l 1
 420 273 l 1
EndSplineSet
EndChar

StartChar: uni072B.fin
Encoding: 1114175 -1 210
Width: 708
Flags: W
HStem: 0.444444 39.5556<438 838>
VStem: 220.246 249.754<57.7979 235.579>
AnchorPoint: "curs" 834 0 entry 0
AnchorPoint: "curs" 305 0 exit 0
LayerCount: 2
Fore
SplineSet
420 274 m 1
 460 236 470 176 470 152 c 0
 470 105 459 67 438 40 c 1
 441 40 475 40 838 40 c 1
 838 0 l 1
 624 0 489.555555556 0.444444444444 422.814814815 0.444444444444 c 0
 389.444444444 0.444444444444 373 0.333333333333 372 0 c 0
 369.816784043 -0.363869326103 358.365506033 -2.71375194939 342.801064453 -2.71375194939 c 0
 315.590695232 -2.71375194939 275.809096282 4.4682902401 251 42 c 0
 232.681845698 70.7149445815 220.246317144 110.214703034 220.246317144 151.033971304 c 0
 220.246317144 192.663671477 233.180541341 235.665797096 266 270 c 1
 74 470 l 1
 192 470 l 1
 346 315 l 1
 505 468 l 1
 628 468 l 1
 420 274 l 1
EndSplineSet
EndChar

StartChar: uni072C.init
Encoding: 1114176 -1 211
Width: 886
Flags: W
HStem: 0 64<145 484 533 635.827> 0 39<-130 80> 366 76<406.232 630.912>
VStem: 706 100<140.504 301.397>
AnchorPoint: "curs" -124 0 exit 0
LayerCount: 2
Fore
SplineSet
484 64 m 1xb0
 411 188 l 2
 362 271 337 315 335 321 c 1
 305 321 145 151 145 64 c 1
 484 64 l 1xb0
568 64 m 0
 669 64 706 168 706 224 c 0
 706 272 688 308 653 332 c 0
 614 359 559 366 516 366 c 0
 477 366 447 360 446 360 c 0
 436 358 419 351 396 341 c 1
 533 64 l 1
 552 64 548 64 568 64 c 0
806 222 m 0
 806 62 718 0 537 0 c 2xb0
 -130 0 l 1
 -130 39 l 1
 80 39 l 1x70
 80 60 l 1
 115 195 189 300 304 377 c 0
 304 377 259 448 168 588 c 1
 275 588 l 1
 370 403 l 1
 399 419 440 442 544 442 c 0
 621 442 684 423 733 384 c 0
 782 345 806 291 806 222 c 0
EndSplineSet
EndChar

StartChar: uni072C.med
Encoding: 1114177 -1 212
Width: 886
Flags: W
HStem: 0 64<145 484 533.147 635.444> 0 40<-130 80 723 1015> 365.567 76.4326<404.179 631.318>
VStem: 706 100<140.623 301.397>
AnchorPoint: "curs" -126 0 exit 0
AnchorPoint: "curs" 1012 0 entry 0
LayerCount: 2
Fore
SplineSet
484 64 m 1xb0
 411 188 l 2
 362 271 337 315 335 321 c 1
 305 321 145 151 145 64 c 1
 484 64 l 1xb0
568 65 m 0
 669 65 706 168 706 224 c 0
 706 272 688 308 653 332 c 0
 614.271222254 359.057091302 559.217569844 365.567357594 515.613510016 365.567357594 c 0
 477.028134682 365.567357594 447.408406394 360.469468798 446 360 c 0
 436 358 419 351 396 341 c 1
 533 64 l 1
 536 65 548 65 568 65 c 0
806 222 m 0
 806 94 749 57 723 40 c 1
 1015 40 l 1
 1015 0 l 1
 740 0 386 0 -130 0 c 1
 -130 40 l 1
 80 40 l 1x70
 80 60 l 1
 119 199 194 305 304 377 c 0
 304 377 259 448 168 588 c 1
 275 588 l 1
 370 403 l 1
 388 413 399 419 404 420 c 0
 455 435 502 442 544 442 c 0
 621 442 684 423 733 384 c 0
 782 345 806 291 806 222 c 0
EndSplineSet
EndChar

StartChar: uni072C.fin
Encoding: 1114178 -1 213
Width: 886
Flags: W
HStem: 0 64<145 484 533.147 635.444> 0 40<723 1015> 365.567 77.4326<404.179 630.917>
VStem: 706 100<139.375 300.393>
AnchorPoint: "curs" 1011 0 entry 0
LayerCount: 2
Fore
SplineSet
484 64 m 1xb0
 411 188 l 2
 362 271 337 315 335 321 c 1
 305 321 145 151 145 64 c 1
 484 64 l 1xb0
568 65 m 0
 669 65 706 168 706 224 c 0
 706 272 688 308 653 332 c 0
 614.271222254 359.057091302 559.217569844 365.567357594 515.613510016 365.567357594 c 0
 477.028134682 365.567357594 447.408406394 360.469468798 446 360 c 0
 436 358 419 351 396 341 c 1
 533 64 l 1
 536 65 548 65 568 65 c 0
544 443 m 0
 589 443 806 432 806 222 c 0
 806 137 778 75 723 40 c 5
 727 40 760 40 1015 40 c 1
 1015 0 l 1
 894 0 596 0 80 0 c 1x70
 80 61 l 1
 121 198 195 303 304 378 c 0
 304 378 259 449 168 589 c 1
 275 589 l 1
 370 404 l 1
 388 414 399 420 404 421 c 0
 455 436 502 443 544 443 c 0
EndSplineSet
EndChar

StartChar: uni0740
Encoding: 1856 1856 214
Width: 0
GlyphClass: 4
Flags: W
HStem: 698 100<173.838 256.162 319.456 401.5>
VStem: 165 100<707.058 789.102> 310 100<707.459 788.407>
LayerCount: 2
Fore
SplineSet
165 747 m 0
 165 775 186 798 215 798 c 256
 242 798 265 777 265 747 c 0
 265 721 244 698 215 698 c 0
 188 698 165 720 165 747 c 0
310 747 m 0
 310 775 333 798 361 798 c 256
 389 798 410 777 410 747 c 0
 410 721 390 698 361 698 c 0
 335 698 310 719 310 747 c 0
EndSplineSet
EndChar
